<?xml version="1.0" encoding="UTF-8" standalone="no"?>
<!DOCTYPE svg PUBLIC "-//W3C//DTD SVG 1.1//EN" "http://www.w3.org/Graphics/SVG/1.1/DTD/svg11.dtd">
<svg width="100%" height="100%" viewBox="0 0 300 300" version="1.1" xmlns="http://www.w3.org/2000/svg" xmlns:xlink="http://www.w3.org/1999/xlink" xml:space="preserve" xmlns:serif="http://www.serif.com/" style="fill-rule:evenodd;clip-rule:evenodd;stroke-linejoin:round;stroke-miterlimit:1.41421;">
    <g transform="matrix(1,0,0,1,65.7637,92.1459)">
        <g id="beard">
            <path id="beard-06" d="M101.414,104.433C98.9,106.727 96.222,107.759 92.838,107.038C92.256,106.914 89.882,102.499 83.985,102.499C78.089,102.499 75.715,106.914 75.132,107.038C71.748,107.759 69.07,106.727 66.557,104.433C61.831,100.12 56.572,87.487 58.933,80.998C60.163,77.615 62.165,73.902 65.806,72.824C69.693,71.674 76.497,71.715 80.415,70.929C81.684,70.675 83.071,70.222 84,69.471C84.929,70.222 86.316,70.675 87.585,70.929C91.503,71.715 98.572,71.661 102.405,72.984C105.937,74.204 107.977,77.866 109.278,81.157C111.816,87.579 106.139,100.12 101.414,104.433M140.081,26C136.671,34.4 137.988,44.858 137.357,53.676C136.844,60.843 135.337,71.586 128.973,76.215C125.718,78.582 119.794,82.56 115.542,81.45C112.615,80.686 112.302,72.29 108.455,69.147C104.092,65.582 98.643,64.016 93.149,64.258C90.779,64.362 85.984,64.337 84,66.16C82.016,64.337 77.222,64.362 74.851,64.258C69.357,64.016 63.908,65.582 59.545,69.147C55.698,72.29 55.386,80.686 52.458,81.45C48.206,82.56 42.282,78.582 39.027,76.215C32.662,71.586 31.156,60.843 30.643,53.676C30.012,44.858 31.329,34.4 27.919,26C26.26,26 27.354,42.129 27.354,42.129L27.354,62.485C27.386,77.773 36.935,100.655 58.108,109.393C63.286,111.53 75.015,115 84,115C92.985,115 104.714,111.86 109.892,109.723C131.065,100.986 140.614,77.773 140.646,62.485L140.646,42.129C140.646,42.129 141.74,26 140.081,26" style="fill:rgb(140,82,45);"/>
        </g>
    </g>
</svg>
