<?xml version="1.0" encoding="UTF-8" standalone="no"?>
<!DOCTYPE svg PUBLIC "-//W3C//DTD SVG 1.1//EN" "http://www.w3.org/Graphics/SVG/1.1/DTD/svg11.dtd">
<svg width="100%" height="100%" viewBox="0 0 300 300" version="1.1" xmlns="http://www.w3.org/2000/svg" xmlns:xlink="http://www.w3.org/1999/xlink" xml:space="preserve" xmlns:serif="http://www.serif.com/" style="fill-rule:evenodd;clip-rule:evenodd;stroke-linejoin:round;stroke-miterlimit:1.41421;">
    <g transform="matrix(1,0,0,1,66.2604,91.8413)">
        <g id="beard">
            <path id="beard-05" d="M64.747,75.662C66.93,74.029 79.973,73.403 82.324,72.014C83.058,71.58 83.627,71.14 84.066,70.705C84.505,71.14 85.075,71.58 85.809,72.014C88.16,73.403 107.014,73.911 109.197,75.544C111.408,77.197 108.19,94.626 108.013,97.592C107.801,101.151 103.908,109.644 94.219,110.622C92.104,108.269 88.783,106.751 85.046,106.751C81.31,106.751 77.989,108.269 75.874,110.622C66.185,109.644 62.292,101.151 62.08,97.592C61.903,94.626 55.547,76.967 57.757,75.313M103.688,106.347C103.689,106.347 103.691,106.346 103.692,106.346C103.691,106.346 103.689,106.347 103.688,106.347M66.392,106.342C66.396,106.344 66.403,106.347 66.408,106.349C66.403,106.347 66.397,106.344 66.392,106.342M144.863,55.985C144.474,50.03 143.278,44.152 142.234,38.286C141.953,36.707 140.424,26 139.735,26C139.502,35.109 138.702,44.08 137.67,53.139C137.361,55.848 137.038,58.556 136.825,61.274C136.654,63.47 136.96,66.122 136.428,68.246C135.749,70.952 132.348,73.478 129.703,74.411C123.103,76.737 117.598,67.108 111.961,64.291C104.643,60.635 92.064,59.764 84.582,64.53C76.936,59.764 64.357,60.635 57.039,64.291C51.402,67.108 45.897,76.737 39.297,74.411C36.652,73.478 33.25,70.952 32.572,68.246C32.04,66.122 32.346,63.47 32.175,61.274C31.962,58.556 31.639,55.848 31.33,53.139C30.298,44.08 29.497,35.109 29.265,26C28.576,26 27.047,36.707 26.766,38.286C25.722,44.152 24.526,50.03 24.138,55.985C23.739,62.105 24.215,68.167 25.47,74.163C26.069,77.028 26.769,79.876 27.519,82.704C28.353,85.847 27.199,91.966 27.572,95.192C28.279,101.296 31.154,113.2 34.383,118.451C35.944,120.989 37.773,122.574 39.816,124.619C41.783,126.588 42.604,129.64 44.726,131.737C48.682,135.645 54.446,137.971 60.366,138.543C65.677,143.05 74.506,146 84.5,146C94.495,146 103.323,143.05 108.635,138.543C114.554,137.971 120.318,135.645 124.274,131.737C126.396,129.64 127.217,126.588 129.184,124.619C131.226,122.574 133.056,120.989 134.617,118.451C137.846,113.2 140.721,101.296 141.428,95.192C141.801,91.966 140.647,85.847 141.481,82.704C142.232,79.876 142.931,77.028 143.531,74.163C144.785,68.167 145.261,62.105 144.863,55.985Z" style="fill:rgb(140,82,45);"/>
        </g>
    </g>
</svg>
