<?xml version="1.0" encoding="UTF-8" standalone="no"?>
<!DOCTYPE svg PUBLIC "-//W3C//DTD SVG 1.1//EN" "http://www.w3.org/Graphics/SVG/1.1/DTD/svg11.dtd">
<svg width="100%" height="100%" viewBox="0 0 300 300" version="1.1" xmlns="http://www.w3.org/2000/svg" xmlns:xlink="http://www.w3.org/1999/xlink" xml:space="preserve" xmlns:serif="http://www.serif.com/" style="fill-rule:evenodd;clip-rule:evenodd;stroke-linejoin:round;stroke-miterlimit:1.41421;">
    <g transform="matrix(1,0,0,1,66.0309,92.3204)">
        <g id="beard">
            <path id="beard-04" d="M84.576,106.082C73.064,106.46 67.929,111.962 64.062,106.371C61.16,102.173 55.59,78.95 58.302,74.979C62.161,69.328 74.352,71.864 80.205,71.219C81.797,71.044 83.396,70.602 84.747,69.879C86.099,70.602 87.698,71.044 89.289,71.219C95.143,71.864 106.939,70.465 110.798,76.116C113.51,80.087 107.991,102.173 105.089,106.371C101.222,111.962 96.087,105.704 84.576,106.082ZM140.391,26C136.967,40.075 135.393,54.434 132.91,68.671C132.393,71.639 131.826,74.596 131.225,77.55C131.098,78.17 130.974,80.473 130.363,80.764C128.512,81.648 124.739,76.947 123.73,75.885C121.197,73.219 118.685,70.529 115.599,68.437C109.365,64.21 102.065,61.711 94.47,61.118C91.292,60.869 86.995,61.303 84,63.11C81.005,61.303 76.708,60.869 73.53,61.118C65.934,61.711 58.635,64.21 52.4,68.437C49.315,70.529 46.803,73.219 44.269,75.885C43.261,76.947 39.488,81.648 37.637,80.764C37.026,80.473 36.902,78.17 36.775,77.55C36.174,74.596 35.607,71.639 35.09,68.671C32.607,54.434 31.034,40.075 27.609,26C26.613,26 25.739,44.748 25.627,46.495C25.175,53.589 24.646,60.525 25.322,67.626C26.486,79.875 27.699,95.234 37.033,104.588C45.466,113.039 57.71,114.806 68.271,120.141C69.631,120.828 71.435,121.676 73.38,122.371C75.429,123.934 79.493,125 84.174,125C89.085,125 93.316,123.827 95.254,122.138C96.955,121.493 98.518,120.753 99.729,120.141C110.289,114.805 122.534,113.039 130.967,104.588C140.301,95.234 141.514,79.875 142.679,67.626C143.353,60.525 142.825,53.589 142.373,46.495C142.261,44.748 141.387,26 140.391,26Z" style="fill:rgb(140,82,45);"/>
        </g>
    </g>
</svg>
