<?xml version="1.0" encoding="UTF-8" standalone="no"?>
<!DOCTYPE svg PUBLIC "-//W3C//DTD SVG 1.1//EN" "http://www.w3.org/Graphics/SVG/1.1/DTD/svg11.dtd">
<svg width="100%" height="100%" viewBox="0 0 300 300" version="1.1" xmlns="http://www.w3.org/2000/svg" xmlns:xlink="http://www.w3.org/1999/xlink" xml:space="preserve" xmlns:serif="http://www.serif.com/" style="fill-rule:evenodd;clip-rule:evenodd;stroke-linejoin:round;stroke-miterlimit:1.41421;">
    <g transform="matrix(1,0,0,1,96.9825,147.824)">
        <g id="mouth">
            <g id="mouth-07">
                <g transform="matrix(1,0,0,-1,0,54)">
                    <path d="M38.215,13.133C37.485,13.045 36.79,13 36.092,13C34.949,13 33.896,13.737 34.008,15.136C34.724,24.073 36.25,32.145 41.36,36.77C42.124,36.277 43.03,36 44,36L65,36C65.709,36 66.385,36.148 67.014,36.43C71.839,31.722 73.322,23.773 73.994,15.006C74.081,13.876 73.174,13 72.037,13L69.79,13.082C68.814,18.171 64.351,22 59,22C57.2,22 55.5,21.567 54,20.799C52.5,21.567 50.8,22 49,22C43.649,22 39.186,18.171 38.215,13.133Z" style="fill-opacity:0.698039;"/>
                </g>
                <path d="M41.36,17.23C44.264,14.552 48.305,13.003 53.996,13C59.924,12.997 64.069,14.686 67.014,17.57C66.385,17.852 65.709,18 65,18L44,18C43.03,18 42.124,17.723 41.36,17.23Z" style="fill:white;"/>
                <path d="M38.215,40.867C39.186,35.829 43.649,32 49,32C50.8,32 52.5,32.433 54,33.201C55.5,32.433 57.2,32 59,32C64.351,32 68.814,35.829 69.79,40.918C64.63,40.555 61.64,39.006 53.989,39C46.607,38.995 42.211,40.445 38.215,40.867Z" style="fill:rgb(255,79,109);"/>
            </g>
        </g>
    </g>
</svg>
