<?xml version="1.0" encoding="UTF-8" standalone="no"?>
<!DOCTYPE svg PUBLIC "-//W3C//DTD SVG 1.1//EN" "http://www.w3.org/Graphics/SVG/1.1/DTD/svg11.dtd">
<svg width="100%" height="100%" viewBox="0 0 300 300" version="1.1" xmlns="http://www.w3.org/2000/svg" xmlns:xlink="http://www.w3.org/1999/xlink" xml:space="preserve" xmlns:serif="http://www.serif.com/" style="fill-rule:evenodd;clip-rule:evenodd;stroke-linejoin:round;stroke-miterlimit:1.41421;">
    <g transform="matrix(1,0,0,1,96.8744,153.089)">
        <g id="mouth">
            <g id="mouth-04">
                <g id="Delicious" transform="matrix(1,0,0,1,28,6)">
                    <path d="M16.191,10.106C18.755,11.842 22.205,12.906 26,12.906C29.795,12.906 33.245,11.842 35.809,10.106C35.982,4.996 40.208,0.797 45.706,0C42.34,1.959 40.02,5.495 40.02,9.677C40.02,15.345 45.493,20.245 51.823,20.245C51.882,20.245 51.941,20.245 52,20.244C50.642,20.732 49.16,21 47.608,21C42.286,21 37.787,17.847 36.314,13.514C33.839,15.67 30.137,17.039 26,17.039C21.863,17.039 18.161,15.67 15.686,13.514C14.213,17.847 9.714,21 4.392,21C2.84,21 1.358,20.732 0,20.244C0.059,20.245 0.118,20.245 0.177,20.245C6.507,20.245 11.98,15.345 11.98,9.677C11.98,5.495 9.66,1.959 6.294,0C11.792,0.797 16.018,4.996 16.191,10.106Z" style="fill-opacity:0.357647;"/>
                </g>
                <circle id="Redish" cx="17" cy="15" r="9" style="fill:rgb(255,70,70);fill-opacity:0.2;"/>
                <circle id="Redish1" serif:id="Redish" cx="91" cy="15" r="9" style="fill:rgb(255,70,70);fill-opacity:0.2;"/>
            </g>
        </g>
    </g>
</svg>
