<?xml version="1.0" encoding="UTF-8" standalone="no"?>
<svg width="100%" height="100%" viewBox="0 0 200 200" version="1.1" xmlns="http://www.w3.org/2000/svg" xmlns:xlink="http://www.w3.org/1999/xlink" xml:space="preserve" xmlns:serif="http://www.serif.com/" style="fill-rule:evenodd;clip-rule:evenodd;stroke-linejoin:round;stroke-miterlimit:1.41421;">
    <g id="Eyes">
      <g>
        <path d="M128,77.5c-2.803,5.778 -4.303,7.009 -8.151,7c-3.568,-0.008 -5.28,-1.349 -7.849,-7l3.624,0c-0.277,0.379 -0.41,0.834 -0.41,1.32c0,1.384 1.072,2.507 2.393,2.507c1.321,0 2.393,-1.123 2.393,-2.507c0,-0.486 -0.133,-0.941 -0.41,-1.32l8.41,0Z" style="fill:#fff;" />
        <path d="M119.59,77.5c0.277,0.379 0.41,0.834 0.41,1.32c0,1.384 -1.072,2.507 -2.393,2.507c-1.321,0 -2.393,-1.123 -2.393,-2.507c0,-0.486 0.133,-0.941 0.41,-1.32l3.966,0Z" style="fill:#343434;" />
        <path d="M84.376,77.5l3.624,0c-2.554,5.639 -4.265,6.992 -7.849,7c-3.865,0.009 -5.361,-1.233 -8.151,-7l8.41,0c-0.277,0.379 -0.41,0.834 -0.41,1.32c0,1.384 1.072,2.507 2.393,2.507c1.321,0 2.393,-1.123 2.393,-2.507c0,-0.486 -0.133,-0.941 -0.41,-1.32Z" style="fill:#fff;" />
        <path d="M84.376,77.5c0.277,0.379 0.41,0.834 0.41,1.32c0,1.384 -1.072,2.507 -2.393,2.507c-1.321,0 -2.393,-1.123 -2.393,-2.507c0,-0.486 0.133,-0.941 0.41,-1.32l3.966,0Z" style="fill:#343434;" />
      </g>
    </g>
</svg>
