<?xml version="1.0" encoding="UTF-8" standalone="no"?>
<!DOCTYPE svg PUBLIC "-//W3C//DTD SVG 1.1//EN" "http://www.w3.org/Graphics/SVG/1.1/DTD/svg11.dtd">
<svg width="100%" height="100%" viewBox="0 0 300 300" version="1.1" xmlns="http://www.w3.org/2000/svg" xmlns:xlink="http://www.w3.org/1999/xlink" xml:space="preserve" xmlns:serif="http://www.serif.com/" style="fill-rule:evenodd;clip-rule:evenodd;stroke-linejoin:round;stroke-miterlimit:1.41421;">
    <g transform="matrix(1,0,0,1,17.7359,189.78)">
        <g id="clothing">
            <g id="clothing-01">
                <path id="Clothes" d="M105.192,29.052C105.065,30.035 105,31.036 105,32.052C105,45.859 117.088,57.052 132,57.052C146.912,57.052 159,45.859 159,32.052C159,31.036 158.935,30.035 158.808,29.052L160,29.052C199.765,29.052 232,61.287 232,101.052L232,110L32,110L32,101.052C32,61.287 64.235,29.052 104,29.052L105.192,29.052Z" style="fill:rgb(183,193,219);fill-opacity:0.721569;"/>
                <path id="Collar" d="M156,22.279C162.182,26.835 166,33.106 166,40.028C166,47.233 161.863,53.733 155.229,58.327L149.579,53.876L145,54.208L146,51.057L145.922,50.996C152.022,47.853 156,42.7 156,36.877L156,22.279ZM108,21.571L108,36.877C108,42.7 111.978,47.853 118.078,50.996L118,51.057L119,54.208L114.421,53.876L108.308,58.692C101.362,54.08 97,47.426 97,40.028C97,32.74 101.233,26.174 108,21.571Z" style="fill:rgb(183,193,219);"/>
            </g>
        </g>
    </g>
</svg>
