<?xml version="1.0" encoding="UTF-8" standalone="no"?>
<svg width="100%" height="100%" viewBox="0 0 200 200" version="1.1" xmlns="http://www.w3.org/2000/svg" xmlns:xlink="http://www.w3.org/1999/xlink" xml:space="preserve" xmlns:serif="http://www.serif.com/" style="fill-rule:evenodd;clip-rule:evenodd;stroke-linejoin:round;stroke-miterlimit:1.41421;">
	<g id="Beards">
		<path id="beard-03" d="M145,92c2.895,26.918 -8.352,59.5 -38.572,63.063c-5.835,0.688 -12.215,0.557 -17.998,-0.646c-20.687,-4.304 -29.976,-23.372 -32.82,-42.491c-0.485,-3.259 -0.704,-6.559 -0.808,-9.853c-0.1,-3.19 0.049,-7.386 0.197,-10.574l5.001,0.501c28.05,30.987 54.695,28.909 80,0l5,0m-40.009,53.215c16.109,0.293 25.529,-23.263 12.84,-25.215c-11.837,-3.221 -23.729,-2.955 -35.662,0c-10.86,1.67 -1.96,25.754 13.835,25.306c0.236,-5.528 8.642,-5.598 8.987,-0.091" style="fill:#84483d;" />
	</g>
</svg>
