<?xml version="1.0" encoding="UTF-8" standalone="no"?>
<!DOCTYPE svg PUBLIC "-//W3C//DTD SVG 1.1//EN" "http://www.w3.org/Graphics/SVG/1.1/DTD/svg11.dtd">
<svg width="100%" height="100%" viewBox="0 0 300 300" version="1.1" xmlns="http://www.w3.org/2000/svg" xmlns:xlink="http://www.w3.org/1999/xlink" xml:space="preserve" xmlns:serif="http://www.serif.com/" style="fill-rule:evenodd;clip-rule:evenodd;stroke-linejoin:round;stroke-miterlimit:1.41421;">
    <g transform="matrix(1,0,0,1,-0.390411,-17)">
        <g id="eyebrow">
            <path id="eyebrow-04" d="M148,148.6C148,147.716 148.895,147 150,147C151.105,147 152,147.716 152,148.6L152,165.4C152,166.284 151.105,167 150,167C148.895,167 148,166.284 148,165.4L148,148.6ZM140.27,147.121C140.401,146.381 141.388,145.937 142.476,146.129C143.564,146.321 144.34,147.076 144.209,147.816L141.73,161.879C141.599,162.619 140.612,163.063 139.524,162.871C138.436,162.679 137.66,161.924 137.791,161.184L140.27,147.121ZM156.791,147.816C156.66,147.076 157.436,146.321 158.524,146.129C159.612,145.937 160.599,146.381 160.73,147.121L163.209,161.184C163.34,161.924 162.564,162.679 161.476,162.871C160.388,163.063 159.401,162.619 159.27,161.879L156.791,147.816ZM168.784,147.864C171.504,147.384 205.545,143.48 208.433,145.877C209.873,146.683 211.778,149.875 208.873,151.515C200.121,156.457 175.89,160.693 173.848,161.053C171.129,161.532 169.513,159.73 167.784,155.864C166.056,151.997 166.065,148.343 168.784,147.864ZM132.606,147.759C135.325,148.238 135.335,151.892 133.606,155.759C131.877,159.625 130.262,161.427 127.542,160.948C125.501,160.588 101.269,156.353 92.518,151.411C89.612,149.77 91.518,146.578 92.958,145.773C95.845,143.375 129.887,147.279 132.606,147.759Z" style="fill-opacity:0.2;fill-rule:nonzero;"/>
        </g>
    </g>
</svg>
