<?xml version="1.0" encoding="UTF-8" standalone="no"?>
<!DOCTYPE svg PUBLIC "-//W3C//DTD SVG 1.1//EN" "http://www.w3.org/Graphics/SVG/1.1/DTD/svg11.dtd">
<svg width="100%" height="100%" viewBox="0 0 300 300" version="1.1" xmlns="http://www.w3.org/2000/svg" xmlns:xlink="http://www.w3.org/1999/xlink" xml:space="preserve" xmlns:serif="http://www.serif.com/" style="fill-rule:evenodd;clip-rule:evenodd;stroke-linejoin:round;stroke-miterlimit:1.41421;">
    <g transform="matrix(1,0,0,1,18,104.272)">
        <g id="eyebrow">
            <path id="eyebrow-01" d="M77.285,39.158L73.285,34.659C72.871,34.193 72.913,33.48 73.379,33.065C78.66,28.371 85.157,26 92.683,26C100.143,26 106.824,28.325 112.576,32.927C113.063,33.316 113.142,34.027 112.753,34.513L108.992,39.214C108.603,39.701 107.892,39.78 107.405,39.391C103.124,35.966 98.267,34.277 92.683,34.277C87.166,34.277 82.626,35.92 78.878,39.252C78.412,39.666 77.699,39.624 77.285,39.158ZM155.285,39.158L151.285,34.659C150.871,34.193 150.913,33.48 151.379,33.065C156.66,28.371 163.157,26 170.683,26C178.143,26 184.824,28.325 190.576,32.927C191.063,33.316 191.142,34.027 190.753,34.513L186.992,39.214C186.603,39.701 185.892,39.78 185.405,39.391C181.124,35.966 176.267,34.277 170.683,34.277C165.166,34.277 160.626,35.92 156.878,39.252C156.412,39.666 155.699,39.624 155.285,39.158Z" style="fill-opacity:0.2;fill-rule:nonzero;"/>
        </g>
    </g>
</svg>
