<?xml version="1.0" encoding="UTF-8" standalone="no"?>
<!DOCTYPE svg PUBLIC "-//W3C//DTD SVG 1.1//EN" "http://www.w3.org/Graphics/SVG/1.1/DTD/svg11.dtd">
<svg width="100%" height="100%" viewBox="0 0 300 300" version="1.1" xmlns="http://www.w3.org/2000/svg" xmlns:xlink="http://www.w3.org/1999/xlink" xml:space="preserve" xmlns:serif="http://www.serif.com/" style="fill-rule:evenodd;clip-rule:evenodd;stroke-linejoin:round;stroke-miterlimit:1.41421;">
    <g transform="matrix(1,0,0,1,17.745,111.272)">
        <g id="eyebrow">
            <path id="eyebrow-03" d="M154.822,28.925C152.102,28.445 150.286,25.852 150.766,23.133C151.245,20.413 153.839,18.597 156.558,19.077C159.278,19.556 193.454,24.692 191.143,30.252C168.454,26.673 157.541,29.404 154.822,28.925ZM109.433,29.275C106.714,29.755 95.801,27.023 73.112,30.603C70.801,25.043 104.977,19.907 107.697,19.427C110.416,18.948 113.01,20.764 113.489,23.483C113.969,26.202 112.153,28.796 109.433,29.275Z" style="fill-opacity:0.2;"/>
        </g>
    </g>
</svg>
