<?xml version="1.0" encoding="UTF-8" standalone="no"?>
<!DOCTYPE svg PUBLIC "-//W3C//DTD SVG 1.1//EN" "http://www.w3.org/Graphics/SVG/1.1/DTD/svg11.dtd">
<svg width="100%" height="100%" viewBox="0 0 300 300" version="1.1" xmlns="http://www.w3.org/2000/svg" xmlns:xlink="http://www.w3.org/1999/xlink" xml:space="preserve" xmlns:serif="http://www.serif.com/" style="fill-rule:evenodd;clip-rule:evenodd;stroke-linejoin:round;stroke-miterlimit:1.41421;">
    <g transform="matrix(1,0,0,1,17.8705,95.9233)">
        <g id="eyebrow">
            <path id="eyebrow-02" d="M164.563,49.863C153.685,51.781 144.167,49.368 143.304,44.473C142.441,39.578 150.559,34.055 161.437,32.137C172.315,30.219 181.833,32.632 182.696,37.527C183.559,42.422 175.441,47.945 164.563,49.863ZM99.696,50.2C88.818,48.281 80.7,42.758 81.563,37.863C82.426,32.968 91.944,30.555 102.822,32.473C113.7,34.391 121.818,39.914 120.955,44.809C120.092,49.704 110.574,52.118 99.696,50.2Z" style="fill-opacity:0.2;"/>
        </g>
    </g>
</svg>
