<?xml version="1.0" encoding="UTF-8" standalone="no"?>
<!DOCTYPE svg PUBLIC "-//W3C//DTD SVG 1.1//EN" "http://www.w3.org/Graphics/SVG/1.1/DTD/svg11.dtd">
<svg width="100%" height="100%" viewBox="0 0 300 300" version="1.1" xmlns="http://www.w3.org/2000/svg" xmlns:xlink="http://www.w3.org/1999/xlink" xml:space="preserve" xmlns:serif="http://www.serif.com/" style="fill-rule:evenodd;clip-rule:evenodd;stroke-linejoin:round;stroke-miterlimit:1.41421;">
    <g transform="matrix(1,0,0,1,17.9206,102.099)">
        <g id="eyebrow">
            <path id="eyebrow-05" d="M89.489,35.568C84.299,37.457 79.403,37.095 78.553,34.76C77.703,32.424 81.221,29 86.411,27.111C91.601,25.222 96.497,25.584 97.347,27.919C98.197,30.255 94.679,33.679 89.489,35.568ZM174.67,35.904C169.48,34.016 165.962,30.591 166.812,28.256C167.662,25.92 172.558,25.558 177.748,27.447C182.938,29.336 186.456,32.761 185.606,35.096C184.756,37.431 179.86,37.793 174.67,35.904Z" style="fill-opacity:0.2;"/>
        </g>
    </g>
</svg>
