<?xml version="1.0" encoding="UTF-8" standalone="no"?>
<!DOCTYPE svg PUBLIC "-//W3C//DTD SVG 1.1//EN" "http://www.w3.org/Graphics/SVG/1.1/DTD/svg11.dtd">
<svg width="100%" height="100%" viewBox="0 0 300 300" version="1.1" xmlns="http://www.w3.org/2000/svg" xmlns:xlink="http://www.w3.org/1999/xlink" xml:space="preserve" xmlns:serif="http://www.serif.com/" style="fill-rule:evenodd;clip-rule:evenodd;stroke-linejoin:round;stroke-miterlimit:1.41421;">
    <g transform="matrix(1,0,0,1,16.9851,20.2091)">
        <g id="hair">
            <g id="hair-03">
                <g id="Cabello" transform="matrix(1,0,0,1,57,12)">
                    <path d="M132,85.937C131.972,85.958 131.945,85.979 131.917,86C129.014,38.853 83.447,55.742 76,29.336C68.553,55.742 22.986,38.853 20.083,86C20.055,85.979 20.028,85.958 20,85.937L20,86.166C14.845,87.031 10.804,91.183 10.107,96.393C7.55,93.487 6,89.675 6,85.5C6,83.855 6.241,82.267 6.689,80.767C2.631,77.761 0,72.938 0,67.5C0,61.007 3.75,55.39 9.203,52.697C8.427,50.784 8,48.692 8,46.5C8,38.865 13.185,32.442 20.227,30.559C20.077,29.561 20,28.539 20,27.5C20,16.178 29.178,7 40.5,7C43.129,7 45.643,7.495 47.953,8.397C51.683,3.306 57.705,0 64.5,0C68.762,0 72.721,1.301 76,3.527C79.279,1.301 83.238,0 87.5,0C94.295,0 100.317,3.306 104.047,8.397C106.357,7.495 108.871,7 111.5,7C122.822,7 132,16.178 132,27.5C132,28.539 131.923,29.561 131.773,30.559C138.815,32.442 144,38.865 144,46.5C144,49.043 143.425,51.451 142.398,53.602C146.97,56.536 150,61.664 150,67.5C150,72.21 148.027,76.459 144.862,79.465C145.596,81.334 146,83.37 146,85.5C146,89.675 144.45,93.487 141.893,96.393C141.196,91.183 137.155,87.031 132,86.166L132,85.937ZM52,168.611L52,172.812C51.185,172.936 50.35,173 49.5,173C42.679,173 36.825,168.861 34.312,162.958C25.754,162.349 19,155.213 19,146.5C19,145.029 19.192,143.603 19.554,142.246C12.858,140.144 8,133.889 8,126.5C8,122.756 9.247,119.302 11.349,116.533C13.087,119.871 16.347,122.289 20.209,122.867C21.952,143.115 34.469,160.283 52,168.611ZM100,168.611C117.531,160.283 130.048,143.115 131.791,122.867C135.653,122.289 138.913,119.871 140.651,116.533C142.753,119.302 144,122.756 144,126.5C144,133.889 139.142,140.144 132.446,142.246C132.808,143.603 133,145.029 133,146.5C133,155.213 126.246,162.349 117.688,162.958C115.175,168.861 109.321,173 102.5,173C101.65,173 100.815,172.936 100,172.812L100,168.611Z" style="fill:rgb(140,82,45);"/>
                </g>
                <g id="Ornamentos" transform="matrix(1,0,0,1,67,0)">
                    <g id="hoja" transform="matrix(0.939693,0.34202,0.34202,-0.939693,105.219,67.1014)">
                        <g opacity="0.9">
                            <path id="leaf" d="M3.611,10C3.611,10 1.95,0 13,0C20.222,0 25.278,5.714 25.278,5.714C25.278,5.714 19.861,14.286 11.556,14.286C5.056,14.286 3.611,10 3.611,10Z" style="fill:rgb(93,211,98);fill-rule:nonzero;"/>
                            <path id="leaf1" serif:id="leaf" d="M25.278,5.714C25.278,5.714 19.861,14.286 11.556,14.286C7.222,14.286 5.128,12.357 4.189,11.071C2.094,12.857 1.372,14.5 1.372,14.571C1.3,14.857 1.011,15 0.722,15C0.65,15 0.506,15 0.433,14.929C0.072,14.786 -0.072,14.357 0.072,14C0.144,13.786 1.95,9.857 7.439,7.286C15.383,3.143 25.278,5.714 25.278,5.714Z" style="fill:rgb(66,188,83);fill-rule:nonzero;"/>
                        </g>
                    </g>
                    <g id="hoja1" serif:id="hoja" transform="matrix(0.5,0.866025,-0.866025,0.5,102.115,8)">
                        <path id="leaf2" serif:id="leaf" d="M15,12C15,5.9 9,0 9,0C9,0 1.7,4.3 1,13C0.3,21.7 6.8,23.7 6.8,23.7C6.8,23.7 15,20.8 15,12Z" style="fill:rgb(93,211,98);"/>
                        <path id="leaf3" serif:id="leaf" d="M8,29C8.1,29 8.2,29 8.3,28.9C8.8,28.7 9.1,28.1 8.9,27.6C8.4,26.1 8,24.7 7.8,23.2C10,22.2 15,18.9 15,12C15,5.9 9,0 9,0C9,0 8.6,1.1 8,3C7.8,3.5 2.8,16.6 7.1,28.3C7.2,28.7 7.6,29 8,29Z" style="fill:rgb(66,188,83);"/>
                    </g>
                    <g id="hoja2" serif:id="hoja" transform="matrix(-0.5,-0.866025,0.866025,-0.5,20.5,73.4904)">
                        <path id="leaf4" serif:id="leaf" d="M15,12C15,5.9 9,0 9,0C9,0 1.7,4.3 1,13C0.3,21.7 6.8,23.7 6.8,23.7C6.8,23.7 15,20.8 15,12Z" style="fill:rgb(93,211,98);"/>
                        <path id="leaf5" serif:id="leaf" d="M8,29C8.1,29 8.2,29 8.3,28.9C8.8,28.7 9.1,28.1 8.9,27.6C8.4,26.1 8,24.7 7.8,23.2C10,22.2 15,18.9 15,12C15,5.9 9,0 9,0C9,0 8.6,1.1 8,3C7.8,3.5 2.8,16.6 7.1,28.3C7.2,28.7 7.6,29 8,29Z" style="fill:rgb(66,188,83);"/>
                    </g>
                    <g id="Flor" transform="matrix(-1,0,0,1,26,29)">
                        <path d="M24.424,20.956C25.26,19.847 25.614,18.478 25.421,17.103C25.228,15.727 24.51,14.509 23.402,13.674C23.102,13.448 22.708,13.263 22.26,13.106C22.713,12.965 23.114,12.793 23.42,12.579C25.769,10.934 26.342,7.685 24.697,5.336C23.053,2.988 19.804,2.415 17.455,4.059C17.149,4.274 16.851,4.592 16.562,4.97C16.568,4.495 16.529,4.061 16.419,3.703C16.013,2.375 15.114,1.284 13.887,0.632C12.661,-0.02 11.254,-0.155 9.926,0.251C7.184,1.089 5.635,4.002 6.473,6.744C6.582,7.1 6.787,7.479 7.055,7.868C6.607,7.717 6.186,7.625 5.814,7.618C2.947,7.568 0.574,9.86 0.523,12.727C0.504,13.865 0.853,14.926 1.461,15.794C2.384,17.111 3.904,17.987 5.632,18.017C6.005,18.023 6.428,17.946 6.881,17.811C6.599,18.19 6.382,18.562 6.261,18.914C5.698,20.549 6,22.276 6.923,23.594C7.531,24.462 8.408,25.153 9.484,25.524C12.195,26.457 15.16,25.01 16.093,22.299C16.215,21.947 16.272,21.52 16.284,21.047C16.557,21.433 16.844,21.755 17.141,21.979C18.251,22.815 19.619,23.169 20.994,22.976C22.371,22.783 23.589,22.065 24.424,20.956Z" style="fill:rgb(74,202,211);fill-rule:nonzero;"/>
                        <path d="M11.178,8.64C10.945,7.877 11.374,7.069 12.137,6.836C12.9,6.603 13.708,7.032 13.941,7.795C14.174,8.558 13.709,11.977 13.709,11.977C13.709,11.977 11.411,9.403 11.178,8.64ZM8.936,14.437C8.138,14.423 7.502,13.766 7.517,12.968C7.531,12.17 8.188,11.535 8.986,11.549C9.784,11.563 12.891,13.062 12.891,13.062C12.891,13.062 9.733,14.451 8.936,14.437ZM14.993,12.419C14.993,12.419 16.731,9.439 17.385,8.981C18.039,8.523 18.939,8.682 19.397,9.336C19.854,9.989 19.696,10.89 19.042,11.347C18.388,11.805 14.993,12.419 14.993,12.419ZM11.92,19.257C11.166,18.997 10.765,18.175 11.025,17.421C11.284,16.666 13.671,14.175 13.671,14.175C13.671,14.175 14.016,17.607 13.757,18.362C13.497,19.116 12.675,19.517 11.92,19.257ZM17.24,17.296C16.602,16.816 14.969,13.777 14.969,13.777C14.969,13.777 18.341,14.509 18.978,14.989C19.615,15.469 19.743,16.375 19.262,17.012C18.782,17.649 17.876,17.777 17.24,17.296Z" style="fill:white;"/>
                    </g>
                    <g id="Flor1" serif:id="Flor" transform="matrix(1,0,0,1,20,16)">
                        <path d="M30.526,33.098L30.784,30.784L33.098,30.525C35.945,30.205 38.208,28.408 39.152,25.714C40.218,22.672 39.217,19.355 36.605,17.433L34.731,16.053L35.663,13.919C36.892,11.113 36.308,8.024 34.142,5.858C31.976,3.692 28.887,3.108 26.08,4.336L23.947,5.269L22.567,3.394C20.644,0.786 17.327,-0.218 14.284,0.848C11.592,1.791 9.793,4.055 9.475,6.902L9.216,9.215L6.902,9.475C4.055,9.794 1.791,11.592 0.848,14.285C-0.09,16.961 0.55,19.846 2.517,21.813L2.517,21.813C2.786,22.082 3.08,22.335 3.394,22.566L5.269,23.946L4.335,26.08C3.109,28.887 3.692,31.976 5.858,34.142C8.024,36.308 11.113,36.891 13.92,35.665L16.054,34.731L17.434,36.606C19.351,39.217 22.674,40.218 25.717,39.153C28.41,38.208 30.207,35.945 30.526,33.098Z" style="fill:rgb(253,181,153);fill-rule:nonzero;"/>
                        <path d="M22.882,25.191C23.088,25.959 22.632,26.749 21.863,26.955C21.095,27.16 20.305,26.704 20.1,25.936C19.894,25.169 20,20 20,20C20,20 17.508,24.529 16.945,25.091C16.384,25.653 15.471,25.653 14.909,25.091C14.347,24.529 14.347,23.616 14.909,23.055C15.471,22.492 20,20 20,20C20,20 14.832,20.106 14.064,19.9C13.295,19.695 12.84,18.905 13.045,18.137C13.251,17.368 14.041,16.912 14.809,17.118C15.577,17.324 20,20 20,20C20,20 17.324,15.577 17.118,14.809C16.912,14.041 17.368,13.251 18.137,13.045C18.905,12.84 19.695,13.295 19.9,14.064C20.106,14.832 20,20 20,20C20,20 22.492,15.471 23.055,14.909C23.617,14.347 24.529,14.347 25.091,14.909C25.653,15.471 25.653,16.383 25.091,16.945C24.529,17.508 20,20 20,20C20,20 25.169,19.894 25.936,20.1C26.704,20.305 27.16,21.095 26.955,21.863C26.749,22.632 25.959,23.088 25.191,22.882C24.423,22.676 20,20 20,20C20,20 22.675,24.422 22.882,25.191Z" style="fill:white;"/>
                    </g>
                    <g id="Flor2" serif:id="Flor" transform="matrix(1,0,0,1,89,26)">
                        <path d="M34.758,29.822C35.947,28.244 36.451,26.296 36.176,24.339C35.901,22.381 34.88,20.648 33.302,19.459C32.876,19.138 32.315,18.875 31.677,18.651C32.322,18.45 32.893,18.206 33.329,17.9C36.671,15.56 37.487,10.937 35.146,7.594C32.806,4.252 28.182,3.437 24.84,5.777C24.404,6.083 23.98,6.535 23.57,7.073C23.578,6.397 23.522,5.779 23.366,5.27C22.788,3.38 21.508,1.827 19.763,0.9C18.018,-0.029 16.015,-0.22 14.125,0.357C10.223,1.55 8.019,5.695 9.211,9.597C9.367,10.104 9.658,10.643 10.04,11.196C9.403,10.981 8.804,10.851 8.273,10.842C4.194,10.771 0.817,14.031 0.745,18.112C0.718,19.732 1.214,21.24 2.079,22.475C3.393,24.351 5.555,25.597 8.015,25.639C8.545,25.648 9.148,25.538 9.792,25.346C9.391,25.886 9.082,26.415 8.909,26.916C8.108,29.243 8.538,31.7 9.852,33.576C10.717,34.812 11.966,35.795 13.497,36.322C17.355,37.651 21.574,35.591 22.902,31.734C23.075,31.232 23.157,30.625 23.173,29.952C23.562,30.501 23.97,30.959 24.393,31.278C25.972,32.468 27.919,32.971 29.877,32.696C31.835,32.422 33.569,31.401 34.758,29.822Z" style="fill:rgb(247,211,12);fill-rule:nonzero;"/>
                        <path d="M15.908,12.295C15.576,11.21 16.187,10.06 17.272,9.729C18.358,9.397 19.507,10.008 19.839,11.093C20.17,12.179 19.509,17.044 19.509,17.044C19.509,17.044 16.239,13.381 15.908,12.295ZM12.716,20.545C11.581,20.525 10.677,19.59 10.697,18.454C10.717,17.319 11.653,16.415 12.788,16.435C13.923,16.455 18.346,18.588 18.346,18.588C18.346,18.588 13.851,20.565 12.716,20.545ZM21.336,17.673C21.336,17.673 23.81,13.432 24.74,12.781C25.67,12.129 26.952,12.355 27.603,13.285C28.254,14.215 28.028,15.497 27.098,16.148C26.168,16.799 21.336,17.673 21.336,17.673ZM16.963,27.404C15.89,27.035 15.32,25.865 15.689,24.791C16.058,23.718 19.454,20.172 19.454,20.172C19.454,20.172 19.946,25.057 19.577,26.13C19.207,27.203 18.037,27.774 16.963,27.404ZM24.533,24.614C23.626,23.931 21.303,19.606 21.303,19.606C21.303,19.606 26.1,20.648 27.007,21.331C27.914,22.014 28.095,23.303 27.412,24.209C26.729,25.116 25.439,25.297 24.533,24.614Z" style="fill:white;"/>
                    </g>
                    <g id="Flor3" serif:id="Flor" transform="matrix(1,0,0,1,48,0)">
                        <path d="M54.138,31.546C55.963,24.563 48.144,19.132 45.185,17.362C45.699,14.428 46.857,4.801 40.717,1.246C34.612,-2.288 26.924,3.45 24.601,5.394C24.401,5.269 24.166,5.126 23.898,4.971C20.831,3.196 13.13,-0.381 7.85,4.736C2.205,10.204 5.537,18.739 6.805,21.434C4.646,23.445 -1.579,30.026 0.987,37.024C1.693,38.953 2.998,40.48 4.869,41.562C8.9,43.896 14.476,43.52 16.592,43.269C17.585,45.15 20.422,49.981 24.48,52.33C26.15,53.297 27.855,53.743 29.55,53.655C36.455,53.297 39.466,43.66 40.22,40.743C43.081,40.347 52.306,38.544 54.138,31.546Z" style="fill:rgb(255,115,152);fill-rule:nonzero;"/>
                        <path d="M27.764,25.603C27.764,25.603 31.449,33.791 28.118,34.314C24.784,34.834 26.657,25.722 26.657,25.722C26.657,25.722 19.546,31.729 18.507,28.75C17.468,25.771 26.209,24.702 26.209,24.702C26.209,24.702 18.221,20.01 20.815,17.866C23.409,15.722 27.031,23.958 27.031,23.958C27.031,23.958 28.976,15.039 31.851,16.704C34.727,18.368 27.994,24.515 27.994,24.515C27.994,24.515 36.871,23.526 36.364,26.867C35.859,30.209 27.764,25.603 27.764,25.603Z" style="fill:white;"/>
                    </g>
                </g>
                <g id="Arete" transform="matrix(1,0,0,1,182,129)">
                    <path id="Cadenita" d="M11,1C11,0.448 10.552,0 10,0C9.448,0 9,0.448 9,1L9,38C9,38.552 9.448,39 10,39C10.552,39 11,38.552 11,38L11,1Z" style="fill:rgb(230,230,230);"/>
                    <path id="Rayo" d="M20,37L10.57,37L17,20L6,20L0,41L8.636,41L4,60L20,37Z" style="fill:rgb(145,119,255);fill-rule:nonzero;"/>
                </g>
            </g>
        </g>
    </g>
</svg>
