<?xml version="1.0" encoding="UTF-8" standalone="no"?>
<!DOCTYPE svg PUBLIC "-//W3C//DTD SVG 1.1//EN" "http://www.w3.org/Graphics/SVG/1.1/DTD/svg11.dtd">
<svg width="100%" height="100%" viewBox="0 0 300 300" version="1.1" xmlns="http://www.w3.org/2000/svg" xmlns:xlink="http://www.w3.org/1999/xlink" xml:space="preserve" xmlns:serif="http://www.serif.com/" style="fill-rule:evenodd;clip-rule:evenodd;stroke-linejoin:round;stroke-miterlimit:1.41421;">
    <g transform="matrix(1,0,0,1,17,20)">
        <g id="hair">
            <g id="hair-07">
                <g id="Hair" transform="matrix(1,0,0,1,40,15)">
                    <path id="path-1" d="M21,157.541L21,69.046C21,65.514 21.398,62.075 22.152,58.771C25.205,38.731 36.775,22.811 50,13C69.905,-1.76 103.442,-6.018 115.047,11.522C123.698,7.681 136.519,11.182 146,20C155.565,29.415 163.2,50.197 158.657,67.204C158.762,68.469 158.815,69.749 158.815,71.041L158.815,92.892C157.934,87.918 153.989,84.003 149,83.166L149,83C142.964,61.464 125.23,51.58 114.43,41.777C97.535,60.673 44.823,60.74 27,98L27,108C27,114.019 31.431,119.002 37.209,119.867C38.952,140.115 51.469,157.283 69,165.611L69,166C71.93,209.855 62.358,264.797 0,248C13.606,240.038 20.808,189.056 21,157.541ZM117,165.611C134.531,157.283 147.048,140.115 148.791,119.867C153.879,119.106 157.922,115.151 158.815,110.108L158.815,111.47C158.815,127.299 162.573,142.901 169.778,156.994L196.727,209.701C203.69,223.32 201.646,239.174 192.791,250.469C189.966,213.289 158.903,184 121,184L117,184L117,165.611ZM80.413,265L162.893,265L80.413,265Z" style="fill:rgb(140,82,45);"/>
                </g>
                <path id="Shadow" d="M67,113C84.823,75.74 137.535,75.673 154.43,56.777C165.208,66.56 182.892,76.424 188.963,97.869C182.892,79.267 165.208,72.698 154.43,64.208C137.535,80.607 84.823,80.665 67,113Z" style="fill-opacity:0.156863;"/>
            </g>
        </g>
    </g>
</svg>
