<?xml version="1.0" encoding="UTF-8" standalone="no"?>
<!DOCTYPE svg PUBLIC "-//W3C//DTD SVG 1.1//EN" "http://www.w3.org/Graphics/SVG/1.1/DTD/svg11.dtd">
<svg width="100%" height="100%" viewBox="0 0 300 300" version="1.1" xmlns="http://www.w3.org/2000/svg" xmlns:xlink="http://www.w3.org/1999/xlink" xml:space="preserve" xmlns:serif="http://www.serif.com/" style="fill-rule:evenodd;clip-rule:evenodd;stroke-linejoin:round;stroke-miterlimit:1.41421;">
    <g transform="matrix(1,0,0,1,17,20)">
        <g id="hair">
            <g id="hair-05">
                <path id="Shadow" d="M67,109.778L67,89C67,66.113 78.65,45.946 96.343,34.107C96.878,36.618 97.232,39.392 97.39,42.393C107.882,40.929 120.19,40.087 133.354,40.087C146.228,40.087 158.285,40.893 168.624,42.297C168.785,39.335 169.136,36.595 169.664,34.113C187.353,45.952 199,66.116 199,89L199,109.777C189.978,108.707 177.13,89.391 171.668,69.438C160.683,71.112 147.513,72.087 133.354,72.087C118.905,72.087 105.486,71.072 94.369,69.335C88.922,89.331 76.038,108.717 67,109.778Z" style="fill-opacity:0.156863;"/>
                <g id="Hair" transform="matrix(1,0,0,1,17,0)">
                    <path id="path-1" d="M180.666,104.495C177.967,103.691 174.996,101.441 172.02,98.169C172.013,98.168 172.007,98.167 172,98.166L172,98.148C165.154,90.61 158.288,77.664 154.668,64.438C143.683,66.112 130.513,67.087 116.354,67.087C101.905,67.087 88.486,66.072 77.369,64.335C73.755,77.602 66.866,90.601 60,98.157L60,98.166C59.997,98.166 59.994,98.167 59.991,98.168C57.01,101.445 54.035,103.696 51.333,104.498C50.481,106.146 50,108.017 50,110L50,123C50,129.019 54.431,134.002 60.209,134.867C61.952,155.115 74.469,172.283 92,180.611L92,190.054C88.168,191.95 83.941,193 79.5,193C71.879,193 64.889,189.907 59.441,184.758C57.98,184.918 56.498,185 55,185C36.61,185 20.74,172.684 13.378,154.884C7.1,149.814 3,141.454 3,132C3,130.215 3.146,128.469 3.426,126.777C1.214,120.339 0,113.331 0,106C0,93.134 3.739,81.264 10.046,71.725C10.015,71.155 10,70.579 10,70C10,59.043 15.507,49.557 23.529,44.957C30.84,27.369 46.259,14.991 64.303,14.057C68.726,9.075 74.799,6 81.5,6C82.451,6 83.389,6.062 84.312,6.182C94.09,2.196 104.789,0 116,0C127.211,0 137.91,2.196 147.688,6.182C148.611,6.062 149.549,6 150.5,6C157.201,6 163.274,9.075 167.697,14.057C185.741,14.991 201.16,27.369 208.471,44.957C216.493,49.557 222,59.043 222,70C222,70.579 221.985,71.155 221.954,71.725C228.261,81.264 232,93.134 232,106C232,113.331 230.786,120.339 228.574,126.777C228.854,128.469 229,130.215 229,132C229,141.454 224.9,149.814 218.622,154.884C211.26,172.684 195.39,185 177,185C175.502,185 174.02,184.918 172.559,184.758C167.111,189.907 160.121,193 152.5,193C148.059,193 143.832,191.95 140,190.054L140,180.611C157.531,172.283 170.048,155.115 171.791,134.867C177.569,134.002 182,129.019 182,123L182,110C182,108.016 181.518,106.144 180.666,104.495Z" style="fill:rgb(140,82,45);"/>
                </g>
            </g>
        </g>
    </g>
</svg>
