<?xml version="1.0" encoding="UTF-8" standalone="no"?>
<!DOCTYPE svg PUBLIC "-//W3C//DTD SVG 1.1//EN" "http://www.w3.org/Graphics/SVG/1.1/DTD/svg11.dtd">
<svg width="100%" height="100%" viewBox="0 0 300 300" version="1.1" xmlns="http://www.w3.org/2000/svg" xmlns:xlink="http://www.w3.org/1999/xlink" xml:space="preserve" xmlns:serif="http://www.serif.com/" style="fill-rule:evenodd;clip-rule:evenodd;stroke-linejoin:round;stroke-miterlimit:1.41421;">
    <g transform="matrix(1,0,0,1,17,20)">
        <g id="hair">
            <g id="hair-04">
                <path id="Top-Shadow" d="M100.9,42.465C91.102,48.472 82.386,56.327 76.587,65.36C73.825,69.663 71.553,74.2 69.436,78.758C68.374,81.045 67.405,83.36 66.476,85.689C65.889,87.159 64.989,88.745 65.836,90.288C66.353,89.986 66.549,90.094 66.224,90.635C68.916,91.369 72.658,89.3 74.991,88.536C79.754,86.975 84.52,85.503 89.399,84.205C93.855,83.019 103.798,81.091 107.689,80.194L110.425,77.215L111.488,79.17C113.646,79.004 125.566,77.213 125.566,77.213L126.896,73.99C128.613,75.753 129.835,76.669 129.835,76.669C132.391,76.46 143.488,76.211 146.12,76.243C146.12,76.243 153.46,76.501 155.241,76.571L156.908,75.933L157.456,77.01C158.91,77.601 167.699,80.601 169.434,81.138L171.981,80.232C173.1,82.926 175.92,82.586 178.257,84.713C181.349,87.527 187.826,89.529 190.918,91.976C192.025,92.852 193.06,93.768 194.1,94.702C195.256,95.739 195.085,95.89 195.461,97.08C195.573,97.436 196.716,99.279 197.203,99.43C198.936,99.966 187.049,68.944 183.786,64.977C180.418,60.883 158.575,33.323 129.612,34.225" style="fill-opacity:0.156863;"/>
                <g id="Hair" transform="matrix(1,0,0,1,26,16)">
                    <path id="Hair-Mask" d="M162.831,71.618C159.483,69.737 154.76,67.992 152.257,65.713C149.92,63.586 147.1,63.926 145.981,61.232L143.434,62.138C141.699,61.601 132.91,58.601 131.456,58.01L130.908,56.933L129.241,57.571C127.46,57.501 120.12,57.243 120.12,57.243C117.488,57.211 106.391,57.46 103.835,57.669C103.835,57.669 102.613,56.753 100.896,54.99L99.566,58.213C99.566,58.213 87.646,60.004 85.488,60.17L84.425,58.215L81.689,61.194C77.798,62.091 67.855,64.019 63.399,65.205C59.365,66.278 55.409,67.47 51.467,68.733C51.159,71.112 51,73.537 51,76L51,114C51,136.339 64.08,155.623 83,164.611L83,183L79,183C73.362,183 67.875,183.648 62.61,184.874C62.582,184.916 62.554,184.958 62.525,185L62.486,185C62.416,185.123 62.346,185.245 62.275,185.368C58.449,190.933 51.304,198.55 45.61,203.337C45.675,203.416 45.741,203.494 45.807,203.573C45.389,204.001 45.038,204.436 44.823,204.862C43.938,206.615 44.597,209.659 45.014,211.559C45.308,212.899 45.815,214.188 46.482,215.419C49.679,221.315 57.628,224.075 66,222.748C63.471,224.871 58.451,226.571 55.047,226.691C50.419,226.856 44.762,225.069 40.785,223.109C41.389,226.709 43.472,228.723 45.409,231.707C40.636,231.461 36.861,226.167 35.262,224.052C34.237,222.697 33.286,221.205 32.726,219.654C30.529,224.162 29.293,236.29 30.383,239.685C28.283,238.743 26.325,237.734 24.341,236.576C7.404,226.689 5.778,209.912 6.08,204.016C6.397,197.822 8.542,192.413 11.094,186.603C12.741,182.853 14.641,179.068 15.56,175.128C16.026,173.129 15.695,172.732 14.458,171.11C12.408,168.424 10.057,165.919 7.94,163.272C5.525,160.251 3.466,157.104 2.029,153.633C-0.512,147.496 -0.597,140.451 1.385,134.126C4.545,124.044 17.099,113.958 22.603,107.036C16.907,89.176 25.351,69.912 33.716,59.774C41.419,50.438 51.691,0.473 108.587,0.199C165.482,-0.075 170.293,47.053 173.618,55.225C177.488,64.738 187.127,80.879 189.521,90.887C190.606,95.426 191.214,99.935 190.686,104.583C190.565,105.649 189.609,108.811 190.21,109.441C191.068,110.343 193.907,111.258 195.115,111.958C197.334,113.245 199.589,114.502 201.726,115.888C207.291,119.499 210.865,125.127 213.118,130.734C215.834,137.493 215.398,144.529 212.052,151.201C209.921,155.449 206.599,159.671 202.342,162.571C201.04,163.458 201.247,163.105 201.094,164.445C201.001,165.263 201.101,166.193 201.086,167.01C201.062,168.362 200.993,169.708 200.871,171.057C200.281,177.55 198.999,184.245 196.758,190.497C195.344,194.445 193.59,198.418 190.225,201.477C187.38,204.063 183.289,205.9 179.373,206.996C178.017,207.375 178.036,207.779 177.958,208.172C177.852,208.701 177.986,211.232 178.099,211.917C178.515,214.441 179.469,217.14 180.201,219.606C182.188,226.296 185.106,232.88 186.364,239.728C186.968,243.017 186.918,246.459 186.146,249.742C185.526,252.379 184.398,254.962 182.932,257.347C181.256,260.071 176.343,264.379 172.244,262.524C177.763,259.889 178.003,254.265 176.119,252.691C174.188,251.078 171.542,250.985 168.977,250.994C166.848,251.001 164.743,251.164 162.631,251.43C158.007,252.01 152.697,253.463 148.074,252.383C145.444,251.768 142.98,250.546 140.607,249.428C140.396,249.329 139.17,248.746 137.472,247.543C119.824,233.574 123.626,210.496 138.539,183.141C137.038,183.047 136.524,183 135,183L131,183L131,164.611C149.92,155.623 163,136.339 163,114L163,76C163,74.525 162.943,73.064 162.831,71.618Z" style="fill:rgb(140,82,45);"/>
                </g>
                <path id="Lights" d="M79.04,170.094C78.981,169.893 78.835,169.667 78.635,169.429C78.771,169.65 78.907,169.871 79.04,170.094ZM56.41,120.375C57.266,126.541 58.736,132.465 60.866,138.377C62.928,144.098 65.286,149.836 68.679,155.068C71.84,159.943 75.603,164.492 78.635,169.429C77.838,168.481 76.163,167.33 75.521,166.651C74.464,165.535 73.475,164.385 72.537,163.193C70.614,160.75 68.9,158.194 67.243,155.61C63.991,150.537 61.553,145.034 59.44,139.531C55.29,128.723 51.127,115.617 54.774,104.201C54.492,104.935 55.233,106.688 55.349,107.497C55.553,108.911 55.735,110.334 55.827,111.757C56.012,114.64 56.011,117.506 56.41,120.375ZM68.855,165.041C67.497,163.31 64.974,161.944 63.413,160.279C61.998,158.77 60.902,157.078 59.907,155.34C57.652,151.399 56.17,147.375 55.69,142.969C55.799,143.492 56.608,144.396 56.863,144.825C57.477,145.859 58.084,146.894 58.651,147.949C59.748,149.99 60.664,152.1 61.773,154.136C63.811,157.875 66.403,161.495 68.855,165.041ZM73.532,183.499C74.647,185.461 75.572,187.465 76.157,189.601C76.465,190.728 76.714,191.87 76.927,193.014C76.996,193.383 77.009,194.71 77.185,195.284C74.97,190.993 73.28,186.449 70.642,182.342C68.038,178.288 64.695,174.561 61.196,171.061C57.501,167.366 53.786,163.879 51.804,159.214C50.079,155.154 49.413,150.996 49.814,146.658C49.816,148.569 51.571,151.28 52.177,153.127C53.006,155.654 53.666,158.232 54.914,160.634C57.04,164.723 60.873,167.877 64.079,171.322C67.632,175.138 71.025,179.084 73.532,183.499ZM59.229,174.179C60.287,175.197 61.216,176.283 62.035,177.454C62.933,178.739 63.591,180.09 64.18,181.504C64.687,182.721 64.911,184.986 65.707,186.002C63.129,182.856 60.474,179.885 58.696,176.312C58.089,175.09 57.148,173.289 56.453,171.817C56.684,172.41 58.706,173.677 59.229,174.179ZM48.903,180.528C51.741,184.778 55.451,188.609 57.877,193.056C60.707,198.243 61.952,203.863 62.203,209.596C62.322,212.307 62.315,215.061 61.95,217.764C61.754,219.212 61.44,220.65 61.081,222.076C60.945,222.617 60.241,224.002 60.104,224.847C59.814,214.306 61.558,203.764 56.077,193.943C53.481,189.292 49.491,185.327 46.398,180.925C43.616,176.966 40.9,173.084 38.685,168.851C40.041,170.567 42.485,171.916 44.001,173.62C45.9,175.754 47.349,178.2 48.903,180.528ZM60.104,224.847C60.071,225.051 60.07,225.224 60.117,225.347C60.112,225.18 60.108,225.013 60.104,224.847ZM50.56,202.494C50.561,202.99 51.376,204.012 51.599,204.529C52.121,205.738 52.546,207.007 52.757,208.29C53.175,210.818 52.627,213.43 51.69,215.85C49.791,220.757 46.816,225.103 43.077,229.15C44.412,227.402 44.944,224.561 45.883,222.612C46.848,220.611 47.883,218.641 48.734,216.601C50.653,211.996 50.484,207.29 50.56,202.494ZM41.917,221.201C42.318,220.653 42.11,218.018 42.322,217.329C42.714,216.056 43.392,214.827 44.171,213.694C43.755,214.393 44.369,216.16 44.166,217.067C43.834,218.556 42.996,219.999 41.917,221.201ZM99.608,42.748C99.527,42.805 99.447,42.908 99.368,43.045C99.448,42.946 99.527,42.847 99.608,42.748ZM84.847,64.332C86.267,63.086 87.024,60.141 88.003,58.552C89.128,56.727 90.421,54.973 91.648,53.196C94.08,49.672 96.374,46.212 99.368,43.005C98.746,43.94 98.195,46.774 97.854,47.519C96.962,49.467 95.899,51.333 94.633,53.124C91.772,57.168 88.703,60.927 84.847,64.332ZM84.312,54.122C85.062,52.795 86.206,51.674 87.492,50.708C86.919,51.211 86.661,53.283 86.267,53.983C85.472,55.395 84.314,56.613 83.071,57.755C83.735,57.173 83.843,54.952 84.312,54.122ZM203.506,152.128C203.499,152.18 203.485,152.282 203.465,152.438C203.463,150.913 202.784,149.237 202.704,147.669C202.592,145.479 202.907,143.354 203.787,141.277C205.527,137.176 208.79,134.07 212.951,131.639C211.806,132.313 210.684,134.852 209.95,135.907C208.847,137.493 207.668,139.094 206.736,140.758C204.793,144.226 204.23,148.375 203.506,152.128ZM201.998,130.482C201.761,131.707 201.449,132.922 201.009,134.108C200.535,135.387 199.916,136.631 199.226,137.836C198.796,138.587 197.247,140.163 197.248,140.993C197.165,136.095 198.976,131.658 202.42,127.736C202.042,128.393 202.137,129.766 201.998,130.482ZM201.197,165.72C204.853,165.203 208.302,166.981 210.618,169.271C211.856,170.495 212.956,171.9 213.683,173.404C214.23,174.535 214.229,176.387 214.963,177.324C213.166,174.905 210.887,172.951 208.639,170.86C207.075,169.405 203.951,165.679 201.197,165.72ZM200.419,176.097C200.227,176.032 198.485,175.539 198.082,175.777C198.679,175.51 199.412,175.185 200.069,175.098C204.353,174.529 209.561,178.239 210.136,181.819C209.658,180.593 207.111,179.578 205.96,178.969C204.137,178.002 202.396,176.832 200.419,176.097ZM202.228,183.908C202.97,184.09 204.547,185.084 205.275,185.073C202.346,185.144 199.703,184.818 196.884,184.159C197.036,184.2 198.643,183.703 198.695,183.696C199.91,183.524 201.052,183.62 202.228,183.908ZM190.883,197.765C195.171,197.523 200.219,198.149 204.314,199.182C206.347,199.694 208.253,200.468 210.006,201.477C211.42,202.291 213.936,203.409 214.882,204.614C211.142,198.162 203.032,194.811 194.723,196.473C193.615,196.696 191.914,197.75 190.883,197.765ZM189.923,210.198C192.611,209.233 195.584,208.304 198.506,208.169C201.277,208.042 204.351,208.459 206.916,209.342C206.033,209.102 203.923,209.674 202.996,209.779C201.699,209.926 200.4,210.078 199.1,210.197C197.506,210.342 195.898,210.423 194.299,210.419C193.16,210.417 190.979,209.879 189.923,210.198ZM179.459,227.411C179.712,231.383 182.011,234.845 185.39,237.491C188.973,240.296 193.769,241.573 196.37,245.32C197.637,247.145 198.313,249.271 198.204,251.418C198.148,252.524 197.87,253.636 197.57,254.712C197.372,255.42 196.667,256.58 196.668,257.271C196.699,253.384 196.752,248.859 194.032,245.598C191.301,242.324 186.539,241.171 183.203,238.483C179.925,235.841 177.438,232.389 176.878,228.498C176.426,225.354 176.649,219.872 179.908,217.739C179.246,218.128 179.377,220.112 179.361,220.669C179.298,222.9 179.317,225.185 179.459,227.411ZM177.006,242.673C177.402,243.193 179.575,243.824 180.214,244.183C181.67,245 183.079,245.929 184.235,247.06C186.551,249.326 188.044,252.505 188.152,255.554C188.152,254.833 186.506,253.097 186.043,252.481C185.275,251.459 184.408,250.512 183.525,249.564C181.371,247.254 179.135,245 177.006,242.673ZM229.168,153.791C230.372,154.842 231.179,156.148 231.843,157.5C233.373,160.619 233.658,164.217 232.432,167.5C232.635,166.796 232.031,165.316 231.861,164.602C231.488,163.039 230.906,161.562 230.298,160.06C229.118,157.144 228.164,154.412 226.114,151.858C226.644,152.526 228.442,153.158 229.168,153.791ZM171.51,41.983C171.51,42.315 172.427,43.276 172.633,43.637C173.15,44.539 173.557,45.486 173.697,46.492C173.855,47.634 173.662,48.751 173.316,49.861C173.11,50.52 172.132,51.795 172.132,52.389C171.973,48.891 171.199,45.53 171.51,41.983ZM179.147,48.805C179.312,50.048 178.906,51.449 178.183,52.547C178.315,52.236 177.729,50.164 177.71,49.785C177.651,48.612 177.779,47.406 177.856,46.233C177.857,46.874 179.039,47.996 179.147,48.805ZM118.377,50.373C117.142,51.886 115.738,53.303 114.227,54.616C113.204,55.506 111.243,56.506 110.463,57.527C113.964,51.815 118.009,46.888 122.765,41.895C122.049,42.816 121.862,44.812 121.337,45.889C120.563,47.476 119.528,48.965 118.377,50.373ZM124.275,52.852C124.845,52.516 125.379,50.859 125.813,50.301C126.545,49.362 127.438,48.455 128.391,47.673C128.186,47.893 127.789,49.716 127.566,50.074C126.843,51.234 125.566,52.181 124.275,52.852Z" style="fill:white;fill-opacity:0.6;"/>
            </g>
        </g>
    </g>
</svg>
