<?xml version="1.0" encoding="UTF-8" standalone="no"?>
<!DOCTYPE svg PUBLIC "-//W3C//DTD SVG 1.1//EN" "http://www.w3.org/Graphics/SVG/1.1/DTD/svg11.dtd">
<svg width="100%" height="100%" viewBox="0 0 300 300" version="1.1" xmlns="http://www.w3.org/2000/svg" xmlns:xlink="http://www.w3.org/1999/xlink" xml:space="preserve" xmlns:serif="http://www.serif.com/" style="fill-rule:evenodd;clip-rule:evenodd;stroke-linejoin:round;stroke-miterlimit:1.41421;">
    <g transform="matrix(1,0,0,1,17,20)">
        <g id="hair">
            <g id="hair-06">
                <g id="Hair" transform="matrix(1,0,0,1,59,18)">
                    <path id="Mask-Hair" d="M133.506,81.335C132.73,81.052 131.955,80.749 131.18,80.426C130.794,80.32 130.4,80.233 130,80.166L130,79.917C117.224,74.234 104.878,63.071 96.11,47.885C93.175,42.801 90.831,37.595 89.066,32.397C80.431,42.941 67.745,53.602 52.342,62.495C42.778,68.017 33.147,72.291 24,75.266L24,137.246C29.602,148.318 38.773,157.277 50,162.611L50,181L46,181C38.327,181 30.935,182.2 24,184.423L24,230C24,244.106 13.569,255.776 0,257.716L0,197.608L0,74C0,33.131 33.131,0 74,0C114.869,0 148,33.131 148,74L148,197.608C135.525,187.237 119.491,181 102,181L98,181L98,162.611C115.531,154.283 128.048,137.115 129.791,116.867C135.569,116.002 140,111.019 140,105L140,92C140,87.357 137.364,83.331 133.506,81.335Z" style="fill:rgb(140,82,45);"/>
                </g>
                <path id="Shadow" d="M192.506,99.335C197.375,101.108 202.263,102.072 207,102.148L207,215.608C194.525,205.237 178.491,199 161,199L157,199L157,180.611C174.531,172.283 187.048,155.115 188.791,134.867C194.569,134.002 199,129.019 199,123L199,110C199,105.357 196.364,101.331 192.506,99.335ZM190.18,98.426C189.794,98.32 189.4,98.233 189,98.166L189,97.917C189.393,98.092 189.786,98.261 190.18,98.426ZM83,155.246C88.602,166.318 97.773,175.277 109,180.611L109,199L105,199C97.327,199 89.935,200.2 83,202.423L83,155.246Z" style="fill-opacity:0.239216;"/>
            </g>
        </g>
    </g>
</svg>
