<?xml version="1.0" encoding="UTF-8" standalone="no"?>
<!DOCTYPE svg PUBLIC "-//W3C//DTD SVG 1.1//EN" "http://www.w3.org/Graphics/SVG/1.1/DTD/svg11.dtd">
<svg width="100%" height="100%" viewBox="0 0 300 300" version="1.1" xmlns="http://www.w3.org/2000/svg" xmlns:xlink="http://www.w3.org/1999/xlink" xml:space="preserve" xmlns:serif="http://www.serif.com/" style="fill-rule:evenodd;clip-rule:evenodd;stroke-linejoin:round;stroke-miterlimit:1.41421;">
    <g transform="matrix(1,0,0,1,17,20)">
        <g id="hair">
            <g id="hair-09">
                <path id="Shadow" d="M69.033,76.213C81.971,43.129 95.646,26.587 110.058,26.587C110.597,26.587 139.311,26.349 158.113,26.227C178.767,35.585 193,55.304 193,78.115L193,93L110.058,93L107.253,69.82L103.374,93L69,93L69,78.115C69,77.478 69.011,76.844 69.033,76.213L69.033,76.213Z" style="fill-opacity:0.156863;"/>
                <g id="Hair" transform="matrix(1,0,0,1,40,19)">
                    <path id="Combined-Shape" d="M148.859,69L72.058,69L69.253,47.556L65.374,69L37.141,69C37.047,70.321 37,71.655 37,73L37,111C37,133.339 50.08,152.623 69,161.611L69,170.317C50.854,171.816 33.279,174.335 23,177C13.048,163.439 0.116,150.8 0,126C-0.085,107.015 30.319,28.795 41,16C48.923,6.509 68.695,0.551 93,1C117.305,1.449 137.862,4.812 146,15C158.324,30.428 186.085,107.015 186,126C185.885,150.8 172.953,163.439 163,177C152.721,174.335 135.146,171.816 117,170.317L117,161.611C135.92,152.623 149,133.339 149,111L149,73C149,71.655 148.953,70.321 148.859,69Z" style="fill:rgb(140,82,45);"/>
                </g>
            </g>
        </g>
    </g>
</svg>
