<?xml version="1.0" encoding="UTF-8" standalone="no"?>
<!DOCTYPE svg PUBLIC "-//W3C//DTD SVG 1.1//EN" "http://www.w3.org/Graphics/SVG/1.1/DTD/svg11.dtd">
<svg width="100%" height="100%" viewBox="0 0 300 300" version="1.1" xmlns="http://www.w3.org/2000/svg" xmlns:xlink="http://www.w3.org/1999/xlink" xml:space="preserve" xmlns:serif="http://www.serif.com/" style="fill-rule:evenodd;clip-rule:evenodd;stroke-linejoin:round;stroke-miterlimit:1.41421;">
    <g transform="matrix(1,0,0,1,17,20)">
        <g id="hair">
            <g id="hair-01">
                <g id="Hair" transform="matrix(1,0,0,1,16,13)">
                    <path id="path-1" d="M217,267L217,258C217,218.235 184.765,186 145,186L141,186L141,167.611C158.531,159.283 171.048,142.115 172.791,121.867C178.569,121.002 183,116.019 183,110L183,97C183,96.432 182.96,95.872 182.884,95.325C161.364,83.737 142.89,67.144 130.846,48.302C112.764,73.924 76.53,78.535 51.224,94.68C51.077,95.431 51,96.206 51,97L51,110C51,116.019 55.431,121.002 61.209,121.867C62.952,142.115 75.469,159.283 93,167.611L93,186L89,186C49.235,186 17,218.235 17,258L17,267L16.005,267C-22.434,245.051 20.857,209.889 21.174,198C21.54,186.256 -0.277,183.561 0.003,155C0.944,125.972 31.372,128.588 31.203,109C31.372,89.999 19.814,82.161 31.203,46C42.84,9.539 72.917,0.768 116.003,0.016L116.003,0C116.17,0.002 116.336,0.005 116.503,0.008C116.669,0.005 116.836,0.002 117.003,0L117.003,0.016C160.089,0.768 190.166,9.539 201.803,46C213.191,82.161 201.634,89.999 201.803,109C201.634,128.588 232.061,125.972 233.003,155C233.283,183.561 211.466,186.256 211.831,198C212.148,209.889 255.439,245.051 217,267L217,267Z" style="fill:rgb(140,82,45);"/>
                </g>
                <g id="Shadow" transform="matrix(1,0,0,1,16,13)">
                    <path id="Shadow-Mask" d="M30.099,115.057C27.725,118.083 24.53,122.528 24.362,122.194C26.235,119.811 27.375,117.012 27.341,113.436C27.518,95.335 15.437,87.867 27.341,53.419C28.01,51.509 29.107,49.704 30.586,48.005C20.243,82.459 31.369,90.356 31.203,109C31.222,111.295 30.822,113.285 30.099,115.057ZM202.419,48.005C203.898,49.704 204.996,51.509 205.664,53.419C215.822,82.813 208.516,92.563 206.264,106.036C205.964,106.841 206.195,107.79 205.88,108.603C175.207,98.145 147.59,78.56 131.495,55.612C108.711,85.036 58.354,85.373 33.674,110.936C34.061,110.392 34.428,109.885 34.758,109.446C57.294,79.527 108.247,80.324 130.846,48.302C146.244,72.39 172.664,92.95 202.009,103.927C202.31,103.073 202.09,102.077 202.376,101.233C204.484,87.4 211.215,77.307 202.419,48.005Z" style="fill-opacity:0.156863;"/>
                </g>
                <path id="Light" d="M50.758,122.446C73.294,92.527 124.247,93.324 146.846,61.302C162.244,85.39 188.664,105.95 218.009,116.927C218.31,116.073 218.09,115.077 218.376,114.233C220.531,100.089 227.52,89.855 217.803,59C206.166,22.539 176.089,13.768 133.003,13.016C132.336,13.005 132.17,13.002 132.003,13C88.917,13.768 58.84,22.539 47.203,59C35.814,95.161 47.372,102.999 47.203,122C47.235,125.753 46.144,128.691 44.353,131.193C44.536,131.595 48.506,125.437 50.758,122.446Z" style="fill:white;fill-opacity:0.0980392;"/>
            </g>
        </g>
    </g>
</svg>
