<?xml version="1.0" encoding="UTF-8" standalone="no"?>
<!DOCTYPE svg PUBLIC "-//W3C//DTD SVG 1.1//EN" "http://www.w3.org/Graphics/SVG/1.1/DTD/svg11.dtd">
<svg width="100%" height="100%" viewBox="0 0 300 300" version="1.1" xmlns="http://www.w3.org/2000/svg" xmlns:xlink="http://www.w3.org/1999/xlink" xml:space="preserve" xmlns:serif="http://www.serif.com/" style="fill-rule:evenodd;clip-rule:evenodd;stroke-linejoin:round;stroke-miterlimit:1.41421;">
    <g transform="matrix(1,0,0,1,17,20)">
        <g id="hair">
            <g id="hair-08">
                <g id="Behind">
                    <path id="Combined-Shape" d="M59,102.34C57.324,102.198 55.758,101.883 54.853,101.273C51.695,99.143 50,95.051 50,90.5C50,83.596 54.477,78 60,78C66.863,43.828 96.915,18 133,18C170.556,18 201.577,45.976 206.36,82.226C206.624,84.224 206.828,91.354 206.972,103.615C206.991,103.721 207,103.808 207,103.875C207,115.903 207,133.944 207,158C207,175.673 192.673,190 175,190L157,190L157,180.611C174.531,172.283 187.048,155.115 188.791,134.867C194.569,134.002 199,129.019 199,123L199,110C199,108.484 198.719,106.513 198.206,104.403C180.318,99.019 162.7,82.693 152.444,59.658C152.035,58.739 151.641,57.818 151.264,56.896C146.678,69.132 138.047,78.012 125.372,83.535C130.245,77.588 134.394,70.66 137.821,62.752C129.844,71.258 119.473,79.491 107.342,86.495C94.971,93.638 82.409,98.555 70.869,101.174C68.49,103.367 67,106.509 67,110L67,123C67,129.019 71.431,134.002 77.209,134.867C78.952,155.115 91.469,172.283 109,180.611L109,190L67,190C62.582,190 59,186.418 59,182L59,102.34Z" style="fill:rgb(140,82,45);"/>
                </g>
                <g id="Combined-Shape1" serif:id="Combined-Shape" transform="matrix(1,0,0,1,50,18)">
                    <path d="M11.899,84.775C11.284,84.923 10.649,85 10,85C9.984,85 9.968,85 9.953,85C9.634,85.033 9.316,85.064 9,85.093L9,84.938C3.947,84.311 0,78.982 0,72.5C0,65.596 4.477,60 10,60C10.107,60 10.215,60.002 10.321,60.006C16.863,25.828 46.915,0 83,0C123.869,0 157,33.131 157,74L157,88.151C136.296,86.194 114.382,68.471 102.444,41.658C102.035,40.739 101.641,39.818 101.264,38.896C96.678,51.132 88.047,60.012 75.372,65.535C80.245,59.588 84.394,52.66 87.821,44.752C79.844,53.258 69.473,61.491 57.342,68.495C41.679,77.538 25.711,83.015 11.899,84.775Z" style="fill:rgb(156,91,51);fill-opacity:0.0690182;"/>
                </g>
            </g>
        </g>
    </g>
</svg>
