<?xml version="1.0" encoding="UTF-8" standalone="no"?>
<!DOCTYPE svg PUBLIC "-//W3C//DTD SVG 1.1//EN" "http://www.w3.org/Graphics/SVG/1.1/DTD/svg11.dtd">
<svg width="100%" height="100%" viewBox="0 0 300 300" version="1.1" xmlns="http://www.w3.org/2000/svg" xmlns:xlink="http://www.w3.org/1999/xlink" xml:space="preserve" xmlns:serif="http://www.serif.com/" style="fill-rule:evenodd;clip-rule:evenodd;stroke-linejoin:round;stroke-miterlimit:1.41421;">
    <g transform="matrix(1,0,0,1,93.652,95.6732)">
        <g id="eyebrow">
            <g id="eyebrow-02">
                <path id="Eyebrow" d="M15.611,15.185C19.852,9.416 22.489,9.701 28.924,14.556C29.106,14.694 29.221,14.781 29.594,15.064C34.422,18.726 36.708,20 40,20C41.105,20 42,19.105 42,18C42,16.895 41.105,16 40,16C37.934,16 36.099,14.978 32.011,11.877C31.636,11.592 31.519,11.504 31.333,11.364C27.574,8.527 25.374,7.287 22.638,6.992C18.954,6.594 15.58,8.474 12.389,12.815C11.734,13.705 11.925,14.957 12.815,15.611C13.705,16.266 14.957,16.075 15.611,15.185Z" style="fill-opacity:0.596078;fill-rule:nonzero;"/>
                <g id="Eyebrow1" serif:id="Eyebrow" transform="matrix(-1,0,0,1,170,0)">
                    <path d="M73.611,15.185C77.852,9.416 80.489,9.701 86.924,14.556C87.106,14.694 87.221,14.781 87.594,15.064C92.422,18.726 94.708,20 98,20C99.105,20 100,19.105 100,18C100,16.895 99.105,16 98,16C95.934,16 94.099,14.978 90.011,11.877C89.636,11.592 89.519,11.504 89.333,11.364C85.574,8.527 83.374,7.287 80.638,6.992C76.954,6.594 73.58,8.474 70.389,12.815C69.734,13.705 69.925,14.957 70.815,15.611C71.705,16.266 72.957,16.075 73.611,15.185Z" style="fill-opacity:0.596078;fill-rule:nonzero;"/>
                </g>
            </g>
        </g>
    </g>
</svg>
