<?xml version="1.0" encoding="UTF-8" standalone="no"?>
<!DOCTYPE svg PUBLIC "-//W3C//DTD SVG 1.1//EN" "http://www.w3.org/Graphics/SVG/1.1/DTD/svg11.dtd">
<svg width="100%" height="100%" viewBox="0 0 300 300" version="1.1" xmlns="http://www.w3.org/2000/svg" xmlns:xlink="http://www.w3.org/1999/xlink" xml:space="preserve" xmlns:serif="http://www.serif.com/" style="fill-rule:evenodd;clip-rule:evenodd;stroke-linejoin:round;stroke-miterlimit:1.41421;">
    <g transform="matrix(1,0,0,1,17.5663,20)">
        <g id="body">
            <path id="body-03" d="M228.099,226.892C230.162,246.048 231.243,264.326 231.81,280L33.058,280C33.513,267.386 34.303,253.086 35.669,237.998C34.779,238.888 34.222,239.222 34,239C33,238 38,221 37,222C36,223 33,230 34,223C34.621,218.654 36.976,209.393 41.067,195.217C41.634,191.814 42.238,188.412 42.882,185.022C42.876,185.014 42.87,185.007 42.864,185C42,184 39,189 38,189C37.403,189 40.812,179.654 48.226,160.963C54.932,134.967 64.486,110.996 78.097,93.514C76.433,93.855 74.908,94.366 75,94C75.182,93.273 77,93 80,90C81.203,88.797 82.566,87.755 83.704,86.938C84.31,86.292 84.922,85.658 85.542,85.036C84.138,85.205 81.116,85.884 82,85C82.939,84.061 85.642,84.004 89.281,81.515C101.058,71.127 115.273,65 132.434,65C167.964,65 190.87,91.265 205.638,127.236C215.38,147.745 219.933,158 219.299,158C218.299,158 216.163,154 215.299,155C215.227,155.084 215.179,155.217 215.154,155.401C216.11,158.851 217.014,162.343 217.868,165.867C217.943,166.086 218.02,166.308 218.098,166.533C222.899,182.844 225.633,193.333 226.299,198C227.254,204.683 225.474,200.428 224.441,199.159C224.865,201.836 225.266,204.512 225.646,207.183C227.366,215.542 229.932,227.368 229.299,228C229.158,228.142 228.758,227.772 228.099,226.892Z" style="fill:rgb(55,118,253);"/>
        </g>
    </g>
</svg>
