<?xml version="1.0" encoding="UTF-8" standalone="no"?>
<!DOCTYPE svg PUBLIC "-//W3C//DTD SVG 1.1//EN" "http://www.w3.org/Graphics/SVG/1.1/DTD/svg11.dtd">
<svg width="100%" height="100%" viewBox="0 0 300 300" version="1.1" xmlns="http://www.w3.org/2000/svg" xmlns:xlink="http://www.w3.org/1999/xlink" xml:space="preserve" xmlns:serif="http://www.serif.com/" style="fill-rule:evenodd;clip-rule:evenodd;stroke-linejoin:round;stroke-miterlimit:1.41421;">
    <g transform="matrix(1,0,0,1,19.7571,20)">
        <g id="body">
            <path id="body-02" d="M146.489,63.216C148.33,62.544 150.241,62.108 152.147,61.994C162.772,61.356 166.178,63.448 177.613,62.906C178.654,63.78 177.02,67.126 172.265,71.266C176.423,70.45 180.854,70.437 184.826,71.619C196.904,75.211 199.846,78.917 212.785,82.944C213.487,84.16 211.161,86.644 205.932,89.038C213.586,94.412 223.999,100.587 224.606,102.254C225.017,103.384 220.893,106.358 214.75,108.416C215.095,108.534 215.442,108.656 215.789,108.783C226.383,112.639 232.927,120.785 232.334,123.007C232.034,124.135 229.148,125.178 224.994,125.429C225.673,126.443 226.28,127.644 226.79,129.054C231.17,141.167 236.708,144.631 235.334,146.544C234.496,147.711 230.521,147.804 225.84,146.266C227.095,147.824 228.143,149.726 228.858,152.011C232.621,164.036 237.214,172.197 235.22,174.144C234.151,175.188 230.429,174.767 226.056,172.78C227.704,174.825 229.291,177.132 230.744,179.649C237.647,191.605 236.355,204.987 233.621,206.853C232.181,207.836 228.041,206.638 223.435,203.539C223.602,204.252 223.751,204.981 223.882,205.725C225.608,215.514 221.439,224.25 219.129,224.839C218.192,225.079 216.489,224.046 214.679,222.081C214.799,223.276 214.863,224.535 214.863,225.837C214.863,233.479 211.397,239.536 209.932,239.674C209.532,239.712 208.985,239.269 208.399,238.45C208.32,239.08 208.224,239.72 208.109,240.369C207.086,246.174 204.195,250.692 202.253,252.4C200.317,261.527 198.214,270.787 195.957,280L68.043,280C65.829,270.96 63.762,261.876 61.856,252.916C60.218,251.05 58,245.951 58,239.837C58,239.151 58.018,238.477 58.052,237.818C56.419,240.656 54.652,242.329 53.857,242.11C52.438,241.72 50.076,235.153 51.403,227.627C51.531,226.902 51.677,226.194 51.838,225.507C49.844,227.842 47.904,229.101 46.879,228.839C44.569,228.25 40.4,219.514 42.126,209.725C42.301,208.729 42.51,207.759 42.748,206.821C39.007,208.952 35.845,209.686 34.625,208.853C31.89,206.987 30.598,193.605 37.501,181.649C37.751,181.216 38.005,180.789 38.263,180.368C33.519,182.705 29.367,183.257 28.228,182.144C26.398,180.358 30.114,173.34 33.646,162.906C30.008,163.742 27.141,163.515 26.444,162.544C25.335,161 28.727,158.447 32.38,151.154C28.817,152.092 26.138,152.032 25.519,151.146C24.203,149.261 27.565,139.367 36.201,132.121C36.749,131.661 37.299,131.218 37.85,130.791C32.272,129.735 28.438,127.784 28.629,126.698C28.899,125.171 35.946,118.953 42.127,112.989C35.662,111.535 32.465,109.275 32.983,107.854C43.066,102.652 46.287,98.889 53.684,94.495C48.654,93.265 46.182,91.46 46.601,90.308C56.775,85.059 58.679,81.545 68.2,76.784C71.344,75.212 75.05,74.574 78.642,74.649C74.686,70.663 73.46,67.58 74.424,66.905C83.937,68.193 86.935,66.695 95.764,68.004C96.074,68.05 96.383,68.106 96.691,68.172C92.671,64.212 90.357,59.909 91.297,59.366C98.14,60.91 100.418,60.01 106.761,61.526C107.293,61.653 107.818,61.822 108.333,62.028C105.477,56.917 104.552,51.491 105.625,51.302C110.895,54.687 113.081,54.628 117.942,57.837C118.29,58.067 118.625,58.322 118.946,58.597C122.454,52.192 125.265,50.193 129.293,42.384C130.874,41.809 133.837,49.843 133.92,58.898C133.921,59.039 133.921,59.182 133.919,59.326C138.524,56.924 141.937,56.047 148.123,52.074C149.394,52.299 148.834,57.325 146.489,63.216L146.489,63.216Z" style="fill:rgb(55,118,253);"/>
        </g>
    </g>
</svg>
