<?xml version="1.0" encoding="UTF-8" standalone="no"?>
<!DOCTYPE svg PUBLIC "-//W3C//DTD SVG 1.1//EN" "http://www.w3.org/Graphics/SVG/1.1/DTD/svg11.dtd">
<svg width="100%" height="100%" viewBox="0 0 300 300" version="1.1" xmlns="http://www.w3.org/2000/svg" xmlns:xlink="http://www.w3.org/1999/xlink" xml:space="preserve" xmlns:serif="http://www.serif.com/" style="fill-rule:evenodd;clip-rule:evenodd;stroke-linejoin:round;stroke-miterlimit:1.41421;">
    <g transform="matrix(1,0,0,1,94.227,96.2035)">
        <g id="eyebrow">
            <g id="eyebrow-07">
                <g id="Kahlo" transform="matrix(0.999391,-0.0348995,0.0348995,0.999391,-0.387205,2.81702)">
                    <path d="M57.001,12C57,11.996 57,11.996 57.001,12M59.46,14.892C59.216,15.382 58.773,15.716 58.075,15.655C55.845,15.457 57.592,12 58.763,12C58.989,12 59.185,12.143 59.338,12.372C60.628,12.207 61.919,11.617 63.241,11.291C66.928,10.38 70.689,9.987 74.428,9.389C81.09,8.324 89.747,5.392 96.281,8.15C97.724,8.76 105.242,14.894 103.823,17.572C103.563,18.062 102.91,18.144 102.525,17.751C101.998,17.215 100.988,16.584 100.86,16.508C95.856,13.497 89.636,14.19 84.172,15.015C78.015,15.946 71.949,18.077 65.703,17.051C64.113,16.789 61.312,16.059 59.46,14.892Z" style="fill-opacity:0.596078;"/>
                </g>
                <g id="Frida" transform="matrix(0.999391,0.0348995,-0.0348995,0.999391,0.45595,-1.12134)">
                    <path d="M54.999,12C55,11.996 55,11.996 54.999,12M15.719,8.15C22.253,5.392 30.91,8.324 37.572,9.389C41.311,9.987 45.072,10.38 48.759,11.291C50.242,11.657 51.685,12.354 53.131,12.413C53.833,12.441 54.267,13.276 53.815,13.824C52.332,15.618 48.327,16.717 46.297,17.051C40.051,18.077 33.985,15.946 27.828,15.015C22.364,14.19 16.144,13.497 11.14,16.508C11.012,16.584 10.002,17.215 9.475,17.751C9.09,18.144 8.437,18.062 8.177,17.572C6.758,14.894 14.276,8.76 15.719,8.15ZM54.934,11C56.105,11 57.852,15.402 55.622,15.653C53.392,15.904 53.763,11 54.934,11Z" style="fill-opacity:0.596078;"/>
                </g>
            </g>
        </g>
    </g>
</svg>
