<?xml version="1.0" encoding="UTF-8" standalone="no"?>
<!DOCTYPE svg PUBLIC "-//W3C//DTD SVG 1.1//EN" "http://www.w3.org/Graphics/SVG/1.1/DTD/svg11.dtd">
<svg width="100%" height="100%" viewBox="0 0 300 300" version="1.1" xmlns="http://www.w3.org/2000/svg" xmlns:xlink="http://www.w3.org/1999/xlink" xml:space="preserve" xmlns:serif="http://www.serif.com/" style="fill-rule:evenodd;clip-rule:evenodd;stroke-linejoin:round;stroke-miterlimit:1.41421;">
    <g transform="matrix(1,0,0,1,94.2946,96.7571)">
        <g id="eyebrow">
            <g id="eyebrow-01">
                <g id="Eyebrows-The-Web" transform="matrix(0.956305,0.292372,-0.292372,0.956305,4.77334,-7.68418)">
                    <path d="M44.857,12.228C44.858,12.219 44.858,12.219 44.857,12.228M17.586,7.892C15.244,8.33 13.087,9.788 12.152,12.099C11.801,12.967 11.392,14.924 11.708,15.807C11.828,16.143 12.033,16.101 12.956,16.043C14.644,15.937 16.933,13.662 18.748,13.256C21.275,12.69 23.983,13.115 26.496,13.688C30.811,14.673 36.485,17.788 40.946,16.17C41.278,16.05 45.621,12.923 44.369,12.277C43.924,11.907 41.137,12.085 40.622,11.999C38.228,11.597 35.73,10.935 33.373,10.327C28.233,9 22.967,6.881 17.586,7.892" style="fill-opacity:0.596078;"/>
                </g>
                <g id="Eyebrows-The-Web1" serif:id="Eyebrows-The-Web" transform="matrix(-0.956305,0.292372,0.292372,0.956305,160.969,-24.057)">
                    <path d="M100.918,12.209C100.92,12.2 100.92,12.2 100.918,12.209M73.586,7.892C71.244,8.33 69.087,9.788 68.152,12.099C67.801,12.967 67.392,14.924 67.708,15.807C67.828,16.143 68.033,16.101 68.956,16.043C70.644,15.937 72.933,13.662 74.748,13.256C77.275,12.69 79.983,13.115 82.496,13.688C86.811,14.673 92.485,17.788 96.946,16.17C97.278,16.05 101.621,12.923 100.369,12.277C99.924,11.907 97.137,12.085 96.622,11.999C94.228,11.597 91.73,10.935 89.373,10.327C84.233,9 78.967,6.881 73.586,7.892" style="fill-opacity:0.596078;"/>
                </g>
            </g>
        </g>
    </g>
</svg>
