<?xml version="1.0" encoding="UTF-8" standalone="no"?>
<!DOCTYPE svg PUBLIC "-//W3C//DTD SVG 1.1//EN" "http://www.w3.org/Graphics/SVG/1.1/DTD/svg11.dtd">
<svg width="100%" height="100%" viewBox="0 0 300 300" version="1.1" xmlns="http://www.w3.org/2000/svg" xmlns:xlink="http://www.w3.org/1999/xlink" xml:space="preserve" xmlns:serif="http://www.serif.com/" style="fill-rule:evenodd;clip-rule:evenodd;stroke-linejoin:round;stroke-miterlimit:1.41421;">
    <g transform="matrix(1,0,0,1,94.3525,94.9212)">
        <g id="eyebrow">
            <g id="eyebrow-03">
                <g id="Fill-10" transform="matrix(0.999391,0.0348995,-0.0348995,0.999391,0.487895,-0.951512)">
                    <path d="M38.569,10.702C33.587,11.238 28.655,11.134 23.656,11.101C19.823,11.076 15.92,10.689 12.325,12.509C11.636,12.857 7.877,14.945 8.003,16.011C8.104,16.863 12.013,18.064 12.717,18.284C16.428,19.445 19.924,18.928 23.687,18.57C28.302,18.132 32.914,18.175 37.532,17.874C40.642,17.672 45.422,16.977 46.829,13.148C47.253,11.995 46.815,9.734 46.307,8.506C46.105,8.018 45.563,7.85 45.169,8.149C43.756,9.222 40.985,10.443 38.569,10.702" style="fill-opacity:0.596078;"/>
                </g>
                <g id="Fill-101" serif:id="Fill-10" transform="matrix(-0.999391,0.0348995,0.0348995,0.999391,168.477,-2.94078)">
                    <path d="M95.569,10.702C90.587,11.238 85.655,11.134 80.656,11.101C76.823,11.076 72.92,10.689 69.325,12.509C68.636,12.857 64.877,14.945 65.003,16.011C65.104,16.863 69.013,18.064 69.717,18.284C73.428,19.445 76.924,18.928 80.687,18.57C85.302,18.132 89.914,18.175 94.532,17.874C97.642,17.672 102.422,16.977 103.829,13.148C104.253,11.995 103.815,9.734 103.307,8.506C103.105,8.018 102.563,7.85 102.169,8.149C100.756,9.222 97.985,10.443 95.569,10.702" style="fill-opacity:0.596078;"/>
                </g>
            </g>
        </g>
    </g>
</svg>
