<?xml version="1.0" encoding="UTF-8" standalone="no"?>
<!DOCTYPE svg PUBLIC "-//W3C//DTD SVG 1.1//EN" "http://www.w3.org/Graphics/SVG/1.1/DTD/svg11.dtd">
<svg width="100%" height="100%" viewBox="0 0 300 300" version="1.1" xmlns="http://www.w3.org/2000/svg" xmlns:xlink="http://www.w3.org/1999/xlink" xml:space="preserve" xmlns:serif="http://www.serif.com/" style="fill-rule:evenodd;clip-rule:evenodd;stroke-linejoin:round;stroke-miterlimit:1.41421;">
    <g transform="matrix(1,0,0,1,93.196,106.805)">
        <g id="eye">
            <g id="eye-07">
                <path id="Eye" d="M27.241,20.346C27.16,20.344 27.079,20.344 26.998,20.344C23.257,20.344 19.874,21.579 17.438,23.572C16.547,24.3 15.62,23.558 16.16,22.447C18.007,18.649 22.164,16 26.998,16C30.506,16 33.899,17.317 36.025,19.551C36.765,20.22 37.337,21.072 37.671,22.035C37.722,22.157 37.77,22.281 37.815,22.407C37.91,22.671 37.947,22.923 37.94,23.145C37.979,23.424 38,23.71 38,24C38,27.314 35.314,30 32,30C28.686,30 26,27.314 26,24C26,22.625 26.463,21.357 27.241,20.346Z" style="fill-opacity:0.596078;"/>
                <path id="Eye1" serif:id="Eye" d="M85.241,20.346C85.16,20.344 85.079,20.344 84.998,20.344C81.257,20.344 77.874,21.579 75.438,23.572C74.547,24.3 73.62,23.558 74.16,22.447C76.007,18.649 80.164,16 84.998,16C88.506,16 91.899,17.317 94.025,19.551C94.765,20.22 95.337,21.072 95.671,22.035C95.722,22.157 95.77,22.281 95.815,22.407C95.91,22.671 95.947,22.923 95.94,23.145C95.979,23.424 96,23.71 96,24C96,27.314 93.314,30 90,30C86.686,30 84,27.314 84,24C84,22.625 84.463,21.357 85.241,20.346Z" style="fill-opacity:0.596078;"/>
            </g>
        </g>
    </g>
</svg>
