<?xml version="1.0" encoding="UTF-8" standalone="no"?>
<!DOCTYPE svg PUBLIC "-//W3C//DTD SVG 1.1//EN" "http://www.w3.org/Graphics/SVG/1.1/DTD/svg11.dtd">
<svg width="100%" height="100%" viewBox="0 0 300 300" version="1.1" xmlns="http://www.w3.org/2000/svg" xmlns:xlink="http://www.w3.org/1999/xlink" xml:space="preserve" xmlns:serif="http://www.serif.com/" style="fill-rule:evenodd;clip-rule:evenodd;stroke-linejoin:round;stroke-miterlimit:1.41421;">
    <g transform="matrix(1,0,0,1,93.7416,108.863)">
        <g id="eye">
            <g id="eye-08">
                <g id="Eye" transform="matrix(1,0,0,1,16,13)">
                    <path d="M9.871,14.335C3.129,15.158 0,17.419 0,11.562C0,4.624 6.268,0 14,0C21.732,0 28,4.624 28,11.562C28,17.419 24.871,15.158 18.129,14.335C19.285,13.249 20,11.707 20,10C20,6.689 17.311,4 14,4C10.689,4 8,6.689 8,10C8,11.707 8.715,13.249 9.871,14.335Z" style="fill:white;"/>
                    <path d="M9.871,14.335C8.715,13.249 8,11.707 8,10C8,6.689 10.689,4 14,4C17.311,4 20,6.689 20,10C20,11.707 19.285,13.249 18.129,14.335C16.867,14.156 15.497,14.048 14,14.048C12.503,14.048 11.133,14.156 9.871,14.335Z" style="fill-opacity:0.698039;"/>
                </g>
                <g id="Eye1" serif:id="Eye" transform="matrix(1,0,0,1,68,13)">
                    <path d="M9.871,14.335C3.129,15.158 0,17.419 0,11.562C0,4.624 6.268,0 14,0C21.732,0 28,4.624 28,11.562C28,17.419 24.871,15.158 18.129,14.335C19.285,13.249 20,11.707 20,10C20,6.689 17.311,4 14,4C10.689,4 8,6.689 8,10C8,11.707 8.715,13.249 9.871,14.335Z" style="fill:white;"/>
                    <path d="M9.871,14.335C8.715,13.249 8,11.707 8,10C8,6.689 10.689,4 14,4C17.311,4 20,6.689 20,10C20,11.707 19.285,13.249 18.129,14.335C16.867,14.156 15.497,14.048 14,14.048C12.503,14.048 11.133,14.156 9.871,14.335Z" style="fill-opacity:0.698039;"/>
                </g>
            </g>
        </g>
    </g>
</svg>
