<?xml version="1.0" encoding="UTF-8" standalone="no"?>
<!DOCTYPE svg PUBLIC "-//W3C//DTD SVG 1.1//EN" "http://www.w3.org/Graphics/SVG/1.1/DTD/svg11.dtd">
<svg width="100%" height="100%" viewBox="0 0 300 300" version="1.1" xmlns="http://www.w3.org/2000/svg" xmlns:xlink="http://www.w3.org/1999/xlink" xml:space="preserve" xmlns:serif="http://www.serif.com/" style="fill-rule:evenodd;clip-rule:evenodd;stroke-linejoin:round;stroke-miterlimit:1.41421;">
    <g transform="matrix(1,0,0,1,18.1413,190.024)">
        <g id="clothing">
            <g id="clothing-04">
                <path id="Hoodie" d="M108,13.071L108,32C108,45.255 118.745,56 132,56C145.255,56 156,45.255 156,32L156,13.071C173.919,15.076 187.72,20.552 187.996,34.645C213.854,45.568 232,71.165 232,100.999L232,110L32,110L32,100.999C32,71.165 50.146,45.568 76.004,34.645C76.28,20.552 90.081,15.076 108,13.071Z" style="fill:rgb(183,193,219);"/>
                <path id="Straps" d="M102,61.739L102,110L95,110L95,58.15C97.204,59.46 99.547,60.661 102,61.739ZM169,58.15L169,98.5C169,100.433 167.433,102 165.5,102C163.567,102 162,100.433 162,98.5L162,61.739C164.453,60.661 166.796,59.46 169,58.15Z" style="fill:rgb(244,244,244);"/>
                <path id="Shadow" d="M131.99,68C98.531,67.997 65.5,52.018 65.5,32.308C65.5,21.243 75.909,15.571 90.96,12.724C81.875,16.074 76,21.706 76,31.077C76,51.467 103.815,67.996 131.99,68L131.99,68ZM173.04,12.724C188.091,15.571 198.5,21.243 198.5,32.308C198.5,52.018 165.469,67.997 132.01,68C160.185,67.996 188,51.467 188,31.077C188,21.706 182.125,16.074 173.04,12.724Z" style="fill-opacity:0.156863;"/>
            </g>
        </g>
    </g>
</svg>
