<?xml version="1.0" encoding="UTF-8" standalone="no"?>
<!DOCTYPE svg PUBLIC "-//W3C//DTD SVG 1.1//EN" "http://www.w3.org/Graphics/SVG/1.1/DTD/svg11.dtd">
<svg width="100%" height="100%" viewBox="0 0 300 300" version="1.1" xmlns="http://www.w3.org/2000/svg" xmlns:xlink="http://www.w3.org/1999/xlink" xml:space="preserve" xmlns:serif="http://www.serif.com/" style="fill-rule:evenodd;clip-rule:evenodd;stroke-linejoin:round;stroke-miterlimit:1.41421;">
    <g transform="matrix(1,0,0,1,17.9445,190.059)">
        <g id="clothing">
            <g id="clothing-03">
                <g id="Shirt" transform="matrix(1,0,0,1,32,29)">
                    <path id="Clothes" d="M133.96,0.295C170.936,3.325 200,34.294 200,72.052L200,81L0,81L0,72.052C0,33.953 29.592,2.765 67.045,0.22C67.015,0.593 67,0.969 67,1.348C67,13.211 81.998,22.828 100.5,22.828C119.002,22.828 134,13.211 134,1.348C134,0.995 133.987,0.644 133.96,0.295Z" style="fill:rgb(183,193,219);"/>
                    <g transform="matrix(1,0,0,1,60,-25)">
                        <path d="M1.01,25.901C3.016,25.579 5.019,25.357 7.045,25.22C7.015,25.593 7,25.969 7,26.348C7,38.211 21.998,47.828 40.5,47.828C59.002,47.828 74,38.211 74,26.348C74,25.995 73.987,25.644 73.96,25.295C76.004,25.462 78.024,25.715 80.002,26.062L80.135,27.848C80.135,42.702 62.375,54.761 40.5,54.761C18.625,54.761 0.865,42.702 0.865,27.848L1.01,25.901Z" style="fill-opacity:0.0941176;"/>
                    </g>
                </g>
                <g id="Blazer" transform="matrix(1,0,0,1,32,28)">
                    <path id="Saco" d="M68.785,1.122C65.74,12.731 64,26.173 64,40.5C64,55.709 65.961,69.92 69.362,82L0,82L0,73.052C0,34.365 30.512,2.804 68.785,1.122ZM131.638,82C135.039,69.92 137,55.709 137,40.5C137,26.194 135.265,12.771 132.229,1.174C170.025,3.363 200,34.707 200,73.052L200,82L131.638,82Z" style="fill:rgb(58,76,90);"/>
                    <path id="Pocket-hanky" d="M149,58L158.556,50.833C159.999,49.751 161.988,49.768 163.412,50.876L170,56L149,58Z" style="fill:rgb(230,230,230);"/>
                    <path id="Wing" d="M69,0C65,19.333 66.667,46.667 74,82L58,82L44,46L50,37L44,31L63,1C65.028,0.369 67.028,0.036 69,0Z" style="fill:rgb(47,67,81);"/>
                    <g id="Wing1" serif:id="Wing" transform="matrix(-1,0,0,1,282,0)">
                        <path d="M151,0C147,19.333 148.667,46.667 156,82L140,82L126,46L132,37L126,31L145,1C147.028,0.369 149.028,0.036 151,0Z" style="fill:rgb(47,67,81);"/>
                    </g>
                </g>
            </g>
        </g>
    </g>
</svg>
