<?xml version="1.0" encoding="UTF-8" standalone="no"?>
<!DOCTYPE svg PUBLIC "-//W3C//DTD SVG 1.1//EN" "http://www.w3.org/Graphics/SVG/1.1/DTD/svg11.dtd">
<svg width="100%" height="100%" viewBox="0 0 300 300" version="1.1" xmlns="http://www.w3.org/2000/svg" xmlns:xlink="http://www.w3.org/1999/xlink" xml:space="preserve" xmlns:serif="http://www.serif.com/" style="fill-rule:evenodd;clip-rule:evenodd;stroke-linejoin:round;stroke-miterlimit:1.41421;">
    <g transform="matrix(1,0,0,1,17.3454,20.1876)">
        <g id="hair">
            <path id="hair-05" d="M94.252,52.022C94.375,51.968 94.07,51.947 93.336,51.96C94.228,51.958 94.533,51.979 94.252,52.022M86.117,36.302C86.115,36.282 86.134,36.453 86.117,36.302M193.765,70.766C193.501,67.449 193.033,64.152 192.247,60.911C191.622,58.335 190.769,55.878 189.76,53.42C189.151,51.935 187.728,49.896 187.56,48.294C187.395,46.717 188.627,44.969 188.889,43.132C189.144,41.345 189.101,39.465 188.734,37.694C187.901,33.671 185.14,29.93 180.877,28.881C179.925,28.647 177.913,28.936 177.241,28.382C176.47,27.746 175.933,25.581 175.235,24.712C173.244,22.236 170.14,20.642 166.866,21.198C164.455,21.607 165.839,22.105 164.032,20.686C163.027,19.898 162.276,18.693 161.3,17.839C159.833,16.556 158.15,15.458 156.408,14.557C151.851,12.199 146.654,10.485 141.564,9.649C132.279,8.125 122.369,9.454 113.369,11.869C108.89,13.07 104.382,14.595 100.222,16.612C98.439,17.476 97.409,18.194 95.549,18.42C92.621,18.777 90.14,18.759 87.366,20.001C78.83,23.823 74.985,32.69 78.307,41.175C78.975,42.882 79.88,44.38 81.127,45.759C82.647,47.439 83.198,47.109 81.888,49.041C79.929,51.931 78.278,55.013 76.933,58.213C73.404,66.615 72.814,76.077 73.044,85.037C73.124,88.174 73.259,91.35 73.753,94.456C73.967,95.801 74.027,98.329 75.035,99.327C75.547,99.833 76.276,100.115 77.004,99.914C78.713,99.44 78.125,98.179 78.165,97.008C78.365,91.124 78.095,85.919 79.494,80.106C80.528,75.812 82.25,71.911 84.483,68.071C87.321,63.187 90.386,58.898 94.29,54.716C95.207,53.732 95.408,53.315 96.639,53.244C97.571,53.19 98.934,53.828 99.84,54.049C101.838,54.536 103.839,55.017 105.873,55.345C109.613,55.948 113.317,55.989 117.09,55.87C124.516,55.638 131.975,55.117 139.175,53.247C143.957,52.005 148.197,49.776 152.777,48.142C152.859,48.113 154.007,47.295 154.208,47.328C154.489,47.375 156.185,49.154 156.471,49.378C158.697,51.124 161.138,51.857 163.541,53.208C166.505,54.875 163.635,52.49 165.269,54.567C165.746,55.172 165.99,56.293 166.372,56.978C167.588,59.161 169.28,61.08 171.303,62.602C173.258,64.073 176.196,64.783 177.193,66.697C177.962,68.174 178.221,70.181 178.841,71.758C180.469,75.893 182.618,79.749 184.767,83.644C186.499,86.783 188.392,89.525 188.585,93.112C188.652,94.36 187.464,101.849 190.358,99.572C190.787,99.234 191.711,95.416 191.901,94.768C192.673,92.135 192.947,89.387 193.296,86.682C193.99,81.302 194.219,76.184 193.765,70.766" style="fill:rgb(140,82,45);"/>
        </g>
    </g>
</svg>
