<?xml version="1.0" encoding="UTF-8" standalone="no"?>
<!DOCTYPE svg PUBLIC "-//W3C//DTD SVG 1.1//EN" "http://www.w3.org/Graphics/SVG/1.1/DTD/svg11.dtd">
<svg width="100%" height="100%" viewBox="0 0 300 300" version="1.1" xmlns="http://www.w3.org/2000/svg" xmlns:xlink="http://www.w3.org/1999/xlink" xml:space="preserve" xmlns:serif="http://www.serif.com/" style="fill-rule:evenodd;clip-rule:evenodd;stroke-linejoin:round;stroke-miterlimit:1.41421;">
    <g transform="matrix(1,0,0,1,18.027,22.8098)">
        <g id="hair">
            <path id="hair-07" d="M167.309,35.006C147.121,23.307 127.129,25.222 112.037,29.03C96.945,32.838 88.017,43.651 80.357,59.648C76.596,67.503 74.366,76.791 74.023,85.481C73.888,88.893 74.348,92.415 75.268,95.7C75.605,96.906 77.423,101.087 77.922,97.709C78.089,96.584 77.48,95.033 77.422,93.838C77.344,92.269 77.427,90.681 77.534,89.115C77.734,86.187 78.256,83.315 79.185,80.525C80.512,76.537 82.201,72.213 84.787,68.848C91.188,60.521 102.269,60.046 111.066,55.464C110.303,56.869 107.36,59.143 108.379,60.727C109.084,61.821 111.749,61.489 113.022,61.454C116.371,61.362 119.735,60.78 123.043,60.307C128.256,59.562 133.141,58.052 138.047,56.218C142.063,54.716 146.65,53.326 149.669,50.14C154.54,55.188 160.81,59.935 167.07,63.143C172.688,66.022 181.749,67.461 185.183,73.301C189.248,80.215 187.378,88.707 188.619,96.201C189.091,99.05 190.164,98.987 190.751,96.438C191.748,92.108 192.219,87.61 191.902,83.159C191.184,73.111 187.497,46.706 167.309,35.006Z" style="fill:rgb(140,82,45);"/>
        </g>
    </g>
</svg>
