<?xml version="1.0" encoding="UTF-8" standalone="no"?>
<!DOCTYPE svg PUBLIC "-//W3C//DTD SVG 1.1//EN" "http://www.w3.org/Graphics/SVG/1.1/DTD/svg11.dtd">
<svg width="100%" height="100%" viewBox="0 0 300 300" version="1.1" xmlns="http://www.w3.org/2000/svg" xmlns:xlink="http://www.w3.org/1999/xlink" xml:space="preserve" xmlns:serif="http://www.serif.com/" style="fill-rule:evenodd;clip-rule:evenodd;stroke-linejoin:round;stroke-miterlimit:1.41421;">
    <g transform="matrix(1,0,0,1,17.7599,21.8473)">
        <g id="hair">
            <path id="hair-08" d="M183.68,38.949C189.086,33.999 190.387,23.962 187.318,17.449C183.549,9.454 175.901,8.452 168.572,11.969C161.664,15.284 155.515,16.388 147.95,14.782C140.692,13.241 133.806,10.523 126.303,10.076C113.978,9.343 102.003,13.915 93.603,23.129C92,24.887 90.709,26.897 89.488,28.934C88.512,30.564 87.411,32.313 86.995,34.192C86.797,35.086 87.165,37.29 86.72,38.022C86.239,38.812 84.424,39.537 83.651,40.124C82.084,41.313 80.727,42.654 79.471,44.171C76.805,47.393 75.338,50.758 74.103,54.743C70.001,67.988 69.653,83.741 74.957,96.747C75.664,98.481 77.855,102.099 79.143,98.385C79.398,97.651 78.809,95.191 78.81,94.45C78.815,91.73 80.316,73.721 86.857,63.633C88.986,60.349 98.83,48.052 100.841,47.954C101.906,49.646 112.721,60.462 140.783,59.195C153.445,58.623 163.183,52.934 165.521,50.468C166.549,56.001 178.513,64.284 180.336,67.692C185.603,77.538 186.771,97.996 188.781,97.957C190.791,97.919 192.234,92.72 192.648,91.727C195.72,84.352 196.243,75.095 195.915,67.168C195.488,56.966 191.277,45.942 183.68,38.949Z" style="fill:rgb(140,82,45);"/>
        </g>
    </g>
</svg>
