<?xml version="1.0" encoding="UTF-8" standalone="no"?>
<!DOCTYPE svg PUBLIC "-//W3C//DTD SVG 1.1//EN" "http://www.w3.org/Graphics/SVG/1.1/DTD/svg11.dtd">
<svg width="100%" height="100%" viewBox="0 0 300 300" version="1.1" xmlns="http://www.w3.org/2000/svg" xmlns:xlink="http://www.w3.org/1999/xlink" xml:space="preserve" xmlns:serif="http://www.serif.com/" style="fill-rule:evenodd;clip-rule:evenodd;stroke-linejoin:round;stroke-miterlimit:1.41421;">
    <g transform="matrix(1,0,0,1,53.6729,21.3168)">
        <g id="hair">
            <path id="hair-02" d="M153.503,98.874C152.972,99.248 152.233,98.875 152,98.032C152.463,96.526 148.704,70.178 139,63.156C135.421,60.745 116.409,60.564 97.313,60.55C78.008,60.537 58.618,60.718 55,63.156C45.296,70.178 41.537,96.526 42,98.032C41.767,98.875 41.028,99.248 40.497,98.874C36.101,100.655 33,104.965 33,110L33,123C33,128.288 36.42,132.776 41.168,134.375C42.2,147.72 47.908,159.754 56.657,168.839C56.332,169.526 55.623,169.436 55.347,170.073C55.336,170.098 54.693,172.744 54.782,172.609C54.011,173.777 53.01,173.689 51.987,174.195C50.571,174.896 49.429,176.193 47.721,176.088C47.384,176.067 45.897,175.648 45.773,175.678C45.219,174.628 44.712,174.701 44.254,175.899C43.98,176.414 43.706,176.928 43.433,177.444C42.756,178.243 43.009,179.689 41.384,179.209C37.022,177.921 44.14,170.681 46.641,170.561C45.223,167.211 44.076,165.639 40.912,164.344C38.68,163.431 35.858,163.073 34.32,160.74C33.441,159.408 33.155,158.211 33.788,156.662C34.332,155.33 36.89,154.786 37.081,153.834C37.301,152.734 32.642,149.851 31.632,148.569C29.605,146 29.253,142.493 25.75,142.923C22.717,143.295 22.508,147.548 20.332,148.296C12.72,150.915 23.573,137.609 23.49,138.807C21.251,139.502 14.192,141.307 13.01,137.291C11.911,133.569 14.891,135.387 16.248,135.543C18.848,135.843 20.97,135.691 23.525,134.936C21.328,133.545 16.56,129.761 17.605,126.674C19.13,122.184 22.049,127.906 23.238,129.136C23.94,126.65 25.929,125.413 27.94,124.415C24.425,124.381 21.063,123.178 18.266,120.74C14.796,122.001 11.564,120.777 8.318,119.133C7.152,118.544 4.82,117.778 4.282,116.366C3.507,114.338 4.868,113.256 6.482,113.344C9.441,113.504 12.769,118.433 16.068,117.119C16.598,116.907 16.488,115.465 17.316,115.19C17.826,115.021 18.529,115.332 18.933,115.176C19.489,114.962 19.422,115.995 20.035,115.586C18.372,114.086 16.65,113.127 15.257,111.264C14.551,110.32 14.15,108.989 13.439,108.12C12.801,107.342 11.582,106.982 11.003,106.126C9.165,103.412 10.262,102.053 13.202,102.614C13.835,102.734 16.893,103.938 17.312,104.492C19.119,101.973 21.813,98.773 20.395,95.178C20.002,94.183 18.141,92.864 17.438,91.924C16.641,90.859 16.153,89.422 15.318,88.429C14.199,87.099 12.447,86.172 10.678,86.103C6.992,85.959 6.546,89.325 4.095,91.064C2.035,92.527 0.434,91.795 1.191,88.921C1.81,86.581 5.127,84.09 7.097,83.271C9.766,82.162 12.845,82.978 15.207,83.589C16.557,83.939 16.831,83.387 18.297,84.457C19.894,85.622 19.482,86.743 21.85,87.5C20.536,82.428 17.873,80.376 13.649,78.508C12.413,77.961 7.673,75.224 11.112,73.81C11.986,73.45 16.452,75.527 17.358,75.971C16.619,74.409 15.087,71.721 15.984,70.148C17.308,67.831 19.233,69.694 19.73,71.592C19.998,68.041 17.846,62.971 13.763,62.745C11.483,62.619 9.143,67.629 7.165,64.996C3.366,59.951 18.132,57.194 21.561,60.494C21.944,57.438 23.757,54.12 22.389,51.369C20.902,48.386 19.112,47.223 18.611,43.635C18.344,41.722 18.729,35.564 22.017,38.844C23.14,39.966 22.749,42.341 23.825,43.831C24.378,44.596 25.435,45.606 26.293,45.908C26.86,40.86 25.763,35.688 23.344,31.404C22.417,29.764 19.629,21.832 24.349,24.03C25.887,24.747 25.442,27.894 26.664,29.019C27.33,29.632 33.912,32.848 34.935,32.159C35.665,31.668 37.681,26.189 38.3,25.226C39.042,24.072 42.419,18.191 43.612,22.356C44.248,24.579 41.043,26.942 41.843,29.736C43.31,28.523 45.199,27.653 46.178,25.876C46.776,24.793 47.211,18.441 50.195,21.491C50.647,18.754 50.393,16.005 50.012,13.318C49.659,10.839 47.801,3.861 51.308,2.865C54.888,1.848 53.782,6.235 53.692,8.396C53.572,11.297 54.724,16.048 57.148,17.921C58.954,19.319 58.396,19.157 59.969,17.098C61.222,15.461 62.147,13.495 62.943,11.574C63.439,10.378 63.86,9.236 63.939,7.956C64.026,6.544 62.596,4.715 63.888,3.478C68.406,-0.842 67.3,13.296 66.853,14.715C69.359,11.561 72.127,7.914 76.333,10.463C76.914,7.695 76.448,-0.493 81.188,0.023C85.031,0.441 81.422,3.797 80.726,5.086C79.877,6.659 80.334,8.846 80.077,10.607C83.364,9.75 82.794,9.193 83.585,6.158C83.896,4.968 84.78,2.106 86.026,1.617C90.91,-0.301 87.839,6.006 87.425,7.761C90.135,7.641 93.14,11.917 95.669,9.753C97.031,8.589 96.101,5.401 98.25,4.751C99.959,4.234 100.663,6.167 100.305,7.661C100.878,7.608 102.885,7.8 103.355,8.209C104.312,9.046 103.681,10.85 104.382,11.337C106.403,12.742 112.701,8.106 114.283,6.697C115.532,5.584 120.275,-1.302 121.855,2.865C122.399,4.304 119.848,8.694 119.467,10.109C118.92,12.145 118.138,14.708 118.648,16.775C119.6,15.602 121.293,13.449 121.989,12.004C122.708,10.511 122.33,8.389 123.682,7.118C129.126,2.015 126.706,13.322 126.762,14.935C128.507,14.213 130.457,14.078 131.68,15.673C132.817,17.156 131.646,18.229 132.745,19.269C135.152,16.912 129.922,7.492 136.714,7.778C138.176,7.839 139.521,8.647 138.7,10.55C138.2,11.708 137.074,10.974 136.521,12.009C135.298,14.3 137.764,20.019 137.556,22.736C140.092,22.48 140.176,20.62 140.789,18.736C141.472,16.644 142.958,13.624 145.295,16.213C146.663,17.731 145.315,22.36 145.408,24.56C145.469,26.007 145.57,27.453 145.656,28.898C146.967,28.232 148.695,24.959 150.756,27.206C151.718,28.255 149.879,32.277 150.985,32.77C151.482,31.281 151.173,26.846 152.069,25.587C154.319,22.429 155.459,27.109 155.331,28.85C155.102,31.988 151.881,36.824 156.546,36.718C160.605,36.627 158.858,32.137 159.704,29.252C160.195,27.576 161.39,24.719 163.546,26.084C165.318,27.206 164.115,28.452 163.92,29.851C163.55,32.506 163.413,35.045 163.186,37.742C166.575,35.355 166.819,40.524 166.669,42.527C166.529,44.405 164.603,51.172 166.082,51.494C166.456,51.575 167.768,50.324 168.577,50.375C170.198,50.479 170.861,51.573 170.638,53.304C170.392,55.208 165.62,59.634 167.354,61.655C167.481,61.805 170.126,61.573 170.302,61.462C171.519,60.694 172.076,58.176 172.441,56.616C172.919,54.573 171.725,48.276 175.118,49.617C177.605,50.6 176.17,56.13 175.629,58.178C174.74,61.552 171.737,64.198 172.526,67.609C172.993,66.129 174.69,61.814 176.466,64.957C177.191,66.243 175.979,68.674 175.523,70.003C174.993,71.55 172.923,74.671 172.991,76.251C173.096,78.688 173.2,76.905 175.238,78.442C175.73,76.718 175.989,73.345 176.92,72.015C178.356,69.968 180.163,70.057 180.709,72.583C181.08,74.302 178.635,81.077 177.759,82.705C178.871,81.701 182.245,77.972 183.551,80.615C184.276,82.084 183.373,82.381 182.805,83.248C181.123,85.818 175.17,88.29 175.591,91.648C177.384,90.974 181.203,90.867 180.672,94.05C180.211,96.817 176.93,95.975 175.238,96.992C177.113,96.534 181.953,95.619 182.516,98.601C183.23,102.395 177.792,101.137 175.951,101.597C177.223,104.148 179.717,106.167 182.208,107.159C183.194,107.552 185.137,107.742 185.675,108.814C187.904,113.245 177.995,111.484 176.467,113.141C177.397,114.147 179.037,115.427 177.742,117.034C181.381,118.556 182.806,121.518 183.365,125.544C183.618,127.375 183.244,134.319 180.208,130.116C179.4,129.001 179.613,126.111 179.14,124.763C178.502,122.944 176.179,119.993 173.89,120.719C170.899,121.668 178.111,127.813 177.404,130.613C176.063,135.941 173.299,129.432 172.206,129.014C172.732,131.834 169.623,135.998 170.567,137.868C170.962,138.652 172.852,139.288 173.479,140.295C174.06,141.229 175.05,143.548 174.929,144.633C174.42,149.17 172.104,145.707 171.222,143.992C170.131,141.873 170.263,141.804 167.967,141.556C166.462,141.392 163.414,141.041 162.554,142.176C162.688,141.999 161.842,147.501 161.854,147.114C161.824,148.104 163.441,148.569 162.951,150.128C162.496,151.572 160.792,152.308 159.707,151.143C159.34,153.271 159.679,152.067 161.181,153.277C161.994,153.932 164.073,154.203 163.108,156.054C162.056,158.072 158.585,155.13 157.398,155.188C155.255,155.292 154.109,157.896 152.849,159.689C151.308,161.885 149.356,162.769 147.652,164.435C148.428,164.952 159.522,167.44 155.09,169.888C153.172,170.948 147.387,168.732 145.642,167.572C145.563,171.165 146.5,171.844 148.025,174.616C148.803,176.034 150.535,182 147.428,182C145.247,181.999 146.012,178.82 145.479,177.405C145.14,176.508 144.414,176.041 143.957,175.261C142.192,172.261 142.863,169.495 142.312,166.168C142.166,165.29 141.965,164.472 141.756,163.664C147.993,155.386 151.986,145.322 152.832,134.375C157.58,132.776 161,128.288 161,123L161,110C161,104.965 157.899,100.655 153.503,98.874Z" style="fill:rgb(140,82,45);"/>
        </g>
    </g>
</svg>
