<?xml version="1.0" encoding="UTF-8" standalone="no"?>
<!DOCTYPE svg PUBLIC "-//W3C//DTD SVG 1.1//EN" "http://www.w3.org/Graphics/SVG/1.1/DTD/svg11.dtd">
<svg width="100%" height="100%" viewBox="0 0 300 300" version="1.1" xmlns="http://www.w3.org/2000/svg" xmlns:xlink="http://www.w3.org/1999/xlink" xml:space="preserve" xmlns:serif="http://www.serif.com/" style="fill-rule:evenodd;clip-rule:evenodd;stroke-linejoin:round;stroke-miterlimit:1.41421;">
    <g transform="matrix(1,0,0,1,20.2072,20.853)">
        <g id="hair">
            <path id="hair-01" d="M185.832,73.929C187.589,74.917 188.98,84.828 189.048,88.618C189.09,90.956 189.127,99.874 186.654,99.103C185.901,98.868 184.752,94.147 184.588,91.384C184.425,88.621 182.855,79.22 180.447,74.895C179.896,73.906 178.321,72.171 179.002,71.335C179.846,70.298 180.666,70.9 181.697,71.315C182.812,71.764 185.634,73.818 185.832,73.929ZM186.637,70.957C185.891,71.919 180.796,69.218 178.671,68.044C160.826,58.184 157.362,55.049 129.246,55.458C101.13,55.867 81.867,69.04 80.784,70.387C80.03,71.325 79.068,73.828 78.276,80.801C77.485,87.773 78.495,100.278 75.63,100.263C73.192,100.25 72.661,76.477 73.714,67.046C73.875,65.598 74.498,63.008 74.047,61.706C73.653,60.568 71.725,60.571 72.033,58.675C72.383,56.517 74.558,57.589 75.506,56.557C77.301,54.603 74.532,54.14 74.073,52.431C73.391,49.889 75.363,49.234 77.14,48.431C79.106,47.544 78.85,48.323 80.446,46.585C78.315,45.022 77.544,42.894 80.462,41.752C81.702,41.267 84.927,41.909 85.898,41.18C86.151,40.99 86.251,39.901 86.407,39.678C87.958,37.459 87.576,35.853 87.418,33.362C87.289,31.324 87.306,29.453 89.747,29.25C91.375,29.114 92.699,30.444 94.158,30.836C95.777,31.271 95.169,31.588 96.437,30.715C98.663,29.182 97.148,26.194 98.913,24.412C101.336,21.966 102.924,25.551 104.869,25.822C109.091,26.41 107.736,22.122 110.236,20.55C113.224,18.674 113.513,22.801 115.379,22.948C116.996,23.075 119.908,19.955 121.317,19.373C125.5,17.647 127.572,22.504 131.554,21.884C134.443,21.435 135.223,21.068 137.831,22.712C140.362,24.307 140.963,23.166 143.829,23.144C145.854,23.128 147.094,24.82 148.788,24.997C149.632,25.085 150.441,24.205 151.348,24.26C154.585,24.457 154.79,28.643 157.362,29.796C159.712,30.849 162.474,29.369 164.807,29.095C170.497,28.428 166.6,33.743 166.761,36.915C168.994,37.436 171.262,35.351 173.485,35.735C176.987,36.339 175.665,39.968 174.853,42.414C177.28,42.371 183.613,39.678 185.185,43.122C185.995,44.898 184.107,47.269 184.138,49.074C184.181,51.616 186.049,53.719 186.709,56.124C187.601,59.371 188.872,68.074 186.637,70.957Z" style="fill:rgb(140,82,45);"/>
        </g>
    </g>
</svg>
