<?xml version="1.0" encoding="UTF-8" standalone="no"?>
<!DOCTYPE svg PUBLIC "-//W3C//DTD SVG 1.1//EN" "http://www.w3.org/Graphics/SVG/1.1/DTD/svg11.dtd">
<svg width="100%" height="100%" viewBox="0 0 300 300" version="1.1" xmlns="http://www.w3.org/2000/svg" xmlns:xlink="http://www.w3.org/1999/xlink" xml:space="preserve" xmlns:serif="http://www.serif.com/" style="fill-rule:evenodd;clip-rule:evenodd;stroke-linejoin:round;stroke-miterlimit:1.41421;">
    <g transform="matrix(1,0,0,1,18.0298,21.9214)">
        <g id="hair">
            <path id="hair-06" d="M180.15,39.92C177.39,37.1 174.186,34.707 171.069,32.307C170.382,31.777 169.683,31.261 169.011,30.712C168.858,30.587 167.292,29.466 167.105,29.053C166.654,28.06 166.915,28.833 166.977,27.649C167.056,26.151 170.111,21.919 167.831,20.949C166.828,20.522 165.04,21.658 164.078,22.033C162.196,22.767 160.292,23.393 158.347,23.933C159.279,22.076 161.055,18.359 157.716,19.354C155.114,20.129 152.69,22.122 150.076,23.059C150.941,21.642 154.4,17.248 151.274,17.002C150.302,16.926 147.471,18.75 146.424,19.14C143.287,20.305 140.083,21.059 136.79,21.653C125.592,23.671 112.497,23.095 102.137,28.193C94.149,32.124 86.263,38.222 81.648,45.988C77.201,53.473 75.538,61.664 74.607,70.241C73.924,76.536 73.868,83.043 74.188,89.36C74.292,91.43 74.525,100.971 77.532,98.081C79.03,96.642 79.019,90.828 79.396,88.86C80.147,84.945 80.87,81.013 82.122,77.223C84.328,70.544 86.931,63.43 92.427,58.83C95.954,55.878 98.431,51.889 101.806,48.911C103.322,47.574 102.165,47.713 104.603,47.889C106.241,48.006 107.885,48.051 109.526,48.094C113.322,48.193 117.124,48.168 120.921,48.181C128.568,48.209 136.179,48.317 143.819,47.916C147.214,47.739 150.618,47.642 154.004,47.328C155.895,47.153 159.251,45.941 160.808,46.867C162.233,47.714 163.713,50.482 164.736,51.615C167.154,54.294 170.036,56.339 172.862,58.535C178.757,63.115 181.732,68.867 183.523,76.023C185.306,83.153 184.806,89.768 187.013,96.785C187.402,98.018 188.429,100.145 189.695,98.239C189.93,97.885 189.87,95.939 189.87,94.819C189.87,90.3 191.014,86.908 191,82.359C190.944,68.527 190.496,50.491 180.15,39.92Z" style="fill:rgb(140,82,45);"/>
        </g>
    </g>
</svg>
