<?xml version="1.0" encoding="UTF-8" standalone="no"?>
<svg width="100%" height="100%" viewBox="0 0 200 200" version="1.1" xmlns="http://www.w3.org/2000/svg" xmlns:xlink="http://www.w3.org/1999/xlink" xml:space="preserve" xmlns:serif="http://www.serif.com/" style="fill-rule:evenodd;clip-rule:evenodd;stroke-linejoin:round;stroke-miterlimit:1.41421;">
    <g id="Hairs">
        <path id="hair-02" d="M58.999,92l0.001,-28c13.627,8.4 31.557,2.176 44.244,-4.865c5.783,-3.21 10.721,-8.143 16.991,-10.248c2.132,-0.716 4.332,1.33 6.292,2.431c7.496,4.213 13.825,12.01 14.265,20.682c0.346,6.809 0.296,13.5 0.149,19.968l4.059,0.032c-0.226,-31.098 4.863,-45.298 -13.646,-61.583c-13.449,-11.833 -38.902,-9.199 -54.024,-3.412c-6.325,2.421 -12.786,5.823 -17.107,11.232c-11.803,14.777 -4.645,30.962 -5.224,53.763" style="fill:#84483d;" />
    </g>
</svg>
