<?xml version="1.0" encoding="UTF-8" standalone="no"?>
<svg width="100%" height="100%" viewBox="0 0 200 200" version="1.1" xmlns="http://www.w3.org/2000/svg" xmlns:xlink="http://www.w3.org/1999/xlink" xml:space="preserve" xmlns:serif="http://www.serif.com/" style="fill-rule:evenodd;clip-rule:evenodd;stroke-linejoin:round;stroke-miterlimit:1.41421;">
    <g id="Hairs">
        <path id="hair-03" d="M54.999,92l5.001,0c0.127,-7.174 -1.07,-34.545 5.602,-39.741l68.62,-0.267c5.454,2.364 5.966,30.036 5.778,40.008l5,0l0,-18.369c6.94,-3.696 5.547,-16.591 -1,-17.631c7.665,-7.931 2.701,-23.077 -10,-20c2.035,-13.41 -12.473,-19.53 -22,-12c-2.859,-20.201 -33.12,-12.483 -30.697,0c0.496,-2.648 -21.073,-4.071 -16.303,11c-14.907,-2.102 -16.609,14.461 -9,21c-7.856,1.638 -8.669,16.381 -1.001,18.843" style="fill:#84483d;" />
    </g>
</svg>
