<?xml version="1.0" encoding="UTF-8" standalone="no"?>
<svg width="100%" height="100%" viewBox="0 0 200 200" version="1.1" xmlns="http://www.w3.org/2000/svg" xmlns:xlink="http://www.w3.org/1999/xlink" xml:space="preserve" xmlns:serif="http://www.serif.com/" style="fill-rule:evenodd;clip-rule:evenodd;stroke-linejoin:round;stroke-miterlimit:1.41421;">
    <g id="Hairs">
        <path id="hair-06" d="M139.85,92l-2.001,-36c-4.977,3.068 -11.051,11.184 -16.426,15.593c-1.924,1.578 -3.76,2.681 -5.423,2.907c-6.308,0.856 -9.607,-9.817 -16,-13.365c-1.154,-0.64 3.387,11.046 0,10.365c-4.504,-0.905 -16.366,-20.928 -21.386,-22.613c-2.131,-0.716 -5.327,0.4 -6.292,2.431c-1.755,3.698 -4.337,9.703 -6.715,13.15c-2.018,2.926 -6.493,4.056 -7.55,7.532c-1.984,6.523 -0.295,13.5 -0.148,19.968l-4.06,0.032c0.226,-31.098 -4.862,-45.298 13.646,-61.583c13.45,-11.833 38.903,-9.199 54.024,-3.412c6.325,2.421 12.786,5.823 17.107,11.232c11.804,14.777 5.795,31.46 6.374,54.262" style="fill:#84483d;" />
    </g>
</svg>
