<?xml version="1.0" encoding="UTF-8" standalone="no"?>
<svg width="100%" height="100%" viewBox="0 0 200 200" version="1.1" xmlns="http://www.w3.org/2000/svg" xmlns:xlink="http://www.w3.org/1999/xlink" xml:space="preserve" xmlns:serif="http://www.serif.com/" style="fill-rule:evenodd;clip-rule:evenodd;stroke-linejoin:round;stroke-miterlimit:1.41421;">
    <g id="Hairs">
        <path id="hair-01" d="M54.999,92l5.001,0l0,-28.5c3.982,-1.096 5.614,-4.081 8,-7c0.416,-0.509 0.602,-1.557 1.258,-1.518c4.323,0.259 8.48,1.815 12.776,2.357c16.158,2.038 33.191,0.369 47.966,-6.839c0.962,7.017 1.995,9.414 8,12l2,29.5l5,0c1.018,-10.3 1.767,-36.769 1.004,-45.142c-0.44,-4.823 -4.624,-8.993 -9.087,-10.259c-2.539,-0.72 -5.278,-0.055 -7.917,-0.099c-5.128,-7.923 -5.667,-19.167 -9,-21.834c-3.241,-2.593 -11,5.834 -11,5.834c-4.845,-3.554 -7,-18 -12,-16.5c-5,1.5 -15.368,12.239 -18,25.497c-4.919,-3.675 -4.503,-13.357 -9,-11.497c-20.676,8.553 -15.525,62.145 -15.001,74" style="fill:#84483d;" />
    </g>
</svg>
