<?xml version="1.0" encoding="UTF-8" standalone="no"?>
<!DOCTYPE svg PUBLIC "-//W3C//DTD SVG 1.1//EN" "http://www.w3.org/Graphics/SVG/1.1/DTD/svg11.dtd">
<svg width="100%" height="100%" viewBox="0 0 300 300" version="1.1" xmlns="http://www.w3.org/2000/svg" xmlns:xlink="http://www.w3.org/1999/xlink" xml:space="preserve" xmlns:serif="http://www.serif.com/" style="fill-rule:evenodd;clip-rule:evenodd;stroke-linejoin:round;stroke-miterlimit:1.41421;">
    <g transform="matrix(1,0,0,1,95,230)">
        <g id="mouth">
            <g id="mouth-08">
                <g id="Path-2-Copy" transform="matrix(1,0,0,-1,0,29.9997)">
                    <path d="M19.676,12.946C19.153,12.767 18.875,12.198 19.054,11.676C19.233,11.153 19.802,10.875 20.324,11.054C31.888,15.019 43.445,17 55,17C66.555,17 78.112,15.019 89.676,11.054C90.198,10.875 90.767,11.153 90.946,11.676C91.125,12.198 90.847,12.767 90.324,12.946C78.555,16.981 66.779,19 55,19C43.221,19 31.445,16.981 19.676,12.946Z" style="fill-opacity:0.2;fill-rule:nonzero;"/>
                </g>
                <path id="Combined-Shape" d="M51.231,13.069C52.494,13.023 53.756,13 55.019,13C56.85,13 58.68,13.048 60.511,13.144L76.714,41.209C77.819,43.122 77.163,45.569 75.25,46.673C73.337,47.778 70.89,47.122 69.786,45.209L51.286,13.166C51.267,13.134 51.249,13.101 51.231,13.069Z" style="fill:rgb(170,225,255);fill-opacity:0.509804;"/>
                <path id="Combined-Shape1" serif:id="Combined-Shape" d="M54.755,13C54.843,13 54.931,13 55.019,13C55.671,13 56.322,13.006 56.974,13.018L73.116,40.977C73.392,41.455 73.228,42.067 72.75,42.343C72.272,42.619 71.66,42.455 71.384,41.977L54.884,13.398C54.811,13.272 54.769,13.136 54.755,13Z" style="fill:rgb(80,139,216);"/>
                <path id="Combined-Shape2" serif:id="Combined-Shape" d="M56.335,18.992L60.665,16.492C60.904,16.354 61.21,16.436 61.348,16.675C61.486,16.914 61.404,17.22 61.165,17.358L56.835,19.858C56.596,19.996 56.29,19.914 56.152,19.675C56.014,19.436 56.096,19.13 56.335,18.992ZM58.835,23.322L63.165,20.822C63.404,20.684 63.71,20.766 63.848,21.005C63.986,21.244 63.904,21.55 63.665,21.688L59.335,24.188C59.096,24.326 58.79,24.244 58.652,24.005C58.514,23.766 58.596,23.46 58.835,23.322ZM61.335,27.652L65.665,25.152C65.904,25.014 66.21,25.096 66.348,25.335C66.486,25.574 66.404,25.88 66.165,26.018L61.835,28.518C61.596,28.656 61.29,28.574 61.152,28.335C61.014,28.096 61.096,27.79 61.335,27.652ZM63.835,31.982L68.165,29.482C68.404,29.344 68.71,29.426 68.848,29.665C68.986,29.904 68.904,30.21 68.665,30.348L64.335,32.848C64.096,32.986 63.79,32.904 63.652,32.665C63.514,32.426 63.596,32.12 63.835,31.982ZM66.335,36.312L70.665,33.812C70.904,33.674 71.21,33.756 71.348,33.995C71.486,34.234 71.404,34.54 71.165,34.678L66.835,37.178C66.596,37.316 66.29,37.234 66.152,36.995C66.014,36.756 66.096,36.45 66.335,36.312ZM68.835,40.642L73.165,38.142C73.404,38.004 73.71,38.086 73.848,38.325C73.986,38.564 73.904,38.87 73.665,39.008L69.335,41.508C69.096,41.646 68.79,41.564 68.652,41.325C68.514,41.086 68.596,40.78 68.835,40.642Z" style="fill:rgb(80,139,216);fill-opacity:0.738961;"/>
                <path id="Combined-Shape-Copy-4" d="M54.559,13.031C55.345,13.05 56.131,13.078 56.917,13.115L67.616,31.647C67.892,32.125 67.728,32.737 67.25,33.013C66.772,33.289 66.16,33.125 65.884,32.647L54.559,13.031L54.559,13.031Z" style="fill:rgb(184,9,51);"/>
            </g>
        </g>
    </g>
</svg>
