<?xml version="1.0" encoding="UTF-8" standalone="no"?>
<!DOCTYPE svg PUBLIC "-//W3C//DTD SVG 1.1//EN" "http://www.w3.org/Graphics/SVG/1.1/DTD/svg11.dtd">
<svg width="100%" height="100%" viewBox="0 0 300 300" version="1.1" xmlns="http://www.w3.org/2000/svg" xmlns:xlink="http://www.w3.org/1999/xlink" xml:space="preserve" xmlns:serif="http://www.serif.com/" style="fill-rule:evenodd;clip-rule:evenodd;stroke-linejoin:round;stroke-miterlimit:1.41421;">
    <g transform="matrix(1,0,0,1,95,229)">
        <g id="mouth">
            <g id="mouth-09">
                <path id="Path-2-Copy" d="M19.676,12.946C19.153,12.767 18.875,12.198 19.054,11.676C19.233,11.153 19.802,10.875 20.324,11.054C31.888,15.019 43.445,17 55,17C66.555,17 78.112,15.019 89.676,11.054C90.198,10.875 90.767,11.153 90.946,11.676C91.125,12.198 90.847,12.767 90.324,12.946C78.555,16.981 66.779,19 55,19C43.221,19 31.445,16.981 19.676,12.946Z" style="fill-opacity:0.2;fill-rule:nonzero;"/>
                <path id="Combined-Shape" d="M45.164,18.555C48.449,18.865 51.734,19.02 55.019,19.02C58.536,19.02 62.052,18.842 65.569,18.487C65.303,26.924 60.837,33.637 55.365,33.637C49.909,33.637 45.451,26.96 45.164,18.555Z" style="fill:rgb(255,111,129);"/>
                <path id="Combined-Shape-Copy" d="M54.876,18.312C54.923,18.312 54.971,18.312 55.019,18.312C55.275,18.312 55.531,18.312 55.787,18.31C55.709,23.842 55.534,27.692 55.332,27.692C55.129,27.692 54.954,23.844 54.876,18.312Z" style="fill-opacity:0.2;"/>
            </g>
        </g>
    </g>
</svg>
