<?xml version="1.0" encoding="UTF-8" standalone="no"?>
<!DOCTYPE svg PUBLIC "-//W3C//DTD SVG 1.1//EN" "http://www.w3.org/Graphics/SVG/1.1/DTD/svg11.dtd">
<svg width="100%" height="100%" viewBox="0 0 300 300" version="1.1" xmlns="http://www.w3.org/2000/svg" xmlns:xlink="http://www.w3.org/1999/xlink" xml:space="preserve" xmlns:serif="http://www.serif.com/" style="fill-rule:evenodd;clip-rule:evenodd;stroke-linecap:round;">
    <g transform="matrix(1,0,0,1,95,234.002)">
        <g id="mouth">
            <g id="mouth-01">
                <path id="Path-2" d="M18.31,25.856C12.867,24.923 9.211,19.754 10.144,14.31C11.077,8.867 16.246,5.211 21.69,6.144C32.8,8.048 43.902,9 55,9C66.098,9 77.2,8.048 88.31,6.144C93.754,5.211 98.923,8.867 99.856,14.31C100.789,19.754 97.133,24.923 91.69,25.856C79.467,27.952 67.235,29 55,29C42.765,29 30.533,27.952 18.31,25.856Z" style="fill:rgb(255,183,230);fill-rule:nonzero;"/>
                <path id="Path-2-Copy" d="M20,16C31.667,18 43.333,19 55,19C66.667,19 78.333,18 90,16" style="fill:none;stroke:black;stroke-opacity:0.2;stroke-width:1px;"/>
            </g>
        </g>
    </g>
</svg>
