<?xml version="1.0" encoding="UTF-8" standalone="no"?>
<!DOCTYPE svg PUBLIC "-//W3C//DTD SVG 1.1//EN" "http://www.w3.org/Graphics/SVG/1.1/DTD/svg11.dtd">
<svg width="100%" height="100%" viewBox="0 0 300 300" version="1.1" xmlns="http://www.w3.org/2000/svg" xmlns:xlink="http://www.w3.org/1999/xlink" xml:space="preserve" xmlns:serif="http://www.serif.com/" style="fill-rule:evenodd;clip-rule:evenodd;stroke-linejoin:round;stroke-miterlimit:1.41421;">
    <g transform="matrix(1,0,0,1,95,230)">
        <g id="mouth">
            <g id="mouth-04">
                <path d="M44.221,10.039C43.891,10.952 43.801,11.956 43.981,12.981C44.508,15.97 47.143,18.008 49.86,17.529C50.007,17.503 50.151,17.471 50.292,17.431C51.393,18.886 53.052,19.813 54.905,19.813C56.835,19.813 58.553,18.809 59.651,17.25C59.972,17.383 60.315,17.477 60.676,17.529C63.36,17.914 66.061,15.8 66.71,12.809C66.918,11.854 66.89,10.924 66.647,10.095C74.151,10.903 80,17.269 80,25C80,29.745 77.797,33.975 74.313,36.674C72.059,31.1 64.26,27 55,27C45.74,27 37.941,31.1 35.687,36.674C32.203,33.975 30,29.745 30,25C30,16.988 36.282,10.443 44.221,10.039Z" style="fill:rgb(51,51,51);"/>
                <path d="M35.687,36.674C37.941,31.1 45.74,27 55,27C64.26,27 72.059,31.1 74.313,36.674C71.812,38.757 68.591,39.981 65,40L45,40C41.461,40 38.207,38.774 35.687,36.674Z" style="fill:rgb(255,111,129);"/>
                <g transform="matrix(1,0,0,1,-95,-122.5)">
                    <path d="M139.221,132.539L140,132.5L160,132.5C160.553,132.5 161.099,132.53 161.647,132.595C161.89,133.424 161.918,134.354 161.71,135.309C161.061,138.3 158.36,140.414 155.676,140.029C155.315,139.977 154.972,139.883 154.651,139.75C153.553,141.309 151.835,142.313 149.905,142.313C148.052,142.313 146.393,141.386 145.292,139.931C145.151,139.971 145.007,140.003 144.86,140.029C142.143,140.508 139.508,138.47 138.981,135.481C138.801,134.456 138.891,133.452 139.221,132.539Z" style="fill:white;"/>
                </g>
                <g transform="matrix(1,0,0,-1,-95.3696,172.5)">
                    <path d="M139.221,132.539L140,132.5L160,132.5C160.553,132.5 161.099,132.53 161.647,132.595C161.89,133.424 161.918,134.354 161.71,135.309C161.061,138.3 158.36,140.414 155.676,140.029C155.315,139.977 154.972,139.883 154.651,139.75C153.553,141.309 151.835,142.313 149.905,142.313C148.052,142.313 146.393,141.386 145.292,139.931C145.151,139.971 145.007,140.003 144.86,140.029C142.143,140.508 139.508,138.47 138.981,135.481C138.801,134.456 138.891,133.452 139.221,132.539Z" style="fill:white;"/>
                </g>
            </g>
        </g>
    </g>
</svg>
