<?xml version="1.0" encoding="UTF-8" standalone="no"?>
<!DOCTYPE svg PUBLIC "-//W3C//DTD SVG 1.1//EN" "http://www.w3.org/Graphics/SVG/1.1/DTD/svg11.dtd">
<svg width="100%" height="100%" viewBox="0 0 300 300" version="1.1" xmlns="http://www.w3.org/2000/svg" xmlns:xlink="http://www.w3.org/1999/xlink" xml:space="preserve" xmlns:serif="http://www.serif.com/" style="fill-rule:evenodd;clip-rule:evenodd;stroke-linejoin:round;stroke-miterlimit:1.41421;">
    <g transform="matrix(1,0,0,1,95.5198,226)">
        <g id="mouth">
            <g id="mouth-06">
                <g transform="matrix(1,0,0,1,18,14)">
                    <path d="M25.524,0.668C28.724,0.238 32.335,0 36.519,0C41.053,0 44.981,0.28 48.463,0.798C49.186,3.248 50.589,5.025 51.577,4.803C52.473,4.603 54.112,3.766 55.492,2.258C61,3.761 64.928,5.914 68.225,8.146C71.773,10.548 74.607,15.147 71.824,18.897C70.23,21.045 67.72,22.421 64.885,22.784L65,22.5C65,21.489 61.572,20.578 56.085,19.966C56.034,16.276 54.299,13.274 53.476,13.129C52.608,12.976 49.697,15.464 48.454,19.271C44.067,18.311 40.011,18 36.48,18C33.369,18 29.86,18.538 26.09,19.339C24.992,15.266 21.847,12.534 20.939,12.695C19.998,12.861 17.862,16.765 18.415,21.138L14.891,22.011C8.198,23.671 3.998,22.647 1.215,18.897C-1.568,15.147 0.832,10.482 4.814,8.146C8.759,5.832 12.805,3.603 18.498,2.097C19.881,3.609 21.52,4.446 22.416,4.646C23.404,4.868 24.807,3.091 25.524,0.668Z" style="fill:rgb(51,51,51);"/>
                </g>
                <g id="Combined-Shape" transform="matrix(1,0,0,1,-95,-122.5)">
                    <path d="M170,158.086C167.175,157.071 164.43,156.324 161.795,155.836C171.346,156.38 177.974,157.589 178,158.992L178,159L178,166.5C178,168.709 176.209,170.5 174,170.5C171.791,170.5 170,168.709 170,166.5L170,158.086Z" style="fill:rgb(170,225,255);"/>
                </g>
                <g transform="matrix(1,0,0,1,-95,-122.5)">
                    <path d="M131.415,157.638C130.862,153.265 132.998,149.361 133.939,149.195C134.847,149.034 137.992,151.766 139.09,155.839L133.842,157.036L131.415,157.638Z" style="fill:white;"/>
                </g>
                <g transform="matrix(1,0,0,1,-95,-122.5)">
                    <path d="M161.454,155.771C162.697,151.964 165.608,149.476 166.476,149.629C167.299,149.774 169.034,152.776 169.085,156.466C166.946,156.195 164.486,155.989 161.795,155.836L161.454,155.771Z" style="fill:white;"/>
                </g>
                <g transform="matrix(1,0,0,1,-95,-122.5)">
                    <path d="M165.381,137.966L168.492,138.758C167.112,140.266 165.473,141.103 164.577,141.303C163.589,141.525 162.186,139.748 161.463,137.298L165.381,137.966Z" style="fill:white;"/>
                </g>
                <g transform="matrix(1,0,0,1,-95,-122.5)">
                    <path d="M138.524,137.168C137.807,139.591 136.404,141.368 135.416,141.146C134.52,140.946 132.881,140.109 131.498,138.597C133.587,138.01 135.907,137.524 138.524,137.168Z" style="fill:white;"/>
                </g>
            </g>
        </g>
    </g>
</svg>
