<?xml version="1.0" encoding="UTF-8" standalone="no"?>
<!DOCTYPE svg PUBLIC "-//W3C//DTD SVG 1.1//EN" "http://www.w3.org/Graphics/SVG/1.1/DTD/svg11.dtd">
<svg width="100%" height="100%" viewBox="0 0 300 300" version="1.1" xmlns="http://www.w3.org/2000/svg" xmlns:xlink="http://www.w3.org/1999/xlink" xml:space="preserve" xmlns:serif="http://www.serif.com/" style="fill-rule:evenodd;clip-rule:evenodd;stroke-linejoin:round;stroke-miterlimit:1.41421;">
    <g transform="matrix(1,0,0,1,95,230)">
        <g id="mouth">
            <g id="mouth-07">
                <path id="Combined-Shape" d="M55,26C45.209,26 40.743,20.674 35.085,17.083C31.695,15.25 31.333,14.556 34,15C40,16 48,10 50,10C51.333,10 53,10.667 55,12C57,10.667 58.667,10 60,10C62,10 70,16 76,15C78.667,14.556 78.443,15.239 75.33,17.052C69.953,20.642 64.821,26 55,26Z" style="fill:rgb(237,96,114);"/>
                <path id="Path-2-Copy" d="M19.676,12.946C19.153,12.767 18.875,12.198 19.054,11.676C19.233,11.153 19.802,10.875 20.324,11.054C31.888,15.019 43.445,17 55,17C66.555,17 78.112,15.019 89.676,11.054C90.198,10.875 90.767,11.153 90.946,11.676C91.125,12.198 90.847,12.767 90.324,12.946C78.555,16.981 66.779,19 55,19C43.221,19 31.445,16.981 19.676,12.946Z" style="fill-opacity:0.2;fill-rule:nonzero;"/>
            </g>
        </g>
    </g>
</svg>
