<?xml version="1.0" encoding="UTF-8" standalone="no"?>
<!DOCTYPE svg PUBLIC "-//W3C//DTD SVG 1.1//EN" "http://www.w3.org/Graphics/SVG/1.1/DTD/svg11.dtd">
<svg width="100%" height="100%" viewBox="0 0 300 300" version="1.1" xmlns="http://www.w3.org/2000/svg" xmlns:xlink="http://www.w3.org/1999/xlink" xml:space="preserve" xmlns:serif="http://www.serif.com/" style="fill-rule:evenodd;clip-rule:evenodd;stroke-linejoin:round;stroke-miterlimit:1.41421;">
    <g transform="matrix(1,0,0,1,95.5198,232.998)">
        <g id="mouth">
            <g id="mouth-02">
                <g transform="matrix(1,0,0,-1,0,45.0016)">
                    <path d="M34.693,10.281L32.891,9.364C28.121,6.581 21.998,8.192 19.215,12.963C16.432,17.733 18.832,23.668 22.814,26.639C26.21,29.174 29.681,31.627 34.187,33.472L34.197,33.382C34.964,29.031 38.839,26.709 40.416,26.355C41.992,26.002 44.623,30.734 43.856,35.085L43.597,36.16L45.94,36.451L45.966,36.193C46.493,33.203 48.691,31.088 50.87,31.472C52.904,31.831 54.208,34.241 53.925,36.979L54.519,37.002L56.898,36.912C56.653,34.182 57.949,31.827 59.96,31.472C62.141,31.088 64.336,33.201 64.864,36.193L64.869,36.246L65.77,36.137L66.395,36.001L66.137,34.928C65.37,30.577 68.001,25.845 69.577,26.198C71.144,26.55 74.983,28.846 75.795,33.221C80.127,31.419 83.407,29.067 86.225,26.639C89.773,23.583 92.607,17.733 89.824,12.963C87.041,8.192 80.918,6.581 76.147,9.364L75.67,9.615L75.939,10.807C76.754,15.43 74.461,19.699 73.476,19.872C72.656,20.017 70.012,17.804 68.718,14.417C65.154,16.65 60.318,18.002 55,18.002C49.923,18.002 45.284,16.769 41.76,14.701C40.461,18.19 37.768,20.453 36.939,20.307C35.954,20.133 33.661,15.865 34.476,11.242L34.693,10.281Z" style="fill:rgb(51,51,51);"/>
                </g>
                <path id="_-Curva-" serif:id="(Curva)" d="M37.708,33.493C41.154,29.61 47.612,27 55,27C62.738,27 69.455,29.862 72.753,34.032C66.76,31.611 59.531,31 54.519,31C49.902,31 43.401,31.519 37.708,33.493Z" style="fill:rgb(255,111,129);"/>
                <g id="teeth" transform="matrix(1,0,0,1,33,2)">
                    <path d="M27.507,6.225L31.869,6.756L31.864,6.809C31.336,9.8 29.141,11.914 26.96,11.529C24.949,11.175 23.653,8.82 23.898,6.09L27.507,6.225Z" style="fill:white;"/>
                    <g transform="matrix(0.984808,-0.173648,0.173648,0.984808,-0.804484,3.03015)">
                        <path d="M20.88,6.72C20.683,9.466 18.98,11.613 16.915,11.613C14.702,11.613 12.905,9.148 12.905,6.113L12.924,5.854L15.572,5.99L20.88,6.72Z" style="fill:white;"/>
                    </g>
                    <path d="M33.395,7.001C37.023,7.645 40.11,8.592 42.795,9.78C41.983,14.155 38.144,16.452 36.577,16.803C35.001,17.157 32.37,12.425 33.137,8.073L33.395,7.001Z" style="fill:white;"/>
                    <path d="M10.597,6.841L10.856,7.916C11.623,12.268 8.992,17 7.416,16.646C5.839,16.293 1.964,13.971 1.197,9.62L1.187,9.529C3.879,8.387 6.938,7.458 10.597,6.841Z" style="fill:white;"/>
                </g>
                <g transform="matrix(1,0,0,1,33,2)">
                    <path d="M35.718,28.585C37.012,25.198 39.656,22.985 40.476,23.129C41.461,23.303 43.754,27.571 42.939,32.195L42.67,33.386C41.764,32.868 40.78,32.414 39.753,32.032C38.721,30.728 37.356,29.552 35.718,28.585Z" style="fill:white;"/>
                    <g transform="matrix(0.984808,-0.173648,0.173648,0.984808,-5.31219,1.4123)">
                        <path d="M1.462,32.049L1.415,31.065C1.415,26.371 4.415,22.565 5.415,22.565C6.257,22.565 8.516,25.262 9.189,28.923C7.457,29.52 5.916,30.355 4.644,31.364C3.565,31.523 2.5,31.74 1.462,32.049Z" style="fill:white;"/>
                    </g>
                </g>
            </g>
        </g>
    </g>
</svg>
