<?xml version="1.0" encoding="UTF-8" standalone="no"?>
<!DOCTYPE svg PUBLIC "-//W3C//DTD SVG 1.1//EN" "http://www.w3.org/Graphics/SVG/1.1/DTD/svg11.dtd">
<svg width="100%" height="100%" viewBox="0 0 300 300" version="1.1" xmlns="http://www.w3.org/2000/svg" xmlns:xlink="http://www.w3.org/1999/xlink" xml:space="preserve" xmlns:serif="http://www.serif.com/" style="fill-rule:evenodd;clip-rule:evenodd;stroke-linejoin:round;stroke-miterlimit:1.41421;">
    <g transform="matrix(1,0,0,1,95.5198,232.998)">
        <g id="mouth">
            <g id="mouth-03">
                <path d="M36.919,34.474C40.121,30.046 47.018,27 55,27C62.877,27 69.697,29.966 72.954,34.304C68.178,35.975 62.223,37.002 54.519,37.002C47.098,37.002 41.484,36.049 36.919,34.474Z" style="fill:rgb(255,111,129);"/>
                <path d="M65.622,12.997C69.339,12.307 73.057,11.167 76.147,9.364C80.918,6.581 87.041,8.192 89.824,12.963C92.607,17.733 89.773,23.583 86.225,26.639C82.821,29.572 78.743,32.395 72.954,34.304C69.697,29.966 62.877,27 55,27C47.018,27 40.121,30.046 36.919,34.474C31.018,32.567 26.863,29.661 22.814,26.639C18.832,23.668 16.432,17.733 19.215,12.963C21.998,8.192 28.121,6.581 32.891,9.364C36.748,11.613 41.581,12.831 46.106,13.43C45.872,14.218 45.825,15.092 45.981,15.981C46.508,18.97 49.143,21.008 51.86,20.529C54.077,20.138 55.668,18.194 55.873,15.834C55.891,18.215 57.417,20.205 59.676,20.529C62.36,20.914 65.061,18.8 65.71,15.809C65.927,14.81 65.887,13.839 65.622,12.997Z" style="fill:rgb(51,51,51);"/>
                <g id="teeth" transform="matrix(1,0,0,1,45,8)">
                    <g transform="matrix(1,0,0,1,1,0)">
                        <path d="M19.622,4.997C19.887,5.839 19.927,6.81 19.71,7.809C19.061,10.8 16.36,12.914 13.676,12.529C11.417,12.205 9.891,10.215 9.873,7.834L9.922,7.353L9.903,7.132L9.993,6.416L10.142,5.938C12.958,5.886 16.276,5.628 19.622,4.997Z" style="fill:white;"/>
                    </g>
                    <g transform="matrix(0.984808,-0.173648,0.173648,0.984808,-1.14539,1.13352)">
                        <path d="M10.512,9.253C9.753,11.226 7.975,12.613 5.905,12.613C3.146,12.613 0.905,10.148 0.905,7.113C0.905,6.21 1.104,5.358 1.471,4.623C4.426,5.58 7.282,6.227 9.657,6.646L10.878,6.812L10.905,7.113L10.824,8L10.708,8.375L10.672,8.686L10.512,9.253Z" style="fill:white;"/>
                    </g>
                </g>
            </g>
        </g>
    </g>
</svg>
