<svg id="" xmlns="http://www.w3.org/2000/svg" xmlns:xlink="http://www.w3.org/1999/xlink"><defs><symbol fill-rule="evenodd" stroke-linejoin="round" stroke-miterlimit="1.414" id="beard-01"><path d="M86 148c3.533 11.494 7.648 12.614 8 7.5 4.058 9.788 8.052 8.773 12 0 1.339 6.642 5.601 2.257 8-7.5 0 0-9.298-4-13.965-4C95.369 144 86 148 86 148" fill="param(fill) #84483d" /></symbol><symbol fill-rule="evenodd" stroke-linejoin="round" stroke-miterlimit="1.414" id="beard-02"><path d="M118 120H82c0-4.415 8.065-8 18-8 9.934 0 17.999 3.585 18 8z" fill="param(fill) #84483d" /></symbol><symbol fill-rule="evenodd" stroke-linejoin="round" stroke-miterlimit="1.414" id="beard-03"><path d="M145 92c2.895 26.918-8.352 59.5-38.572 63.063-5.835.688-12.215.557-17.998-.646-20.687-4.304-29.976-23.372-32.82-42.491-.485-3.259-.704-6.559-.808-9.853-.1-3.19.049-7.386.197-10.574L60 92c28.05 30.987 54.695 28.909 80 0h5m-40.009 53.215c16.109.293 25.529-23.263 12.84-25.215-11.837-3.221-23.729-2.955-35.662 0-10.86 1.67-1.96 25.754 13.835 25.306.236-5.528 8.642-5.598 8.987-.091" fill="param(fill) #84483d" /></symbol><symbol fill-rule="evenodd" stroke-linejoin="round" stroke-miterlimit="1.414" id="beard-04"><path d="M100 108c5.534-2.011 9 5.333 12 6 2.058.457 6-2 6-2-3.555 9.219-10.943 9.623-18 2-7.057 7.623-14.445 7.219-18-2 0 0 3.942 2.457 6 2 3-.667 6.466-8.011 12-6z" fill="param(fill) #84483d" /></symbol><symbol fill-rule="evenodd" stroke-linejoin="round" stroke-miterlimit="1.414" id="beard-05"></symbol><symbol fill-rule="evenodd" stroke-linejoin="round" stroke-miterlimit="1.414" id="body-01"><path d="M54.772 101.5h-.444c-5.093 0-9.228-4.135-9.228-9.228s4.135-9.227 9.228-9.227h.444c.37 0 .735.022 1.094.064C59.772 43.028 76.631 29.748 101.71 29.5c22.644-.224 38.657 14.087 42.436 53.608a9.206 9.206 0 0 1 1.082-.063h.151c5.093 0 9.227 4.134 9.227 9.227s-4.134 9.228-9.227 9.228h-.151l-.228-.003v.003c.003.857-.111 1.748-.122 2.68-.314 25.772-12.852 42.399-29.482 48.593L163 200H37l47.507-47.13c-16.693-6.039-28.802-22.43-29.48-48.661A89.82 89.82 0 0 1 55 101.5v-.003a8.61 8.61 0 0 1-.228.003z" fill="param(fill) #ffbd9d" /></symbol><symbol fill-rule="evenodd" stroke-linejoin="round" stroke-miterlimit="1.414" id="eye-01"><circle cx="80" cy="79.5" r="8" fill="#fff" /><circle cx="80" cy="79.5" r="2.5" fill="#343434" /><circle cx="120" cy="79.5" r="8" fill="#fff" /><circle cx="120" cy="79.5" r="2.5" fill="#343434" /></symbol><symbol fill-rule="evenodd" stroke-linejoin="round" stroke-miterlimit="1.414" id="eye-02"><path d="M128 77.5c-2.803 5.778-4.303 7.009-8.151 7-3.568-.008-5.28-1.349-7.849-7h3.624c-.277.379-.41.834-.41 1.32 0 1.384 1.072 2.507 2.393 2.507 1.321 0 2.393-1.123 2.393-2.507 0-.486-.133-.941-.41-1.32H128z" fill="#fff" /><path d="M119.59 77.5c.277.379.41.834.41 1.32 0 1.384-1.072 2.507-2.393 2.507-1.321 0-2.393-1.123-2.393-2.507 0-.486.133-.941.41-1.32h3.966z" fill="#343434" /><path d="M84.376 77.5H88c-2.554 5.639-4.265 6.992-7.849 7-3.865.009-5.361-1.233-8.151-7h8.41c-.277.379-.41.834-.41 1.32 0 1.384 1.072 2.507 2.393 2.507 1.321 0 2.393-1.123 2.393-2.507 0-.486-.133-.941-.41-1.32z" fill="#fff" /><path d="M84.376 77.5c.277.379.41.834.41 1.32 0 1.384-1.072 2.507-2.393 2.507-1.321 0-2.393-1.123-2.393-2.507 0-.486.133-.941.41-1.32h3.966z" fill="#343434" /></symbol><symbol fill-rule="evenodd" stroke-linejoin="round" stroke-miterlimit="1.414" id="eye-03"><circle cx="120" cy="79.5" r="8" fill="#fff" /><clipPath id="eye-03_a"><circle cx="120" cy="79.5" r="8" /></clipPath><g clip-path="url(#eye-03_a)"><circle cx="118.75" cy="81.75" r="1.25" fill="param(fill) #323232" /></g><circle cx="80" cy="79.5" r="8" fill="#fff" /><clipPath id="eye-03_b"><circle cx="80" cy="79.5" r="8" /></clipPath><g clip-path="url(#eye-03_b)"><circle cx="81.25" cy="81.75" r="1.25" fill="param(fill) #323232" /></g></symbol><symbol fill-rule="evenodd" stroke-linecap="round" stroke-linejoin="round" stroke-miterlimit="1.5" id="eye-04"><circle cx="79.5" cy="79.5" r="3.5" fill="#343434" /><path d="M113.5 83.038c3.02-2.306 6.304-3.386 10.214-3 2.378.236 2.786.5 2.786.5v1.5s-7.379-2.254-13 1z" fill="none" stroke="#333" stroke-width="1.5" /></symbol><symbol fill-rule="evenodd" stroke-linejoin="round" stroke-miterlimit="1.414" id="eye-05"><g fill="param(fill) #323232"><circle cx="79.5" cy="79.5" r="2.5" /><circle cx="120" cy="79.5" r="2.5" /></g></symbol><symbol fill-rule="evenodd" stroke-linecap="round" stroke-linejoin="round" stroke-miterlimit="1.5" id="eyebrow-01"><g fill="none" stroke="#323232" stroke-width="2.5"><path d="M70 69.5c1.399-1.113 3.197-2.513 4.773-3.364.861-.465 1.747-.905 2.685-1.183C82.587 63.437 86.295 66.222 90 69.5c-6.581-5.352-13.258-4.68-20 0M131 69.5c-1.399-1.113-3.197-2.513-4.773-3.364-.861-.465-1.747-.905-2.685-1.183-5.129-1.516-8.837 1.269-12.542 4.547 6.581-5.352 13.258-4.68 20 0" /></g></symbol><symbol fill-rule="evenodd" stroke-linecap="round" stroke-linejoin="round" stroke-miterlimit="1.5" id="eyebrow-02"><g fill="none" stroke="#323232" stroke-width="2.5"><path d="M70 68.5c6.742-4.68 13.419-5.352 20 0-.472-3.872-5.258-5.904-9.5-5.74-6.414.249-10.039 5.159-10.5 5.74" /><path d="M112 70.5c.348.288-.028.576 1.824 1.246 5.283 1.913 12.173-.667 17.176-1.246-1.769.105-3.537.21-5.308.276-2.73.101-5.46.234-8.192.224-1.308-.005-2.613-.152-3.916-.271-.531-.048-1.058-.139-1.584-.229" /></g></symbol><symbol fill-rule="evenodd" stroke-linecap="round" stroke-linejoin="round" stroke-miterlimit="1.5" id="eyebrow-03"><g fill="none" stroke="#323232" stroke-width="1.5"><path d="M132.425 73.867c-1.313-3.926-4.033-6.677-7.872-7.825-3.091-.924-6.908-.81-11.3.568 9.17-1.665 15.155 1.35 19.172 7.257zM68.253 73.867c1.313-3.926 4.033-6.677 7.872-7.825 3.091-.924 6.908-.81 11.3.568-9.17-1.665-15.155 1.35-19.172 7.257z" /></g></symbol><symbol fill-rule="evenodd" stroke-linecap="round" stroke-linejoin="round" stroke-miterlimit="1.5" id="eyebrow-04"><g fill="none" stroke="#323232" stroke-width="2"><path d="M113.253 63.444c1.313 3.926 4.033 6.677 7.872 7.825 3.091.925 6.908.81 11.3-.568-9.17 1.665-15.155-1.35-19.172-7.257zM87.425 63.444c-1.313 3.926-4.033 6.677-7.872 7.825-3.091.925-6.908.81-11.3-.568 9.17 1.665 15.155-1.35 19.172-7.257z" /></g></symbol><symbol fill-rule="evenodd" stroke-linecap="round" stroke-linejoin="round" stroke-miterlimit="1.5" id="eyebrow-05"><g fill="none" stroke="#323232" stroke-width="3"><path d="M72 69.5h16M112 69.5h16" /></g></symbol><symbol fill-rule="evenodd" stroke-linejoin="round" stroke-miterlimit="1.414" id="hair-01"><path d="M54.999 92H60V63.5c3.982-1.096 5.614-4.081 8-7 .416-.509.602-1.557 1.258-1.518 4.323.259 8.48 1.815 12.776 2.357 16.158 2.038 33.191.369 47.966-6.839.962 7.017 1.995 9.414 8 12l2 29.5h5c1.018-10.3 1.767-36.769 1.004-45.142-.44-4.823-4.624-8.993-9.087-10.259-2.539-.72-5.278-.055-7.917-.099-5.128-7.923-5.667-19.167-9-21.834-3.241-2.593-11 5.834-11 5.834-4.845-3.554-7-18-12-16.5S81.632 16.239 79 29.497C74.081 25.822 74.497 16.14 70 18c-20.676 8.553-15.525 62.145-15.001 74" fill="param(fill) #84483d" /></symbol><symbol fill-rule="evenodd" stroke-linejoin="round" stroke-miterlimit="1.414" id="hair-02"><path d="M58.999 92L59 64c13.627 8.4 31.557 2.176 44.244-4.865 5.783-3.21 10.721-8.143 16.991-10.248 2.132-.716 4.332 1.33 6.292 2.431 7.496 4.213 13.825 12.01 14.265 20.682.346 6.809.296 13.5.149 19.968L145 92c-.226-31.098 4.863-45.298-13.646-61.583-13.449-11.833-38.902-9.199-54.024-3.412-6.325 2.421-12.786 5.823-17.107 11.232C48.42 53.014 55.578 69.199 54.999 92" fill="param(fill) #84483d" /></symbol><symbol fill-rule="evenodd" stroke-linejoin="round" stroke-miterlimit="1.414" id="hair-03"><path d="M54.999 92H60c.127-7.174-1.07-34.545 5.602-39.741l68.62-.267C139.676 54.356 140.188 82.028 140 92h5V73.631c6.94-3.696 5.547-16.591-1-17.631 7.665-7.931 2.701-23.077-10-20 2.035-13.41-12.473-19.53-22-12-2.859-20.201-33.12-12.483-30.697 0C81.799 21.352 60.23 19.929 65 35c-14.907-2.102-16.609 14.461-9 21-7.856 1.638-8.669 16.381-1.001 18.843" fill="param(fill) #84483d" /></symbol><symbol fill-rule="evenodd" stroke-linejoin="round" stroke-miterlimit="1.414" id="hair-04"><g fill="param(fill) #84483d"><path d="M56 84h4c1.152-18.163 1.968-25.542 8-38 0 0-7.83 2.111-12 10-2.662 5.036 0 28 0 28zM144 84h-4c-1.152-18.163-1.968-25.542-8-38 0 0 7.83 2.111 12 10 2.662 5.036 0 28 0 28z" /></g></symbol><symbol fill-rule="evenodd" stroke-linejoin="round" stroke-miterlimit="1.414" id="hair-05"><path d="M100.074 27.624C123.463 27.569 147.837 49.144 145 92h-5c.144-28.882-12.652-46.161-28.049-51.857-1.631 12.804-21.981 12.912-23.809.163C72.866 46.166 60.126 63.403 60 92l-5.001-.501C52.66 48.66 76.723 27.816 99.851 27.625l.223-.001" fill="param(fill) #84483d" /></symbol><symbol fill-rule="evenodd" stroke-linejoin="round" stroke-miterlimit="1.414" id="hair-06"><path d="M139.85 92l-2.001-36c-4.977 3.068-11.051 11.184-16.426 15.593-1.924 1.578-3.76 2.681-5.423 2.907-6.308.856-9.607-9.817-16-13.365-1.154-.64 3.387 11.046 0 10.365-4.504-.905-16.366-20.928-21.386-22.613-2.131-.716-5.327.4-6.292 2.431-1.755 3.698-4.337 9.703-6.715 13.15-2.018 2.926-6.493 4.056-7.55 7.532-1.984 6.523-.295 13.5-.148 19.968l-4.06.032c.226-31.098-4.862-45.298 13.646-61.583 13.45-11.833 38.903-9.199 54.024-3.412 6.325 2.421 12.786 5.823 17.107 11.232 11.804 14.777 5.795 31.46 6.374 54.262" fill="param(fill) #84483d" /></symbol><symbol fill-rule="evenodd" stroke-linejoin="round" stroke-miterlimit="1.414" id="hair-07"><g fill="param(fill) #84483d"><path d="M56 60c15.055-45.073 76.304-47.482 88 0H56zM56 84h4l4-24h-8v24zM144 84h-4l-4-24h8v24z" /></g></symbol><symbol fill-rule="evenodd" stroke-linejoin="round" stroke-miterlimit="1.414" id="hair-08"><path d="M100 48C89.633 59.958 77.353 64.157 64 64l-5.394 28.272C55.205 98.269 53.712 91.729 52 84c-11.439-13.36-6.777-49.96 16-48 25.403-58.764 103.531 2.938 80 48-2.864 9.998-2.122 13.98-6 8.499L136 64c-13.649.653-26.393-1.982-36-16z" fill="param(fill) #84483d" /></symbol><symbol fill-rule="evenodd" stroke-linejoin="round" stroke-miterlimit="1.414" id="hair-09"></symbol><symbol fill-rule="evenodd" stroke-linejoin="round" stroke-miterlimit="1.414" id="mouth-01"><path d="M109.24 124.091c3.107 2.204 5.089 5.577 5.145 9.37.103 6.93-6.428 1.352-14.367 1.469-7.94.118-14.301 5.888-14.404-1.042-.057-3.897 1.93-7.412 5.127-9.714a44.49 44.49 0 0 0 9.843.934c3.529-.066 6.402-.474 8.656-1.017z" /><path d="M90.741 124.174c2.425-1.879 5.598-3.003 9.072-3.055 3.594-.053 6.899 1.051 9.427 2.972-2.254.543-5.127.951-8.656 1.017a44.49 44.49 0 0 1-9.843-.934z" fill="#fff" /></symbol><symbol fill-rule="evenodd" stroke-linecap="round" stroke-linejoin="round" stroke-miterlimit="1.5" id="mouth-02"><g fill="none" stroke="#000" stroke-width="1.5"><path d="M86.564 125.88c4.76 6.883 12.723 11.741 19.809 7.379 2.895-1.781 5.06-4.599 7.027-7.777M112.193 124c1.408.223 2.312 1.079 2.8 2.459M87.725 124.363c-1.399.265-2.278 1.147-2.725 2.54" /></g></symbol><symbol fill-rule="evenodd" stroke-linecap="round" stroke-linejoin="round" stroke-miterlimit="1.5" id="mouth-03"><g fill="none" stroke="#000" stroke-width="1.5"><path d="M115.807 123.975c-12.05 10.673-20.563 7.472-20.563 7.472s-.293.321-.191.365c8.338 3.591 14.26-2.086 20.754-7.837zM114.339 123.532c.989-.382 1.747-.246 2.311.317" /></g></symbol><symbol fill-rule="evenodd" stroke-linejoin="round" stroke-miterlimit="1.414" id="mouth-04"><path d="M88.925 122.643l-.147 1.936s4.661 2.265 10.774 2.289c5.039.019 8.34-1.18 9.878-2.115.275-.168.257-.863.257-.863l.084-1.099 9.526.068c-10.186 9.415-23.367 16.176-38.883-.276l8.511.06z" /><path d="M88.925 122.643l20.846.148-.084 1.099s.018.695-.257.863c-1.538.935-4.839 2.134-9.878 2.115-6.113-.024-10.774-2.289-10.774-2.289l.147-1.936z" fill="#fff" /></symbol><symbol fill-rule="evenodd" stroke-linejoin="round" stroke-miterlimit="1.414" id="mouth-05"><path d="M89.585 134.127c2.63-.647 6.199-1.07 10.152-1.134 3.948-.058 7.541.259 10.186.83-2.603 2.227-6.17 3.611-10.118 3.67-3.948.058-7.555-1.219-10.22-3.366z" fill="#c83d3a" /><path d="M114.293 124.298l.034.421c.053 3.56-1.638 6.801-4.404 9.104-2.645-.571-6.238-.888-10.186-.83-3.953.064-7.522.487-10.156 1.132-2.809-2.203-4.59-5.36-4.667-8.912.455.158 7.135 2.424 15.469 2.27 7.107-.131 11.611-1.593 13.663-2.703.161-.087.23-.287.247-.482z" /><path d="M84.914 125.213l-.004-.058c-.103-6.906 6.526-1.39 14.689-1.473 7.947-.118 14.35-5.651 14.694.616-.017.195-.086.395-.247.482-2.052 1.11-6.556 2.572-13.663 2.703-8.334.154-15.014-2.112-15.469-2.27z" fill="#fff" /></symbol><symbol fill-rule="evenodd" stroke-linejoin="round" stroke-miterlimit="1.414" id="nose-01"><path d="M100 93.5l5.5 11h-11l5.5-11z" fill="#343434" fill-opacity=".25" /></symbol><symbol fill-rule="evenodd" stroke-linejoin="round" stroke-miterlimit="1.414" id="nose-02"><path d="M100 104.5l5.5-11h-11l5.5 11z" fill="#343434" fill-opacity=".25" /></symbol><symbol fill-rule="evenodd" stroke-linecap="round" stroke-linejoin="round" stroke-miterlimit="1.5" id="nose-03"><path d="M93.5 102.515c4.39 1.797 8.735 2.154 13 0" fill="none" stroke="#343434" stroke-opacity=".25" stroke-width="2" /></symbol><symbol fill-rule="evenodd" stroke-linecap="round" stroke-linejoin="round" stroke-miterlimit="1.5" id="nose-04"><path d="M100.242 96.5c-3.007 2.784-3.604 5.538 0 8.242" fill="none" stroke="#343434" stroke-opacity=".25" stroke-width="2" /></symbol><symbol fill-rule="evenodd" stroke-linejoin="round" stroke-miterlimit="1.414" id="nose-05"><circle cx="100" cy="99.5" r="5" fill="#343434" fill-opacity=".25" /></symbol></defs></svg>