<svg id="" xmlns="http://www.w3.org/2000/svg" xmlns:xlink="http://www.w3.org/1999/xlink"><defs><symbol fill-rule="evenodd" stroke-linejoin="round" stroke-miterlimit="1.414" id="body-01"><path d="M249.376 300H50.624C53.388 223.508 68.408 85 150 85c81.592 0 96.611 138.508 99.376 215z" fill="param(fill) #3776fd" /></symbol><symbol fill-rule="evenodd" stroke-linejoin="round" stroke-miterlimit="1.414" id="body-02"><path d="M166.246 83.216c1.841-.672 3.752-1.108 5.658-1.222 10.625-.638 14.031 1.454 25.466.912 1.041.874-.593 4.22-5.348 8.36 4.158-.816 8.59-.829 12.561.353 12.078 3.592 15.02 7.298 27.96 11.325.701 1.216-1.625 3.7-6.854 6.094 7.654 5.374 18.067 11.549 18.674 13.216.411 1.13-3.713 4.104-9.856 6.162.345.118.692.24 1.04.367 10.593 3.856 17.137 12.002 16.544 14.224-.3 1.128-3.186 2.171-7.34 2.422.68 1.014 1.286 2.215 1.796 3.625 4.38 12.113 9.918 15.577 8.544 17.49-.838 1.167-4.813 1.26-9.494-.278 1.255 1.558 2.303 3.46 3.018 5.745 3.763 12.025 8.356 20.186 6.362 22.133-1.069 1.044-4.79.623-9.164-1.364a54.018 54.018 0 0 1 4.688 6.869c6.903 11.956 5.611 25.338 2.877 27.204-1.44.983-5.58-.215-10.186-3.314.167.713.316 1.442.447 2.186 1.726 9.789-2.443 18.525-4.753 19.114-.937.24-2.64-.793-4.45-2.758a37.69 37.69 0 0 1 .184 3.756c0 7.642-3.466 13.699-4.93 13.837-.4.038-.948-.405-1.534-1.224-.079.63-.175 1.27-.29 1.919-1.023 5.805-3.914 10.323-5.856 12.031a909.17 909.17 0 0 1-6.296 27.6H87.8a910.907 910.907 0 0 1-6.187-27.084c-1.638-1.866-3.856-6.965-3.856-13.079 0-.686.018-1.36.052-2.019-1.633 2.838-3.4 4.511-4.195 4.292-1.419-.39-3.78-6.957-2.454-14.483.128-.725.274-1.433.435-2.12-1.994 2.335-3.934 3.594-4.959 3.332-2.31-.589-6.479-9.325-4.753-19.114.175-.996.384-1.966.622-2.904-3.74 2.131-6.903 2.865-8.123 2.032-2.735-1.866-4.027-15.248 2.876-27.204.25-.433.504-.86.762-1.281-4.744 2.337-8.896 2.889-10.035 1.776-1.83-1.786 1.886-8.804 5.418-19.238-3.638.836-6.505.609-7.202-.362-1.109-1.544 2.283-4.097 5.936-11.39-3.563.938-6.242.878-6.86-.008-1.317-1.885 2.045-11.779 10.681-19.025.548-.46 1.098-.903 1.65-1.33-5.579-1.056-9.413-3.007-9.222-4.093.27-1.527 7.317-7.745 13.498-13.709-6.465-1.454-9.662-3.714-9.144-5.135 10.083-5.202 13.304-8.965 20.701-13.359-5.03-1.23-7.502-3.035-7.083-4.187 10.174-5.249 12.078-8.763 21.6-13.524 3.143-1.572 6.85-2.21 10.441-2.135-3.956-3.986-5.182-7.069-4.218-7.744 9.513 1.288 12.511-.21 21.34 1.099.31.046.62.102.927.168-4.02-3.96-6.334-8.263-5.394-8.806 6.843 1.544 9.121.644 15.464 2.16.532.127 1.057.296 1.572.502-2.856-5.111-3.78-10.537-2.708-10.726 5.27 3.385 7.456 3.326 12.317 6.535.348.23.683.485 1.004.76 3.508-6.405 6.32-8.404 10.347-16.213 1.581-.575 4.544 7.459 4.627 16.514v.428c4.604-2.402 8.017-3.279 14.203-7.252 1.271.225.711 5.251-1.634 11.142z" fill="param(fill) #3776fd" /></symbol><symbol fill-rule="evenodd" stroke-linejoin="round" stroke-miterlimit="1.414" id="body-03"><path d="M245.665 246.892c2.063 19.156 3.144 37.434 3.711 53.108H50.624c.455-12.614 1.245-26.914 2.611-42.002-.89.89-1.447 1.224-1.669 1.002-1-1 4-18 3-17s-4 8-3 1c.621-4.346 2.976-13.607 7.067-27.783a457.764 457.764 0 0 1 1.815-10.195L60.43 205c-.864-1-3.864 4-4.864 4-.597 0 2.812-9.346 10.226-28.037 6.706-25.996 16.26-49.967 29.871-67.449-1.664.341-3.189.852-3.097.486.182-.727 2-1 5-4 1.203-1.203 2.566-2.245 3.704-3.062a87.196 87.196 0 0 1 1.838-1.902c-1.404.169-4.426.848-3.542-.036.94-.939 3.642-.996 7.281-3.485C118.624 91.127 132.84 85 150 85c35.53 0 58.436 26.265 73.204 62.236C232.946 167.745 237.5 178 236.865 178c-1 0-3.136-4-4-3-.072.084-.12.217-.145.401.956 3.45 1.86 6.942 2.714 10.466l.23.666c4.801 16.311 7.535 26.8 8.201 31.467.955 6.683-.825 2.428-1.858 1.159.424 2.677.825 5.353 1.205 8.024 1.72 8.359 4.286 20.185 3.653 20.817-.14.142-.54-.228-1.2-1.108z" fill="param(fill) #3776fd" /></symbol><symbol fill-rule="evenodd" stroke-linejoin="round" stroke-miterlimit="1.414" id="ear-01"><path d="M83.687 151.915c1.092.173 2.941 1.162 2.421 3.337-.346 1.45-1.424 2.734-3.233 3.854-5.333 2.229-9.502 6.166-12.507 11.81-4.507 8.466-7.935 15.646-21.022 20.41-13.086 4.764-32.549-7.631-30.727-11.35 1.823-3.719 4.108-1.801 12.971-6.173 8.862-4.372 8.929-12.189 20.491-18.231 11.563-6.043 20.089-5.489 31.606-3.657zM216.392 151.916c11.517-1.832 20.043-2.386 31.605 3.657 11.563 6.042 11.629 13.859 20.492 18.231 8.862 4.372 11.148 2.454 12.97 6.173 1.823 3.719-17.64 16.115-30.727 11.351-13.086-4.764-16.514-11.945-21.021-20.411-3.005-5.644-7.174-9.581-12.507-11.81-1.81-1.12-2.888-2.404-3.234-3.854-.519-2.175 1.329-3.164 2.422-3.337z" fill="param(fill) #3776fd" /><path d="M30.75 174.254c.311-.145.631-.299.96-.461 8.862-4.372 8.929-12.189 20.491-18.231 9.158-4.786 16.411-5.434 24.753-4.587-5.44-.261-10.587.271-15.441 1.594-3.119.851-12 4-18 11-5.131 5.986-9.385 9.547-12.763 10.685zm52.136-15.175l-.011.007c-5.333 2.23-9.502 6.167-12.507 11.811-4.507 8.466-7.935 15.646-21.022 20.41-13.086 4.764-32.549-7.631-30.727-11.35.231-.471.47-.852.728-1.167 3.247-3.778 14.205.209 21.353 1 7.167.792 15.497-1.356 27.956-13.093 8.307-7.825 13.053-10.37 14.239-7.634l-.009.016zM269.225 174.265c-3.378-1.138-7.633-4.699-12.763-10.685-6-7-14.881-10.149-18-11-4.854-1.323-10.002-1.855-15.442-1.594 8.343-.847 15.596-.199 24.753 4.587 11.563 6.042 11.629 13.859 20.492 18.231.329.162.648.316.96.461zm-52.137-15.175l-.008-.016c1.186-2.736 5.932-.191 14.238 7.634 12.46 11.737 20.789 13.885 27.957 13.093 7.148-.791 18.105-4.778 21.353-1 .258.315.496.696.727 1.167 1.823 3.719-17.64 16.114-30.727 11.35-13.086-4.764-16.514-11.944-21.021-20.41-3.005-5.644-7.174-9.581-12.507-11.811l-.012-.007z" fill="#0d0d0d" fill-opacity=".2" /></symbol><symbol fill-rule="evenodd" stroke-linejoin="round" stroke-miterlimit="1.414" id="ear-02"><path d="M70.352 181.899c-5.048-.644-10.076-3.982-13.152-9.311-4.793-8.301-3.034-18.29 3.928-22.31 5.957-3.439 13.793-1.395 18.934 4.467-5.329 6.342-8.981 16.056-9.71 27.154zM229.21 182.294c-.728-11.099-4.381-20.813-9.71-27.154 5.141-5.862 12.977-7.906 18.934-4.467 6.963 4.02 8.721 14.008 3.929 22.31-3.077 5.328-8.105 8.667-13.153 9.311z" fill="param(fill) #3776fd" /><path d="M75.845 178.02c-5.424 3.131-12.848.427-16.582-6.04s-2.363-14.249 3.061-17.38c5.424-3.132 12.848-.428 16.582 6.039 3.733 6.468 2.363 14.249-3.061 17.381zM224.004 177.723c-5.424-3.131-6.795-10.913-3.061-17.38 3.734-6.467 11.158-9.171 16.582-6.039 5.424 3.131 6.794 10.913 3.061 17.38-3.734 6.467-11.158 9.171-16.582 6.039z" fill="#0d0d0d" fill-opacity=".2" /></symbol><symbol fill-rule="evenodd" stroke-linejoin="round" stroke-miterlimit="1.414" id="ear-03"><path d="M53.863 162.069c-3.406-1.967-3.347-8.447.133-14.475 3.48-6.027 9.063-9.319 12.47-7.352 1.972 1.139 3.352 5.912 7.474 11.673 2.996 4.188 9.813 9.111 7.809 12.505-1.936 3.28-10.187-.89-14.97-1.527-6.973-.929-10.895.343-12.916-.824zm195.196-.509c-2.021 1.166-5.943-.105-12.916.823-4.783.637-13.034 4.807-14.97 1.527-2.004-3.393 4.814-8.316 7.81-12.504 4.121-5.762 5.501-10.535 7.474-11.674 3.407-1.967 8.989 1.325 12.469 7.353 3.48 6.027 3.54 12.508.133 14.475z" fill="param(fill) #3776fd" /><path d="M54.845 158.591c-2.097-1.21-1.711-5.803.861-10.258 2.572-4.455 6.357-7.085 8.453-5.875 2.097 1.211 1.711 5.803-.861 10.259-2.572 4.455-6.357 7.085-8.453 5.874zM247.617 158.159c-2.096 1.21-5.881-1.42-8.453-5.875-2.572-4.455-2.958-9.048-.861-10.259 2.096-1.21 5.881 1.42 8.453 5.875 2.572 4.455 2.958 9.048.861 10.259z" fill="#0d0d0d" fill-opacity=".2" /></symbol><symbol fill-rule="evenodd" stroke-linejoin="round" stroke-miterlimit="1.414" id="ear-04"><path d="M78.706 161.337c-6.218 3.59-22.17-12.397-25.76-18.615-3.588-6.217-3.458-17.632 2.76-21.222s16.168 2.005 19.758 8.222c3.59 6.218 9.46 28.025 3.242 31.615zM221.295 160.964c-6.218-3.59-.348-25.397 3.242-31.615 3.589-6.217 13.54-11.812 19.758-8.222s6.348 15.005 2.758 21.222c-3.59 6.218-19.54 22.205-25.758 18.615z" fill="param(fill) #3776fd" /><path d="M78.41 161.337c-4.742 3.337-21.67-13.119-25.26-19.337s-3.958-16.91 2.26-20.5c6.217-3.59 13.775 8.945 15.758 13.222C73.15 139 76.15 146 78.41 161.337zM221.568 161.475c2.258-15.337 5.258-22.337 7.242-26.614 1.983-4.278 9.54-16.813 15.758-13.223 6.218 3.59 5.848 14.282 2.258 20.5s-20.516 22.675-25.258 19.337z" fill="#0d0d0d" fill-opacity=".2" /></symbol><symbol fill-rule="evenodd" stroke-linejoin="round" stroke-miterlimit="1.414" id="eye-01"><g transform="translate(93 146.192)"><circle cx="96" cy="18" r="18" fill="#fff" /><circle cx="96" cy="18" r="5" fill="#4a4a4a" /><circle cx="18" cy="18" r="18" fill="#fff" /><circle cx="18" cy="18" r="5" fill="#4a4a4a" /></g></symbol><symbol fill-rule="evenodd" stroke-linejoin="round" stroke-miterlimit="1.414" id="eye-02"><g transform="translate(93 143.692)"><path d="M96 41c-9.941 0-18-8.059-18-18S81.034 0 96 0c14.966 0 18 13.059 18 23s-8.059 18-18 18zm-78 0C8.059 41 0 32.941 0 23S3.034 0 18 0c14.966 0 18 13.059 18 23s-8.059 18-18 18z" fill="#4a4a4a" fill-opacity=".298" /><ellipse cx="96" cy="23" rx="24" ry="8" fill="#fff" /><ellipse cx="18" cy="23" rx="24" ry="8" fill="#fff" /><circle cx="96" cy="23" r="6" fill="#4a4a4a" /><circle cx="18" cy="23" r="6" fill="#4a4a4a" /></g></symbol><symbol fill-rule="evenodd" stroke-linejoin="round" stroke-miterlimit="1.414" id="eye-03"><path d="M136.817 146.962c3.841-2.96 9.237-4.462 13.462-4.462 4.042 0 9.155 1.374 12.952 4.084C164.897 134.393 175.352 125 188 125c13.807 0 25 11.193 25 25s-11.193 25-25 25c-13.751 0-24.909-11.102-24.999-24.832-3.313-3.132-8.786-4.668-12.722-4.668-4.17 0-10.067 1.724-13.29 5.246C136.594 164.208 125.557 175 112 175c-13.807 0-25-11.193-25-25s11.193-25 25-25c12.779 0 23.318 9.588 24.817 21.962zM188 173c12.703 0 23-10.297 23-23s-10.297-23-23-23-23 10.297-23 23 10.297 23 23 23zm-76 0c12.703 0 23-10.297 23-23s-10.297-23-23-23-23 10.297-23 23 10.297 23 23 23z" fill-rule="nonzero" /><path d="M188 173c-12.703 0-23-10.297-23-23s10.297-23 23-23 23 10.297 23 23-10.297 23-23 23zm-76 0c-12.703 0-23-10.297-23-23s10.297-23 23-23 23 10.297 23 23-10.297 23-23 23z" fill-opacity=".95" /></symbol><symbol fill-rule="evenodd" stroke-linejoin="round" stroke-miterlimit="1.414" id="eye-04"><path d="M182 150h20a8 8 0 0 1 0 16h-20a8 8 0 0 1 0-16zm-42 0h20a8 8 0 0 1 0 16h-20a8 8 0 0 1 0-16zm-42 0h20a8 8 0 0 1 0 16H98a8 8 0 0 1 0-16z" fill="#fff" /><path d="M192 164a6 6 0 1 1 0-12 6 6 0 0 1 0 12zm-42 0a6 6 0 1 1 0-12 6 6 0 0 1 0 12zm-42 0a6 6 0 1 1 0-12 6 6 0 0 1 0 12z" fill="#4a4a4a" /></symbol><symbol fill-rule="evenodd" stroke-linejoin="round" stroke-miterlimit="1.414" id="eye-05"><path d="M189.008 150c9.94 0 15 7 18 14.106.52 1.234 1 1.894-.075 1.887-1.075-.006-2.824-11.858-17.925-11.858-14.753 0-17 11.865-18 11.865s-.326-1.012 0-1.894c3-8.106 8.059-14.106 18-14.106zm-78.06 0c9.94 0 15 7 18 14.106.52 1.234 1 1.894-.075 1.887-1.075-.006-2.824-11.858-17.925-11.858-14.753 0-17 11.865-18 11.865s-.326-1.012 0-1.894c3-8.106 8.059-14.106 18-14.106z" /></symbol><symbol fill-rule="evenodd" stroke-linejoin="round" stroke-miterlimit="1.414" id="eye-06"><g><path d="M193.274 159.079c14.69-1.947 20.58-1.815 17.676.343-4.855 3.607-13.69 9.074-21 10.799-7.31 1.725-15.858-1.82-20-4-2.47-1.3 2.056-3.161 13.579-5.531a5.717 5.717 0 0 0-.58 2.531c0 3.311 2.69 6 6 6 3.312 0 6-2.689 6-6 0-1.61-.635-3.074-1.675-4.142z" fill="#fff" /><path d="M193.274 159.079a5.918 5.918 0 0 1 1.676 4.142c0 3.311-2.69 6-6 6-3.311 0-6-2.689-6-6 0-.902.2-1.758.579-2.531l4.374-.935 5.37-.676z" fill="#4a4a4a" /></g><g><path d="M116.37 160.69c11.524 2.37 16.049 4.231 13.58 5.531-4.142 2.18-12.69 5.725-20 4-7.31-1.725-16.145-7.192-21-10.799-2.905-2.158 2.986-2.29 17.676-.343a5.918 5.918 0 0 0-1.676 4.142c0 3.311 2.689 6 6 6 3.31 0 6-2.689 6-6 0-.902-.2-1.758-.58-2.531z" fill="#fff" /><path d="M111.997 159.755l4.374.935c.379.773.579 1.629.579 2.531 0 3.311-2.69 6-6 6-3.311 0-6-2.689-6-6 0-1.61.636-3.074 1.676-4.142l5.37.676z" fill="#4a4a4a" /></g></symbol><symbol fill-rule="evenodd" stroke-linejoin="round" stroke-miterlimit="1.414" id="eye-07"><path d="M189 182.192c-9.941 0-18-8.059-18-18 0-9.94 8.059-18 18-18s18 8.06 18 18c0 9.941-8.059 18-18 18zm-78 0c-9.941 0-18-8.059-18-18 0-9.94 8.059-18 18-18s18 8.06 18 18c0 9.941-8.059 18-18 18z" fill="#fff" /><path d="M198.849 167.142l-9.899 9.9-9.9-9.9a7 7 0 1 1 9.9-9.9 7 7 0 0 1 9.899 9.9zm-78 0l-9.899 9.9-9.9-9.9a7 7 0 1 1 9.9-9.9 7 7 0 0 1 9.899 9.9z" fill="#ff6f81" /></symbol><symbol fill-rule="evenodd" stroke-linejoin="round" stroke-miterlimit="1.414" id="eye-08"><path d="M199.071 164.192l5.657 5.657a5 5 0 0 1 0 7.071 5 5 0 0 1-7.071 0L192 171.263l-5.657 5.657a5 5 0 0 1-7.071 0 5 5 0 0 1 0-7.071l5.657-5.657-5.657-5.657a5 5 0 0 1 0-7.071 5 5 0 0 1 7.071 0l5.657 5.657 5.657-5.657a5 5 0 0 1 7.071 0 5 5 0 0 1 0 7.071l-5.657 5.657zm-42 0l5.657 5.657a5 5 0 0 1 0 7.071 5 5 0 0 1-7.071 0L150 171.263l-5.657 5.657a5 5 0 0 1-7.071 0 5 5 0 0 1 0-7.071l5.657-5.657-5.657-5.657a5 5 0 0 1 0-7.071 5 5 0 0 1 7.071 0l5.657 5.657 5.657-5.657a5 5 0 0 1 7.071 0 5 5 0 0 1 0 7.071l-5.657 5.657zm-42 0l5.657 5.657a5 5 0 0 1 0 7.071 5 5 0 0 1-7.071 0L108 171.263l-5.657 5.657a5 5 0 0 1-7.071 0 5 5 0 0 1 0-7.071l5.657-5.657-5.657-5.657a5 5 0 0 1 0-7.071 5 5 0 0 1 7.071 0l5.657 5.657 5.657-5.657a5 5 0 0 1 7.071 0 5 5 0 0 1 0 7.071l-5.657 5.657z" fill="#333" fill-opacity=".702" /></symbol><symbol fill-rule="evenodd" stroke-linejoin="round" stroke-miterlimit="1.414" id="eye-09"><g transform="translate(92 149.763)"><path d="M100.271 27.801c-9.79 1.727-19.126-4.81-20.852-14.601-1.727-9.79 6.547-9.277 16.337-11.004 9.79-1.726 17.389-5.037 19.116 4.753 1.726 9.79-4.811 19.126-14.601 20.852zm-84.542 0C5.939 26.075-.598 16.739 1.128 6.949 2.855-2.841 10.454.47 20.244 2.196 30.034 3.923 38.308 3.41 36.581 13.2c-1.726 9.791-11.062 16.328-20.852 14.601z" fill="#fff" /><circle cx="97" cy="12" r="6" fill="#4a4a4a" /><circle cx="19" cy="12" r="6" fill="#4a4a4a" /><path d="M21.275-16.156c2.326 0 16.087.58 23.258 5.427.969.58 2.519.194 3.682.194H67.79c1.357 0 3.101.193 4.264-.582 11.435-6.59 23.646-4.651 35.662-3.295 7.946.776 15.699 2.908 23.451 4.07 3.683.582 6.396 1.939 6.784 5.62.388 3.49-1.551 5.815-4.845 6.784-3.877 1.357-5.427 4.264-5.621 8.14-.194 3.877-.194 7.753-.775 11.436-1.357 10.078-6.59 17.249-16.862 19.575-5.814 1.357-12.016 1.938-17.831 1.357-14.342-1.551-21.513-9.497-24.227-25.39-.581-2.907-.775-5.814-1.356-8.528-.969-4.458-3.683-6.977-8.528-7.171-4.845 0-7.559 2.52-8.722 6.977-.775 3.489-1.163 6.978-1.744 10.466-4.264 20.35-15.699 25.39-34.886 23.452C-4.696 40.63-11.673 31.91-11.479 14.66c0-6.008-.776-11.047-7.559-13.373-1.551-.581-3.295-4.07-2.907-5.814.387-1.938 2.713-4.652 4.651-5.04C-10.898-11.116-4.89-12.86 1.7-13.83c6.396-1.163 17.249-2.326 19.575-2.326zM20.5-9.18c-4.264.194-8.14.388-12.017.969C-1.982-6.078-6.828-.457-7.215 10.009c0 2.132.581 4.07.581 6.202 0 16.862 20.157 26.165 34.886 18.412C39.106 29.003 46.471 13.11 43.37 1.287c-1.357-5.04-4.845-8.334-10.078-9.497-4.264-.581-8.722-.775-12.792-.97zm74.037.194c-2.52 0-5.233-.194-7.753 0C77.675-8.403 71.861-3.946 71.473 4c-.775 10.078 2.132 19.575 9.691 26.746 5.426 5.233 12.21 6.977 19.769 6.008 17.055-2.326 23.839-13.567 20.35-33.142-.969-5.427-4.845-9.303-10.078-10.66-5.621-1.356-11.241-1.55-16.668-1.938z" fill-opacity=".6" /></g></symbol><symbol fill-rule="evenodd" stroke-linejoin="round" stroke-miterlimit="1.414" id="eyebrow-01"><path d="M95.285 143.43l-4-4.499a1.13 1.13 0 0 1 .094-1.594c5.281-4.694 11.778-7.065 19.304-7.065 7.46 0 14.141 2.325 19.893 6.927.487.389.566 1.1.177 1.586l-3.761 4.701a1.13 1.13 0 0 1-1.587.177c-4.281-3.425-9.138-5.114-14.722-5.114-5.517 0-10.057 1.643-13.805 4.975a1.128 1.128 0 0 1-1.593-.094zm78 0l-4-4.499a1.13 1.13 0 0 1 .094-1.594c5.281-4.694 11.778-7.065 19.304-7.065 7.46 0 14.141 2.325 19.893 6.927.487.389.566 1.1.177 1.586l-3.761 4.701a1.13 1.13 0 0 1-1.587.177c-4.281-3.425-9.138-5.114-14.722-5.114-5.517 0-10.057 1.643-13.805 4.975a1.128 1.128 0 0 1-1.593-.094z" fill-opacity=".2" fill-rule="nonzero" /></symbol><symbol fill-rule="evenodd" stroke-linejoin="round" stroke-miterlimit="1.414" id="eyebrow-02"><path d="M182.433 145.786c-10.877 1.918-20.395-.495-21.258-5.39-.864-4.895 7.254-10.418 18.132-12.336 10.879-1.918 20.397.495 21.26 5.39.862 4.895-7.256 10.418-18.134 12.336zm-64.867.337c-10.878-1.919-18.996-7.442-18.133-12.337.863-4.895 10.381-7.308 21.26-5.39 10.877 1.918 18.995 7.441 18.132 12.336-.863 4.895-10.38 7.31-21.259 5.391z" fill-opacity=".2" /></symbol><symbol fill-rule="evenodd" stroke-linejoin="round" stroke-miterlimit="1.414" id="eyebrow-03"><path d="M172.567 140.197a5 5 0 1 1 1.736-9.848c2.72.479 36.896 5.615 34.585 11.175-22.689-3.579-33.602-.848-36.321-1.327zm-45.389.35c-2.719.48-13.632-2.252-36.321 1.328-2.311-5.56 31.865-10.696 34.585-11.176a5 5 0 0 1 1.736 9.848z" fill-opacity=".2" /></symbol><symbol fill-rule="evenodd" stroke-linejoin="round" stroke-miterlimit="1.414" id="eyebrow-04"><path d="M147.61 131.6c0-.884.895-1.6 2-1.6s2 .716 2 1.6v16.8c0 .884-.895 1.6-2 1.6s-2-.716-2-1.6v-16.8zm-7.73-1.479c.13-.74 1.118-1.184 2.206-.992 1.088.192 1.864.947 1.733 1.687l-2.48 14.063c-.13.74-1.117 1.184-2.205.992-1.088-.192-1.864-.947-1.733-1.687l2.479-14.063zm16.52.695c-.13-.74.646-1.495 1.734-1.687 1.088-.192 2.075.252 2.206.992l2.479 14.063c.13.74-.645 1.495-1.733 1.687-1.088.192-2.075-.252-2.206-.992l-2.48-14.063zm11.994.048c2.72-.48 36.76-4.384 39.649-1.987 1.44.806 3.345 3.998.44 5.638-8.752 4.942-32.983 9.178-35.025 9.538-2.72.479-4.335-1.323-6.064-5.189-1.728-3.867-1.72-7.521 1-8zm-36.178-.105c2.719.479 2.729 4.133 1 8-1.73 3.866-3.344 5.668-6.064 5.189-2.041-.36-26.273-4.595-35.024-9.537-2.906-1.641-1-4.833.44-5.638 2.887-2.398 36.929 1.506 39.648 1.986z" fill-opacity=".2" fill-rule="nonzero" /></symbol><symbol fill-rule="evenodd" stroke-linejoin="round" stroke-miterlimit="1.414" id="eyebrow-05"><path d="M107.41 137.667c-5.19 1.889-10.086 1.527-10.936-.808-.85-2.336 2.668-5.76 7.858-7.649 5.19-1.889 10.086-1.527 10.936.808.85 2.336-2.668 5.76-7.858 7.649zm85.18.336c-5.19-1.888-8.707-5.313-7.857-7.648.85-2.336 5.746-2.698 10.936-.809 5.19 1.889 8.708 5.314 7.858 7.649-.85 2.335-5.746 2.697-10.936.808z" fill-opacity=".2" /></symbol><symbol fill-rule="evenodd" stroke-linejoin="round" stroke-miterlimit="1.414" id="horn-01"><path d="M190.197 103.856c1.618-2.312 14.595-4.232 35.31-21.458 9.298-7.732 12.714-20.085 5.221-33.885-3.535-6.51-9.878-12.68-19.03-18.513 25.913 4.908 40.837 18.524 44.773 40.846 3.936 22.322-9.91 41.688-41.543 58.096-7.794-.008-13.954-2.307-18.478-6.896-6.786-6.883-7.876-15.873-6.253-18.19zm-80.394 0c1.623 2.317.533 11.307-6.253 18.19-4.525 4.589-10.684 6.888-18.479 6.896-31.63-16.408-45.478-35.774-41.542-58.096C47.465 48.524 62.39 34.908 88.302 30c-9.152 5.833-15.496 12.004-19.03 18.513-7.494 13.8-4.078 26.153 5.221 33.885 20.715 17.226 33.691 19.146 35.31 21.458z" fill="param(fill) #402740" /></symbol><symbol fill-rule="evenodd" stroke-linejoin="round" stroke-miterlimit="1.414" id="horn-02"><path d="M113.195 103.856c1.622 2.317.532 11.307-6.254 18.19-4.524 4.589-10.684 6.888-18.478 6.896-22.71-9.42-33.467-25.194-32.273-47.323 1.791-33.193 4.574-14.425 21.694.779 20.127 17.874 33.692 19.146 35.311 21.458zm73.61-.185c1.618-2.312 15.183-3.583 35.31-21.458 17.12-15.203 19.903-33.972 21.694-.78 1.194 22.13-9.563 37.905-32.273 47.324-7.794-.008-13.954-2.307-18.478-6.896-6.786-6.883-7.876-15.873-6.254-18.19z" fill="param(fill) #402740" /></symbol><symbol fill-rule="evenodd" stroke-linejoin="round" stroke-miterlimit="1.414" id="horn-03"><path d="M109.267 106.147c1.622 2.317.533 11.307-6.254 18.19-4.524 4.59-9.468 5.748-14.832 3.477-10.042-4.478-16.473-14.074-19.294-28.787-4.232-22.07 3.009-22.825 18.304-5.912 12.18 13.468 20.457 10.72 22.076 13.032zm81.467-.05c1.618-2.312 9.895.437 22.076-13.03 15.294-16.914 22.535-16.16 18.303 5.91-2.82 14.714-9.251 24.31-19.293 28.788-5.364 2.271-10.308 1.112-14.832-3.477-6.787-6.884-7.877-15.874-6.254-18.19z" fill="param(fill) #402740" /></symbol><symbol fill-rule="evenodd" stroke-linejoin="round" stroke-miterlimit="1.414" id="horn-04"><path d="M58.352 69.592c1.84 1.695 3.655 3.784 4.939 6.217 1.855 3.515 2.629 4.42 6.374 12.435a541.85 541.85 0 0 0 3.709 7.762c3.268 6.68 5.544 8.924 8.11 11.585 6.01 6.23 14.313 8.335 22.889 11.143 1.312.43.079 3.703-.351 5.016-.43 1.312-2.768 4.254-4.08 3.824-9.343-3.059-17.323-8.007-23.905-14.829-3.034-3.145-5.838-7.792-9.324-14.914a370.768 370.768 0 0 1-2.954-6.216 524.244 524.244 0 0 0-1.764-3.744c-2.138-1.732-4.97-2.58-8.61-2.54-6.05.064-11.98-2.287-17.736-6.958a2.5 2.5 0 1 1 3.15-3.883c4.902 3.978 9.73 5.892 14.532 5.84 1.86-.02 3.6.153 5.212.52-3.341-6.479-5.461-9.342-7.924-10.869-6.524-4.045-10.632-8.11-12.257-12.35a2.5 2.5 0 0 1 4.669-1.79c1.157 3.02 4.542 6.367 10.223 9.89.484.301 1.027.655 1.606 1.06.739-4.103.528-8.012-.624-11.75a2 2 0 1 1 3.822-1.178c1.543 5.005 1.636 10.26.294 15.73zm183.297-.068c-1.342-5.469-1.25-10.723.293-15.729a2 2 0 1 1 3.823 1.178c-1.152 3.738-1.363 7.647-.625 11.751.58-.406 1.122-.76 1.607-1.06 5.68-3.523 9.066-6.872 10.222-9.89a2.5 2.5 0 1 1 4.669 1.788c-1.625 4.241-5.733 8.306-12.256 12.351-2.463 1.527-4.584 4.39-7.925 10.87 1.613-.368 3.352-.54 5.213-.52 4.802.051 9.629-1.863 14.532-5.84a2.5 2.5 0 1 1 3.15 3.882c-5.758 4.671-11.686 7.023-17.736 6.957-3.641-.039-6.472.81-8.611 2.541a601.923 601.923 0 0 0-1.764 3.745 375.179 375.179 0 0 1-2.953 6.215c-3.486 7.122-6.291 11.77-9.325 14.914-6.582 6.822-14.561 11.77-23.905 14.83-1.312.43-3.65-2.513-4.08-3.825-.43-1.313-1.663-4.586-.35-5.016 8.576-2.808 16.877-4.914 22.887-11.143 2.567-2.66 4.843-4.906 8.112-11.585.836-1.709 2.413-4.99 3.708-7.762 3.746-8.016 4.52-8.92 6.374-12.435 1.284-2.433 3.099-4.522 4.94-6.217z" fill="param(fill) #402740" fill-rule="nonzero" /></symbol><symbol fill-rule="evenodd" stroke-linejoin="round" stroke-miterlimit="1.414" id="horn-05"><path d="M154.018 73.27l.314 4.711c.322 2.486.877 3.925 1.665 4.319 1.329.664 3.908 1.329 5.783 1.7h.22v6h-24v-6h.216c1.875-.371 4.455-1.036 5.784-1.7.793-.396 1.35-1.854 1.672-4.373l.305-4.58c.01-.432.931-14.252 2.764-41.46a7 7 0 1 1 2.518 0c1.83 27.172 2.75 40.967 2.759 41.383z" fill="param(fill) #402740" /></symbol><symbol fill-rule="evenodd" stroke-linejoin="round" stroke-miterlimit="1.414" id="horn-06"><g transform="translate(18 18)"><path d="M130 39c0-10.337 5.833-18.966 15.419-25.814l1.162 1.628C137.501 21.3 133 29.337 133 39l1.25 20c.458 2 1.083 3.333 1.75 4 1.333 1.333 4 2.833 8 3.5V72h-24v-5.5c4-.667 6.667-2.167 8-3.5.573-.573 1.023-1.639 1.35-3.198L130 39z" fill="#10be97" fill-rule="nonzero" /><path d="M145.419 13.186l1.162 1.628C137.501 21.3 133 29.337 133 39l2 32h-6l1-32c0-10.337 5.833-18.966 15.419-25.814z" fill="url(#horn-06__Linear1)" fill-rule="nonzero" /><path d="M146 13c-1.657 0-3-6.343-3-8s1.343-5 3-5 3 3.343 3 5-1.343 8-3 8zm1.203.603c-1.042-1.288 3.042-6.324 4.329-7.366 1.288-1.043 4.731-2.103 5.774-.816 1.043 1.288-.71 4.436-1.998 5.479-1.287 1.042-7.062 3.99-8.105 2.703zm.263 1.215c.373-1.614 6.855-1.496 8.47-1.124 1.614.373 4.57 2.434 4.197 4.048-.373 1.615-3.932 2.171-5.547 1.799-1.614-.373-7.493-3.109-7.12-4.723zm-.844 1.048c1.489-.727 5.477 4.386 6.203 5.875.726 1.489.985 5.083-.505 5.809-1.489.726-4.161-1.69-4.888-3.179-.726-1.489-2.3-7.779-.81-8.505zm-1.244 0c1.49.726-.084 7.016-.81 8.505-.727 1.489-3.399 3.905-4.888 3.179-1.49-.726-1.231-4.32-.505-5.809.726-1.489 4.714-6.602 6.203-5.875zm-.844-1.048c.373 1.614-5.506 4.35-7.12 4.723-1.615.372-5.174-.184-5.547-1.799-.373-1.614 2.583-3.675 4.197-4.048 1.615-.372 8.097-.49 8.47 1.124zm.263-1.215c-1.043 1.287-6.818-1.661-8.105-2.703-1.288-1.043-3.041-4.191-1.998-5.479 1.043-1.287 4.486-.227 5.774.816 1.287 1.042 5.371 6.078 4.329 7.366z" fill="#fff" /><circle cx="146" cy="14.5" r="2" fill="#d6ca2e" /></g><defs></defs></symbol><linearGradient id="horn-06__Linear1" x2="1" gradientUnits="userSpaceOnUse" gradientTransform="rotate(-90 97.793 -34.966) scale(43.7402)"><stop offset="0" stop-color="#10be97" /><stop offset="1" stop-color="#10be97" /></linearGradient><symbol fill-rule="evenodd" stroke-linejoin="round" stroke-miterlimit="1.414" id="horn-07"><path d="M147.425 57c0-7.078 2.735-13.355 7.536-18.808 2.211-2.511 3.54-.918 1.535 1.569-4.055 5.033-6.07 10.772-6.07 17.239l1.25 20c.458 2 1.083 3.333 1.75 4 1.333 1.333 4 2.833 8 3.5V90h-24v-5.5c4-.667 6.667-2.167 8-3.5.573-.573 1.023-1.639 1.35-3.198l.65-20.802z" fill="#10be97" fill-rule="nonzero" /><path d="M138.879 22.002C134.952 26.977 133 32.636 133 39l2 32h-6l1-32c0-6.997 2.673-13.212 7.373-18.622 2.243-2.581 3.542-.955 1.506 1.624z" fill="url(#horn-07__Linear1)" fill-rule="nonzero" transform="translate(17.425 18)" /><path d="M165.667 48.593c5.044-.709 9.504-3.644 13.379-8.803-5.163-3.89-10.258-5.482-15.288-4.775-5.028.707-9.488 3.64-13.379 8.803 5.147 3.892 10.243 5.484 15.288 4.775z" fill="#10be97" /><path d="M158.553 31.857c0-4.877-2.188-9.496-6.564-13.857-4.376 4.376-6.564 8.995-6.564 13.857s2.188 9.481 6.564 13.857c4.376-4.361 6.564-8.98 6.564-13.857z" fill="#10be97" /><defs></defs></symbol><linearGradient id="horn-07__Linear1" x2="1" gradientUnits="userSpaceOnUse" gradientTransform="scale(35.98354) rotate(-89.32 2.72 -.962)"><stop offset="0" stop-color="#10be97" /><stop offset="1" stop-color="#10be97" /></linearGradient><symbol fill-rule="evenodd" stroke-linejoin="round" stroke-miterlimit="1.414" id="horn-08"><path d="M200.861 110.455c2.97 1.196 5 1 9-1 2.236-1.118 4.902-4.118 8-9 1.333 8 1.666 14 1 18-1.042 6.252-2.709 10.252-5 12-5.334-1.334-9-4-11-8-3-6-2-12-2-12zm-21.167-.563c3 1 6 0 7-1 1.933-1.932 3.933-7.6 6-11 2 6.667 2.333 15.667 1 21-.943 3.77-2.609 7.438-5 11-4.667-.666-7.667-3.333-9-8-2-7 0-12 0-12zm-21.96 8.726c-1.333 4.666-3.667 8.333-7 11-3.368-3.696-5.524-7.43-6.467-11.2-1.333-5.333.823-14.267 6.467-20.8 6 7.333 8.333 16.333 7 21zm-33.44-8.451s2 5 0 12c-1.334 4.667-4.334 7.333-9 8-2.392-3.562-4.058-7.23-5-11-1.334-5.333-1-12.333 1-21 2.066 5.4 4.066 9.067 6 11 1 1 4 2 7 1zm-25.155 0s1 6-2 12c-2 4-5.667 6.667-11 8-2.292-1.747-3.958-5.747-5-12-.667-4-.334-10 1-18 3.097 4.882 5.764 7.882 8 9 4 2 6.03 2.197 9 1zm51.595-21c-3.599-3-6.897-4.252-6.832-5.552.218-4.311 2.495-10.977 6.832-15.997 4.332 5.295 6.753 11.894 7.262 15.799.196 1.503-3.86 2.75-7.262 5.75z" fill="param(fill) #402740" /></symbol><symbol fill-rule="evenodd" stroke-linejoin="round" stroke-miterlimit="1.414" id="horn-09"><path d="M179.371 121.217c-3.331-4.865-.149-10.304 4.807-12.133 20.421-7.536 30.427-30.871 23.822-47.013-1.53-3.739-8.601-15.271-18.674-19.071 16.793 3.61 26.603 14.759 30.664 26.071 7.433 20.704-6.673 49.805-27.094 57.341-4.582 1.691-10.195-.331-13.525-5.195zm-58.742 0c-3.33 4.864-8.943 6.886-13.525 5.195-20.421-7.536-34.527-36.637-27.094-57.341C84.071 57.759 93.881 46.61 110.674 43 100.601 46.8 93.53 58.332 92 62.071c-6.605 16.142 3.401 39.477 23.822 47.013 4.956 1.829 8.138 7.268 4.807 12.133z" fill="param(fill) #402740" /></symbol><symbol fill-rule="evenodd" stroke-linecap="round" id="mouth-01"><path d="M113.31 259.858c-5.443-.933-9.099-6.102-8.166-11.546.933-5.443 6.102-9.099 11.546-8.166a196.855 196.855 0 0 0 33.31 2.856c11.098 0 22.2-.952 33.31-2.856 5.444-.933 10.613 2.723 11.546 8.166.933 5.444-2.723 10.613-8.166 11.546a216.729 216.729 0 0 1-36.69 3.144 216.729 216.729 0 0 1-36.69-3.144z" fill="#ffb7e6" fill-rule="nonzero" /><path d="M115 250.002c11.667 2 23.333 3 35 3 11.667 0 23.333-1 35-3" fill="none" stroke="#000" stroke-opacity=".2" /></symbol><symbol fill-rule="evenodd" stroke-linejoin="round" stroke-miterlimit="1.414" id="mouth-02"><path d="M130.213 267.719l-1.802.917c-4.77 2.783-10.893 1.172-13.676-3.6-2.783-4.77-.383-10.704 3.599-13.675 3.396-2.535 6.867-4.988 11.373-6.833l.01.09c.767 4.35 4.642 6.673 6.219 7.027 1.576.353 4.207-4.38 3.44-8.73l-.26-1.075 2.344-.291.026.258c.527 2.99 2.725 5.105 4.904 4.72 2.034-.358 3.338-2.768 3.055-5.506l.594-.023 2.379.09c-.245 2.73 1.05 5.085 3.062 5.44 2.18.384 4.376-1.73 4.904-4.721l.005-.053.9.109.626.136-.258 1.073c-.767 4.35 1.864 9.083 3.44 8.73 1.567-.352 5.406-2.648 6.218-7.023 4.332 1.802 7.612 4.154 10.43 6.582 3.548 3.056 6.382 8.906 3.599 13.676-2.783 4.77-8.906 6.382-13.677 3.599l-.477-.251.269-1.192c.815-4.623-1.478-8.892-2.463-9.065-.82-.145-3.464 2.068-4.758 5.455-3.564-2.233-8.4-3.585-13.718-3.585-5.077 0-9.716 1.233-13.24 3.3-1.3-3.488-3.992-5.751-4.821-5.605-.985.174-3.278 4.442-2.463 9.065l.217.96z" fill="#333" /><path d="M133.228 266.491c3.446-3.883 9.904-6.493 17.292-6.493 7.738 0 14.455 2.862 17.753 7.032-5.993-2.421-13.222-3.032-18.234-3.032-4.617 0-11.118.519-16.811 2.493z" fill="#ff6f81" /><path d="M156.027 241.223l4.362.531-.005.053c-.528 2.991-2.723 5.105-4.904 4.72-2.011-.354-3.307-2.709-3.062-5.439l3.609.135zM149.445 241.02c.283 2.739-1.021 5.149-3.055 5.507-2.18.385-4.377-1.73-4.904-4.72l-.026-.258 2.63-.326 5.355-.203zM161.915 241.999c3.628.644 6.715 1.591 9.4 2.779-.812 4.375-4.651 6.672-6.218 7.023-1.576.354-4.207-4.378-3.44-8.73l.258-1.072zM139.117 241.839l.259 1.075c.767 4.352-1.864 9.084-3.44 8.73-1.577-.353-5.452-2.675-6.22-7.026l-.01-.091c2.693-1.142 5.752-2.071 9.41-2.688z" fill="#fff" /><g><path d="M164.238 263.583c1.294-3.387 3.938-5.6 4.758-5.456.985.174 3.278 4.442 2.463 9.066l-.27 1.191a19.808 19.808 0 0 0-2.916-1.354c-1.032-1.304-2.397-2.48-4.035-3.447zM130.213 267.719l-.218-.961c-.815-4.623 1.479-8.892 2.464-9.066.829-.146 3.522 2.118 4.82 5.606-1.602.889-2.974 1.979-4.052 3.193a22.773 22.773 0 0 0-3.014 1.228z" fill="#fff" /></g></symbol><symbol fill-rule="evenodd" stroke-linejoin="round" stroke-miterlimit="1.414" id="mouth-03"><path d="M132.439 267.472c3.202-4.428 10.099-7.474 18.08-7.474 7.878 0 14.698 2.966 17.955 7.304-4.776 1.671-10.731 2.698-18.435 2.698-7.421 0-13.035-.953-17.6-2.528z" fill="#ff6f81" /><path d="M161.142 245.995c3.717-.69 7.435-1.83 10.525-3.633 4.77-2.783 10.894-1.172 13.677 3.599 2.783 4.77-.051 10.62-3.6 13.676-3.403 2.933-7.481 5.756-13.27 7.665-3.257-4.338-10.077-7.304-17.954-7.304-7.982 0-14.88 3.046-18.081 7.474-5.901-1.907-10.056-4.813-14.105-7.835-3.982-2.971-6.382-8.906-3.6-13.676 2.784-4.771 8.907-6.382 13.677-3.599 3.857 2.249 8.69 3.467 13.215 4.066a5.583 5.583 0 0 0-.125 2.551c.527 2.989 3.162 5.027 5.879 4.548 2.217-.391 3.808-2.335 4.013-4.695.018 2.381 1.544 4.371 3.803 4.695 2.684.385 5.385-1.729 6.034-4.72.217-.999.177-1.97-.088-2.812z" fill="#333" /><path d="M161.142 245.995c.265.842.305 1.813.088 2.812-.65 2.991-3.35 5.105-6.034 4.72-2.26-.324-3.785-2.314-3.803-4.695l.049-.481-.02-.221.09-.716.15-.478c2.816-.052 6.134-.31 9.48-.941z" fill="#fff" /><path d="M151.333 249.419c-.404 2.074-1.915 3.75-3.953 4.109-2.717.479-5.352-1.56-5.88-4.549a5.572 5.572 0 0 1 .126-2.55c3.076.43 6.001.57 8.413.57l1.231-.048.079.292.074.887-.049.39.019.312-.06.587z" fill="#fff" /></symbol><symbol fill-rule="evenodd" stroke-linejoin="round" stroke-miterlimit="1.414" id="mouth-04"><path d="M139.221 240.039a5.708 5.708 0 0 0-.24 2.942c.527 2.989 3.162 5.027 5.879 4.548.147-.026.291-.058.432-.098 1.101 1.455 2.76 2.382 4.613 2.382 1.93 0 3.648-1.004 4.746-2.563.321.133.664.227 1.025.279 2.684.385 5.385-1.729 6.034-4.72.208-.955.18-1.885-.063-2.714C169.151 240.903 175 247.269 175 255c0 4.745-2.203 8.975-5.687 11.674C167.059 261.1 159.26 257 150 257c-9.26 0-17.059 4.1-19.313 9.674C127.203 263.975 125 259.745 125 255c0-8.012 6.282-14.557 14.221-14.961z" fill="#333" /><path d="M130.687 266.674C132.941 261.1 140.74 257 150 257c9.26 0 17.059 4.1 19.313 9.674-2.501 2.083-5.722 3.307-9.313 3.326h-20c-3.539 0-6.793-1.226-9.313-3.326z" fill="#ff6f81" /><path d="M139.221 240.039L140 240h20c.553 0 1.099.03 1.647.095.243.829.271 1.759.063 2.714-.649 2.991-3.35 5.105-6.034 4.72a4.259 4.259 0 0 1-1.025-.279c-1.098 1.559-2.816 2.563-4.746 2.563-1.853 0-3.512-.927-4.613-2.382-.141.04-.285.072-.432.098-2.717.479-5.352-1.559-5.879-4.548a5.708 5.708 0 0 1 .24-2.942zM138.851 269.961l.78.039h20c.552 0 1.098-.03 1.646-.095.243-.829.271-1.759.063-2.714-.649-2.991-3.35-5.105-6.034-4.72a4.259 4.259 0 0 0-1.025.279c-1.098-1.559-2.816-2.563-4.746-2.563-1.853 0-3.512.927-4.613 2.382a4.369 4.369 0 0 0-.432-.098c-2.717-.479-5.352 1.559-5.879 4.548a5.708 5.708 0 0 0 .24 2.942z" fill="#fff" /></symbol><symbol fill-rule="evenodd" stroke-linejoin="round" stroke-miterlimit="1.414" id="mouth-05"><path d="M115.046 241.986a1 1 0 1 1 .648-1.892c11.564 3.965 23.12 5.946 34.676 5.946 11.555 0 23.112-1.981 34.676-5.946a1 1 0 1 1 .648 1.892c-11.77 4.035-23.545 6.054-35.324 6.054-11.78 0-23.555-2.019-35.324-6.054z" fill-opacity=".2" fill-rule="nonzero" /><path d="M170.97 245.981c1.869-.373 3.738-.798 5.607-1.273-.088 3.85-1.893 6.978-3.237 7.215-1.311.231-1.782-2.357-2.37-5.942zm-47.8-1.53c1.882.497 3.763.941 5.644 1.335-.604 3.686-1.068 6.373-2.402 6.137-1.374-.242-3.23-3.505-3.241-7.472z" fill="#fff" /></symbol><symbol fill-rule="evenodd" stroke-linejoin="round" stroke-miterlimit="1.414" id="mouth-06"><path d="M139.044 240.668c3.2-.43 6.81-.668 10.995-.668 4.534 0 8.462.28 11.944.798.723 2.45 2.126 4.227 3.114 4.005.896-.2 2.535-1.037 3.915-2.545 5.508 1.503 9.436 3.656 12.733 5.888 3.548 2.402 6.382 7.001 3.599 10.751-1.594 2.148-4.104 3.524-6.94 3.887l.116-.284c0-1.011-3.428-1.922-8.915-2.534-.051-3.69-1.786-6.692-2.61-6.837-.867-.153-3.778 2.335-5.021 6.142A55.886 55.886 0 0 0 150 258c-3.111 0-6.62.538-10.39 1.339-1.098-4.073-4.243-6.805-5.151-6.644-.941.166-3.077 4.07-2.524 8.443l-3.524.873c-6.693 1.66-10.893.636-13.676-3.114-2.783-3.75-.383-8.415 3.599-10.751 3.945-2.314 7.99-4.543 13.684-6.049 1.383 1.512 3.022 2.349 3.918 2.549.988.222 2.39-1.555 3.108-3.978z" fill="#333" /><path d="M170.52 261.586c-2.825-1.015-5.57-1.762-8.205-2.25 9.55.544 16.179 1.753 16.205 3.156V270a4 4 0 0 1-8 0v-8.414z" fill="#aae1ff" /><path d="M131.935 261.138c-.553-4.373 1.583-8.277 2.524-8.443.908-.161 4.053 2.571 5.15 6.644l-5.247 1.197-2.427.602zM161.974 259.271c1.243-3.807 4.154-6.295 5.022-6.142.823.145 2.558 3.147 2.609 6.837-2.14-.271-4.6-.477-7.29-.63l-.341-.065zM165.9 241.466l3.112.792c-1.38 1.508-3.02 2.345-3.915 2.545-.988.222-2.391-1.555-3.114-4.005l3.918.668zM139.044 240.668c-.717 2.423-2.12 4.2-3.108 3.978-.896-.2-2.535-1.037-3.918-2.549 2.089-.587 4.409-1.073 7.026-1.429z" fill="#fff" /></symbol><symbol fill-rule="evenodd" stroke-linejoin="round" stroke-miterlimit="1.414" id="mouth-07"><path d="M150 256c-9.791 0-14.257-5.326-19.915-8.917-3.39-1.833-3.752-2.527-1.085-2.083 6 1 14-5 16-5 1.333 0 3 .667 5 2 2-1.333 3.667-2 5-2 2 0 10 6 16 5 2.667-.444 2.443.239-.67 2.052-5.377 3.59-10.509 8.948-20.33 8.948z" fill="#ed6072" /><path d="M114.676 242.946a1 1 0 1 1 .648-1.892C126.888 245.019 138.445 247 150 247c11.555 0 23.112-1.981 34.676-5.946a1 1 0 1 1 .648 1.892C173.555 246.981 161.779 249 150 249c-11.779 0-23.555-2.019-35.324-6.054z" fill-opacity=".2" fill-rule="nonzero" /></symbol><symbol fill-rule="evenodd" stroke-linejoin="round" stroke-miterlimit="1.414" id="mouth-08"><path d="M114.676 247.054a1 1 0 1 0 .648 1.892C126.888 244.98 138.445 243 150 243c11.555 0 23.112 1.98 34.676 5.946a1 1 0 1 0 .648-1.892C173.555 243.019 161.779 241 150 241c-11.779 0-23.555 2.019-35.324 6.054z" fill-opacity=".2" fill-rule="nonzero" /><path d="M146.231 243.069a104.038 104.038 0 0 1 9.28.075l16.203 28.065a4 4 0 1 1-6.928 4l-18.5-32.043-.055-.097z" fill="#aae1ff" fill-opacity=".51" /><path d="M149.755 243h.264c.652 0 1.303.006 1.955.018l16.142 27.959a1 1 0 0 1-1.732 1l-16.5-28.579a.996.996 0 0 1-.129-.398z" fill="#508bd8" /><path d="M151.335 248.992l4.33-2.5a.5.5 0 0 1 .5.866l-4.33 2.5a.5.5 0 0 1-.5-.866zm2.5 4.33l4.33-2.5a.5.5 0 0 1 .5.866l-4.33 2.5a.5.5 0 0 1-.5-.866zm2.5 4.33l4.33-2.5a.5.5 0 0 1 .5.866l-4.33 2.5a.5.5 0 0 1-.5-.866zm2.5 4.33l4.33-2.5a.5.5 0 0 1 .5.866l-4.33 2.5a.5.5 0 0 1-.5-.866zm2.5 4.33l4.33-2.5a.5.5 0 0 1 .5.866l-4.33 2.5a.5.5 0 0 1-.5-.866zm2.5 4.33l4.33-2.5a.5.5 0 0 1 .5.866l-4.33 2.5a.5.5 0 0 1-.5-.866z" fill="#508bd8" fill-opacity=".739" /><path d="M149.559 243.031c.786.019 1.572.047 2.358.084l10.699 18.532a1 1 0 0 1-1.732 1l-11.325-19.616z" fill="#b80933" /></symbol><symbol fill-rule="evenodd" stroke-linejoin="round" stroke-miterlimit="1.414" id="mouth-09"><path d="M114.676 241.946a1 1 0 1 1 .648-1.892C126.888 244.019 138.445 246 150 246c11.555 0 23.112-1.981 34.676-5.946a1 1 0 1 1 .648 1.892C173.555 245.981 161.779 248 150 248c-11.779 0-23.555-2.019-35.324-6.054z" fill-opacity=".2" fill-rule="nonzero" /><path d="M140.164 247.555a104.838 104.838 0 0 0 20.405-.068c-.266 8.437-4.732 15.15-10.204 15.15-5.456 0-9.914-6.677-10.201-15.082z" fill="#ff6f81" /><path d="M149.876 247.312h.143c.256 0 .512 0 .768-.002-.078 5.532-.253 9.382-.455 9.382-.203 0-.378-3.848-.456-9.38z" fill-opacity=".2" /></symbol><symbol fill-rule="evenodd" stroke-linejoin="round" stroke-miterlimit="1.414" id="nose-01"><path d="M145.979 209.843c-.532.635-3.193-.721-5.943-3.029-2.75-2.307-4.548-4.692-4.016-5.327.533-.634 3.194.722 5.944 3.029 2.75 2.308 4.548 4.693 4.015 5.327zm8.041 0c-.532-.634 1.266-3.019 4.016-5.327 2.75-2.307 5.411-3.663 5.943-3.029.533.635-1.265 3.02-4.015 5.327-2.75 2.308-5.411 3.664-5.944 3.029z" fill-opacity=".204" /></symbol><symbol fill-rule="evenodd" stroke-linejoin="round" stroke-miterlimit="1.414" id="nose-02"><path d="M154.04 209.619c-1.29.248-2.644.381-4.04.381-1.648 0-3.238-.185-4.734-.528-.478-1.767-1.847-3.522-3.859-4.684-1.85-1.068-3.864-1.414-5.553-1.097-1.183-1.654-1.854-3.541-1.854-5.543 0-6.546 7.163-11.852 16-11.852s16 5.306 16 11.852c0 2.056-.707 3.991-1.951 5.676-1.791-.519-4.053-.225-6.113.964-2.067 1.194-3.455 3.014-3.896 4.831z" fill-opacity=".2" /></symbol><symbol fill-rule="evenodd" stroke-linejoin="round" stroke-miterlimit="1.414" id="nose-03"><path d="M156.681 209.906c-2.175.446-4.174-.742-4.464-2.655-.29-1.913.237-11.834 2.207-12.238 1.97-.404 5.382 8.709 5.672 10.622.29 1.913-1.239 3.825-3.415 4.271zm-13.431-.107c-2.175-.384-3.668-2.233-3.333-4.13.334-1.898 3.968-10.99 5.938-10.643 1.97.348 2.275 10.134 1.94 12.032-.334 1.897-2.369 3.124-4.545 2.741z" fill-opacity=".2" /></symbol><symbol fill-rule="evenodd" stroke-linejoin="round" stroke-miterlimit="1.414" id="nose-04"><path d="M154.408 209.75c-1.4.163-2.879.25-4.408.25-1.46 0-2.874-.079-4.218-.228-.824-1.494-2.352-3.013-4.354-4.169-2.668-1.541-5.474-2.029-7.349-1.454a2.738 2.738 0 0 1-.079-.649c0-3.59 7.163-6.5 16-6.5s16 2.91 16 6.5c0 .203-.023.403-.068.601-1.872-.498-4.592.006-7.182 1.502-1.992 1.15-3.515 2.66-4.342 4.147z" fill-opacity=".196" /></symbol><symbol fill-rule="evenodd" stroke-linejoin="round" stroke-miterlimit="1.414" id="nose-05"><path d="M155.58 225.279A21.5 21.5 0 0 1 150 226c-1.492 0-2.935-.147-4.299-.421-.61-1.536-1.878-3.007-3.638-4.023-1.861-1.075-3.887-1.419-5.581-1.092-1.218-1.531-1.911-3.29-1.911-5.162 0-3.938 5.143-15.706 15.429-35.302 10.285 19.596 15.428 31.364 15.428 35.302 0 1.889-.706 3.664-1.945 5.204-1.429-.032-3 .361-4.468 1.209-1.584.914-2.769 2.197-3.435 3.564z" fill-opacity=".2" /></symbol></defs></svg>