<svg id="" xmlns="http://www.w3.org/2000/svg" xmlns:xlink="http://www.w3.org/1999/xlink"><defs><symbol fill-rule="evenodd" stroke-linejoin="round" stroke-miterlimit="1.414" id="body-01"><path d="M174 200.611V219h4c39.765 0 72 32.235 72 72v9H50v-9c0-39.765 32.235-72 72-72h4v-18.389c-17.237-8.189-29.628-24.924-31.695-44.73C88.48 155.058 84 150.052 84 144v-14c0-5.946 4.325-10.882 10-11.834V112c0-30.928 25.072-56 56-56s56 25.072 56 56v6.166c5.675.952 10 5.888 10 11.834v14c0 6.052-4.48 11.058-10.305 11.881-2.067 19.806-14.458 36.541-31.695 44.73z" fill="param(fill) #d0c6ac" /></symbol><symbol fill-rule="evenodd" stroke-linejoin="round" stroke-miterlimit="1.414" id="clothing-01"><g fill="param(fill) #b7c1db"><path d="M122.928 218.832a23.402 23.402 0 0 0-.192 3c0 13.807 12.088 25 27 25s27-11.193 27-25c0-1.016-.065-2.017-.192-3h1.192c39.765 0 72 32.235 72 72v8.948h-200v-8.948c0-39.765 32.235-72 72-72h1.192z" fill-opacity=".722" /><path d="M173.736 212.059c6.182 4.556 10 10.827 10 17.749 0 7.205-4.137 13.705-10.771 18.299l-5.65-4.451-4.58.332 1-3.151-.077-.061c6.1-3.143 10.078-8.296 10.078-14.119v-14.598zm-48-.708v15.306c0 5.823 3.978 10.976 10.078 14.119l-.078.061 1 3.151-4.58-.332-6.112 4.816c-6.946-4.612-11.308-11.266-11.308-18.664 0-7.288 4.233-13.854 11-18.457z" /></g></symbol><symbol fill-rule="evenodd" stroke-linejoin="round" stroke-miterlimit="1.414" id="clothing-02"><path d="M183.376 219.304c37.136 2.869 66.376 33.912 66.376 71.784v8.948h-200v-8.948c0-38.217 29.775-69.48 67.393-71.855a14.092 14.092 0 0 0-.393 3.303c0 11.874 14.998 21.5 33.5 21.5 18.502 0 33.5-9.626 33.5-21.5 0-1.098-.128-2.178-.376-3.232z" fill="param(fill) #b7c1db" /></symbol><symbol fill-rule="evenodd" stroke-linejoin="round" stroke-miterlimit="1.414" id="clothing-03"><g transform="translate(17.792 190.101)"><path d="M94.15 29.539V73.85h76V29.539a71.526 71.526 0 0 1 26 8.944v71.368h-128V38.483a71.526 71.526 0 0 1 26-8.944z" fill="param(fill) #b7c1db" /><circle cx="81" cy="83" r="5" fill="#f4f4f4" /><circle cx="183" cy="83" r="5" fill="#f4f4f4" /></g></symbol><symbol fill-rule="evenodd" stroke-linejoin="round" stroke-miterlimit="1.414" id="clothing-04"><path d="M199.849 222.316c29.24 9.158 50.456 36.462 50.456 68.722v8.948h-200v-8.948c0-32.655 21.739-60.232 51.534-69.05a17.99 17.99 0 0 0-.534 4.346c0 16.281 22.162 29.48 49.5 29.48s49.5-13.199 49.5-29.48c0-1.363-.155-2.704-.456-4.018z" fill="param(fill) #b7c1db" /></symbol><symbol fill-rule="evenodd" stroke-linejoin="round" stroke-miterlimit="1.414" id="clothing-05"><path d="M189.237 219.759c34.386 5.431 60.68 35.203 60.68 71.116v8.948h-200v-8.948c0-35.914 26.294-65.686 60.682-71.116a23.896 23.896 0 0 0 7.554 13.603l29.085 26.229a4.002 4.002 0 0 0 5.358 0l29.085-26.229c.425-.384.837-.783 1.234-1.196a23.895 23.895 0 0 0 6.322-12.407z" fill="param(fill) #b7c1db" /></symbol><symbol fill-rule="evenodd" stroke-linejoin="round" stroke-miterlimit="1.414" id="eye-01"><path d="M109.8 129.302c1.848 3.798 6.005 6.447 10.839 6.447 4.816 0 8.96-2.63 10.817-6.407.552-1.122-.233-2.04-1.024-1.36-2.451 2.107-5.932 3.423-9.793 3.423-3.741 0-7.124-1.235-9.56-3.228-.891-.728-1.818.014-1.278 1.125z" fill-opacity=".596" /><path d="M167.8 129.302c1.848 3.798 6.005 6.447 10.839 6.447 4.816 0 8.96-2.63 10.817-6.407.552-1.122-.233-2.04-1.024-1.36-2.451 2.107-5.932 3.423-9.793 3.423-3.741 0-7.124-1.235-9.56-3.228-.891-.728-1.818.014-1.278 1.125z" fill-opacity=".596" /></symbol><symbol fill-rule="evenodd" stroke-linejoin="round" stroke-miterlimit="1.414" id="eye-02"><g transform="translate(93.864 109.217)"><circle cx="30" cy="22" r="6" fill-opacity=".596" /><path d="M25 27s-6 7.271-6 11.271a6 6 0 1 0 12 0c0-4-6-11.271-6-11.271z" fill="#92d9ff" fill-rule="nonzero" /><circle cx="82" cy="22" r="6" fill-opacity=".596" /></g></symbol><symbol fill-rule="evenodd" stroke-linejoin="round" stroke-miterlimit="1.414" id="eye-03"><g fill-opacity=".596" transform="translate(93.792 109.471)"><circle cx="30" cy="22" r="6" /><circle cx="82" cy="22" r="6" /></g></symbol><symbol fill-rule="evenodd" stroke-linejoin="round" stroke-miterlimit="1.414" id="eye-04"><g fill-opacity=".596" fill-rule="nonzero"><path d="M122.844 133.875l-5.5 5.5c-.4.4-1.1.4-1.6 0l-1.6-1.6c-.4-.4-.4-1.1 0-1.6l5.5-5.5-5.5-5.5c-.4-.5-.4-1.2 0-1.6l1.6-1.6c.4-.4 1.1-.4 1.6 0l5.5 5.5 5.5-5.5c.4-.4 1.1-.4 1.6 0l1.6 1.6c.4.4.4 1.1 0 1.6l-5.5 5.5 5.5 5.5c.4.4.4 1.1 0 1.6l-1.6 1.6c-.4.4-1.1.4-1.6 0l-5.5-5.5z" /><path d="M176.844 133.875l-5.5 5.5c-.4.4-1.1.4-1.6 0l-1.6-1.6c-.4-.4-.4-1.1 0-1.6l5.5-5.5-5.5-5.5c-.4-.5-.4-1.2 0-1.6l1.6-1.6c.4-.4 1.1-.4 1.6 0l5.5 5.5 5.5-5.5c.4-.4 1.1-.4 1.6 0l1.6 1.6c.4.4.4 1.1 0 1.6l-5.5 5.5 5.5 5.5c.4.4.4 1.1 0 1.6l-1.6 1.6c-.4.4-1.1.4-1.6 0l-5.5-5.5z" /></g></symbol><symbol fill-rule="evenodd" stroke-linejoin="round" stroke-miterlimit="1.414" id="eye-05"><g fill-opacity=".596"><path d="M109.81 132.6c1.846-3.798 6.003-6.447 10.837-6.447 4.816 0 8.961 2.63 10.817 6.407.552 1.122-.233 2.04-1.024 1.36-2.45-2.107-5.932-3.423-9.793-3.423-3.74 0-7.124 1.235-9.56 3.228-.89.728-1.818-.014-1.278-1.125z" /><path d="M167.81 132.6c1.846-3.798 6.003-6.447 10.837-6.447 4.816 0 8.961 2.63 10.817 6.407.552 1.122-.233 2.04-1.024 1.36-2.45-2.107-5.932-3.423-9.793-3.423-3.74 0-7.124 1.235-9.56 3.228-.89.728-1.818-.014-1.278-1.125z" /></g></symbol><symbol fill-rule="evenodd" stroke-linejoin="round" stroke-miterlimit="1.414" id="eye-06"><g fill="#ff5353" fill-opacity=".8" fill-rule="nonzero"><path d="M129.535 119.45c-2.55 0-5.074 1.98-6.458 3.821-1.389-1.841-3.907-3.821-6.458-3.821-5.49 0-9.042 3.334-9.042 7.641 0 5.73 4.412 9.13 9.042 12.736 1.653 1.236 4.78 4.401 5.166 5.094.386.693 2.106.718 2.584 0 .477-.718 3.51-3.858 5.166-5.094 4.627-3.606 9.042-7.006 9.042-12.736 0-4.307-3.552-7.641-9.042-7.641z" /><path d="M182.535 119.45c-2.55 0-5.074 1.98-6.458 3.821-1.389-1.841-3.907-3.821-6.458-3.821-5.49 0-9.042 3.334-9.042 7.641 0 5.73 4.412 9.13 9.042 12.736 1.653 1.236 4.78 4.401 5.166 5.094.386.693 2.106.718 2.584 0 .477-.718 3.51-3.858 5.166-5.094 4.627-3.606 9.042-7.006 9.042-12.736 0-4.307-3.552-7.641-9.042-7.641z" /></g></symbol><symbol fill-rule="evenodd" stroke-linejoin="round" stroke-miterlimit="1.414" id="eye-07"><g fill-opacity=".596"><path d="M120.437 127.151c-.081-.002-.162-.002-.243-.002-3.741 0-7.124 1.235-9.56 3.228-.891.728-1.818-.014-1.278-1.125 1.847-3.798 6.004-6.447 10.838-6.447 3.508 0 6.901 1.317 9.027 3.551a6.004 6.004 0 0 1 1.646 2.484c.051.122.099.246.144.372.095.264.132.516.125.738a6 6 0 1 1-10.699-2.799z" /><path d="M178.437 127.151c-.081-.002-.162-.002-.243-.002-3.741 0-7.124 1.235-9.56 3.228-.891.728-1.818-.014-1.278-1.125 1.847-3.798 6.004-6.447 10.838-6.447 3.508 0 6.901 1.317 9.027 3.551a6.004 6.004 0 0 1 1.646 2.484c.051.122.099.246.144.372.095.264.132.516.125.738a6 6 0 1 1-10.699-2.799z" /></g></symbol><symbol fill-rule="evenodd" stroke-linejoin="round" stroke-miterlimit="1.414" id="eye-08"><path d="M119.613 136.198c-6.742.823-9.871 3.084-9.871-2.773 0-6.938 6.268-11.562 14-11.562s14 4.624 14 11.562c0 5.857-3.13 3.596-9.871 2.773a5.927 5.927 0 0 0 1.87-4.335c0-3.311-2.688-6-6-6-3.31 0-6 2.689-6 6 0 1.707.716 3.249 1.872 4.335z" fill="#fff" /><path d="M119.613 136.198a5.927 5.927 0 0 1-1.871-4.335c0-3.311 2.689-6 6-6 3.31 0 6 2.689 6 6a5.927 5.927 0 0 1-1.871 4.335 29.293 29.293 0 0 0-4.13-.287c-1.496 0-2.866.108-4.128.287z" fill-opacity=".698" /><g><path d="M171.613 136.198c-6.742.823-9.871 3.084-9.871-2.773 0-6.938 6.268-11.562 14-11.562s14 4.624 14 11.562c0 5.857-3.13 3.596-9.871 2.773a5.927 5.927 0 0 0 1.87-4.335c0-3.311-2.688-6-6-6-3.31 0-6 2.689-6 6 0 1.707.716 3.249 1.872 4.335z" fill="#fff" /><path d="M171.613 136.198a5.927 5.927 0 0 1-1.871-4.335c0-3.311 2.689-6 6-6 3.31 0 6 2.689 6 6a5.927 5.927 0 0 1-1.871 4.335 29.293 29.293 0 0 0-4.13-.287c-1.496 0-2.866.108-4.128.287z" fill-opacity=".698" /></g></symbol><symbol fill-rule="evenodd" stroke-linejoin="round" stroke-miterlimit="1.414" id="eye-09"><g transform="translate(94.2 111.385)"><circle cx="30" cy="22" r="14" fill="#fff" /><circle cx="82" cy="22" r="14" fill="#fff" /><circle cx="30" cy="22" r="6" fill-opacity=".698" /><circle cx="82" cy="22" r="6" fill-opacity=".698" /></g></symbol><symbol fill-rule="evenodd" stroke-linejoin="round" stroke-miterlimit="1.414" id="eye-10"><g transform="translate(95.104 109.65)"><circle cx="82" cy="22" r="12" fill="#fff" /><circle cx="82" cy="22" r="6" fill-opacity=".698" /><path d="M16.16 25.447C18.007 21.649 22.164 19 26.998 19c4.816 0 8.961 2.63 10.817 6.407.552 1.122-.233 2.04-1.024 1.36-2.451-2.107-5.932-3.423-9.793-3.423-3.741 0-7.124 1.235-9.56 3.228-.891.728-1.818-.014-1.278-1.125z" fill-opacity=".596" /></g></symbol><symbol fill-rule="evenodd" stroke-linejoin="round" stroke-miterlimit="1.414" id="eye-11"><g transform="translate(95.451 108.023)"><circle cx="30" cy="22" r="6" fill-opacity=".596" /><path d="M70.61 24.955c1.577-3.918 5.54-6.85 10.361-7.187 4.804-.336 9.123 1.997 11.239 5.637.628 1.08-.092 2.051-.928 1.428C88.69 22.9 85.126 21.83 81.274 22.1c-3.732.261-7.02 1.73-9.312 3.887-.838.79-1.814.114-1.353-1.032z" fill-opacity=".596" /></g></symbol><symbol fill-rule="evenodd" stroke-linejoin="round" stroke-miterlimit="1.414" id="eye-12"><g transform="translate(94.039 110.015)"><circle cx="30" cy="22" r="14" fill="#fff" /><circle cx="82" cy="22" r="14" fill="#fff" /><circle cx="30" cy="14" r="6" fill-opacity=".698" /><circle cx="82" cy="14" r="6" fill-opacity=".698" /></g></symbol><symbol fill-rule="evenodd" stroke-linejoin="round" stroke-miterlimit="1.414" id="eyebrow-01"><path d="M109.124 115.128c3.915-5.509 14.648-8.598 23.893-6.328a1.999 1.999 0 0 0 2.419-1.465 1.999 1.999 0 0 0-1.465-2.419c-10.737-2.637-23.165.94-28.107 7.894a2 2 0 0 0 3.26 2.318z" fill-opacity=".596" fill-rule="nonzero" /><path d="M189.864 115.128c-3.915-5.509-14.648-8.598-23.893-6.328a1.999 1.999 0 0 1-2.419-1.465 1.999 1.999 0 0 1 1.465-2.419c10.737-2.637 23.165.94 28.107 7.894a2 2 0 0 1-3.26 2.318z" fill-opacity=".596" fill-rule="nonzero" /></symbol><symbol fill-rule="evenodd" stroke-linejoin="round" stroke-miterlimit="1.414" id="eyebrow-02"><path d="M109.263 110.858c4.241-5.769 6.878-5.484 13.313-.629l.67.508c4.828 3.662 7.114 4.936 10.406 4.936a2 2 0 1 0 0-4c-2.066 0-3.901-1.022-7.989-4.123-.375-.285-.492-.373-.678-.513-3.759-2.837-5.959-4.077-8.695-4.372-3.684-.398-7.058 1.482-10.249 5.823a2 2 0 1 0 3.222 2.37z" fill-opacity=".596" fill-rule="nonzero" /><path d="M190.041 110.858c-4.241-5.769-6.878-5.484-13.313-.629l-.67.508c-4.828 3.662-7.114 4.936-10.406 4.936a2 2 0 1 1 0-4c2.066 0 3.901-1.022 7.989-4.123.375-.285.492-.373.678-.513 3.759-2.837 5.959-4.077 8.695-4.372 3.684-.398 7.058 1.482 10.249 5.823a2 2 0 1 1-3.222 2.37z" fill-opacity=".596" fill-rule="nonzero" /></symbol><symbol fill-rule="evenodd" stroke-linejoin="round" stroke-miterlimit="1.414" id="eyebrow-03"><path d="M109.454 116.336c1.495-9.523 14.083-16.02 23.188-11.827a2 2 0 1 0 1.672-3.633c-11.487-5.29-26.9 2.664-28.812 14.839a2.001 2.001 0 0 0 3.952.621z" fill-opacity=".596" fill-rule="nonzero" /><path d="M189.502 116.336c-1.495-9.523-14.083-16.02-23.188-11.827a2 2 0 1 1-1.672-3.633c11.487-5.29 26.9 2.664 28.812 14.839a2.001 2.001 0 0 1-3.952.621z" fill-opacity=".596" fill-rule="nonzero" /></symbol><symbol fill-rule="evenodd" stroke-linejoin="round" stroke-miterlimit="1.414" id="eyebrow-04"><path d="M131.022 98.143c-1.479 8.39-14.089 14.181-23.238 10.432-1.014-.416-2.19.031-2.627 1-.436.967.033 2.088 1.048 2.504 11.444 4.69 26.835-2.379 28.762-13.303.183-1.039-.55-2.023-1.64-2.197-1.09-.175-2.12.525-2.305 1.564z" fill-opacity=".596" fill-rule="nonzero" /><path d="M166.967 98.143c1.48 8.39 14.09 14.181 23.238 10.432 1.014-.416 2.191.031 2.627 1 .436.967-.033 2.088-1.048 2.504-11.444 4.69-26.835-2.379-28.762-13.303-.183-1.039.551-2.023 1.641-2.197 1.09-.175 2.12.525 2.304 1.564z" fill-opacity=".596" fill-rule="nonzero" /></symbol><symbol fill-rule="evenodd" stroke-linejoin="round" stroke-miterlimit="1.414" id="eyebrow-05"><path d="M109.578 109.001c4.496-6.326 14.012-9.508 23.756-6.366a2 2 0 0 0 1.228-3.807c-11.408-3.679-22.739.11-28.244 7.856a2 2 0 1 0 3.26 2.317z" fill-opacity=".596" fill-rule="nonzero" /><path d="M190.364 115.997c-3.915-5.509-14.647-8.598-23.892-6.328a2 2 0 1 1-.953-3.884c10.736-2.637 23.165.94 28.107 7.895a2 2 0 0 1-3.261 2.317z" fill-opacity=".596" fill-rule="nonzero" /></symbol><symbol fill-rule="evenodd" stroke-linejoin="round" stroke-miterlimit="1.414" id="hair-01"><path d="M250 300v-9c0-39.765-32.235-72-72-72h-4v-18.389c17.531-8.328 30.048-25.496 31.791-45.744C211.569 154.002 216 149.019 216 143v-13c0-.568-.04-1.128-.116-1.675-21.52-11.588-39.994-28.181-52.038-47.023-18.082 25.622-54.316 30.233-79.622 46.378A12.063 12.063 0 0 0 84 130v13c0 6.019 4.431 11.002 10.209 11.867 1.743 20.248 14.26 37.416 31.791 45.744V219h-4c-39.765 0-72 32.235-72 72v9h-.995c-38.439-21.949 4.852-57.111 5.169-69 .366-11.744-21.451-14.439-21.171-43 .941-29.028 31.369-26.412 31.2-46 .169-19.001-11.389-26.839 0-63 11.637-36.461 41.714-45.232 84.8-45.984V33l.5.008.5-.008v.016c43.086.752 73.163 9.523 84.8 45.984 11.388 36.161-.169 43.999 0 63-.169 19.588 30.258 16.972 31.2 46 .28 28.561-21.537 31.256-21.172 43 .317 11.889 43.608 47.051 5.169 69z" fill="param(fill) #8c522d" /><path d="M63.099 148.057c-2.374 3.026-5.569 7.471-5.737 7.137 1.873-2.383 3.013-5.182 2.979-8.758.177-18.101-11.904-25.569 0-60.017.669-1.91 1.766-3.715 3.245-5.414-10.343 34.454.783 42.351.617 60.995.019 2.295-.381 4.285-1.104 6.057zm172.32-67.052c1.479 1.699 2.577 3.504 3.245 5.414 10.158 29.394 2.852 39.144.6 52.617-.3.805-.069 1.754-.384 2.567-30.673-10.458-58.29-30.043-74.385-52.991-22.784 29.424-73.141 29.761-97.821 55.324.387-.544.754-1.051 1.084-1.49 22.536-29.919 73.489-29.122 96.088-61.144 15.398 24.088 41.818 44.648 71.163 55.625.301-.854.081-1.85.367-2.694 2.108-13.833 8.839-23.926.043-53.228z" fill-opacity=".157" /><path d="M67.758 142.446c22.536-29.919 73.489-29.122 96.088-61.144 15.398 24.088 41.818 44.648 71.163 55.625.301-.854.081-1.85.367-2.694 2.155-14.144 9.144-24.378-.573-55.233-11.637-36.461-41.714-45.232-84.8-45.984l-1-.016c-43.086.768-73.163 9.539-84.8 46-11.389 36.161.169 43.999 0 63 .032 3.753-1.059 6.691-2.85 9.193.183.402 4.153-5.756 6.405-8.747z" fill="#fff" fill-opacity=".098" /></symbol><symbol fill-rule="evenodd" stroke-linejoin="round" stroke-miterlimit="1.414" id="hair-02"><path d="M94 117.36V149c0 22.339 13.08 41.623 32 50.611v13.135c-19.637 2.688-35.359 7.418-46.615 6.254-14.223-1.469-21.889-30.204-22.385-55-.617-30.836 28.319-95.205 39-108 7.923-9.491 29.695-17.449 54-17 24.305.449 46.862 5.812 55 16 12.324 15.428 37.869 74.079 38 109 .094 24.8-9.537 49.66-23 51-11.079 1.103-26.524-1.489-46-3.003v-12.386c18.92-8.988 32-28.272 32-50.611v-28.012c-9.521-4.857-18.137-10.74-25.846-17.647 3.208 5.296 6.695 9.807 10.459 13.532-27.017-7.58-48.507-20.423-64.472-38.528C118.16 94.81 107.446 107.814 94 117.36z" fill="param(fill) #8c522d" /></symbol><symbol fill-rule="evenodd" stroke-linejoin="round" stroke-miterlimit="1.414" id="hair-03"><path d="M205.985 118.146l-.083.063c-2.903-47.147-48.47-30.258-55.917-56.664-7.447 26.406-53.014 9.517-55.917 56.664l-.083-.063v.23a12.008 12.008 0 0 0-9.893 10.226 16.433 16.433 0 0 1-4.107-10.893c0-1.645.241-3.233.69-4.733-4.059-3.006-6.69-7.829-6.69-13.267 0-6.493 3.75-12.11 9.203-14.803a16.449 16.449 0 0 1-1.203-6.197c0-7.635 5.185-14.058 12.227-15.94-.15-.999-.227-2.02-.227-3.06 0-11.322 9.178-20.5 20.5-20.5 2.63 0 5.143.495 7.453 1.397 3.73-5.09 9.752-8.397 16.547-8.397 4.262 0 8.221 1.301 11.5 3.527a20.406 20.406 0 0 1 11.5-3.527c6.795 0 12.817 3.306 16.547 8.397a20.448 20.448 0 0 1 7.453-1.397c11.322 0 20.5 9.178 20.5 20.5 0 1.04-.077 2.061-.227 3.06 7.042 1.882 12.227 8.305 12.227 15.94 0 2.543-.575 4.951-1.602 7.102 4.572 2.934 7.602 8.062 7.602 13.898 0 4.71-1.973 8.96-5.138 11.965a16.476 16.476 0 0 1 1.138 6.035c0 4.175-1.55 7.987-4.107 10.893a12.008 12.008 0 0 0-9.893-10.227v-.229zm-80 82.674v4.201c-.815.124-1.65.188-2.5.188-6.82 0-12.675-4.139-15.188-10.042-8.558-.609-15.312-7.745-15.312-16.458 0-1.47.192-2.897.554-4.254-6.696-2.102-11.554-8.357-11.554-15.746 0-3.744 1.247-7.198 3.35-9.967a12.012 12.012 0 0 0 8.86 6.334c1.742 20.248 14.26 37.416 31.79 45.744zm48 0c17.531-8.328 30.048-25.496 31.791-45.744a12.012 12.012 0 0 0 8.86-6.334 16.428 16.428 0 0 1 3.35 9.967c0 7.39-4.859 13.644-11.555 15.746.362 1.357.554 2.783.554 4.254 0 8.713-6.754 15.85-15.312 16.458-2.513 5.903-8.367 10.042-15.188 10.042-.85 0-1.685-.064-2.5-.188v-4.2z" fill="param(fill) #8c522d" /><g opacity=".9" fill-rule="nonzero"><path d="M196.018 79.149s-4.981 8.828 5.402 12.608c6.787 2.47 13.492-1.17 13.492-1.17s-2.159-9.908-9.963-12.749c-6.108-2.223-8.931 1.31-8.931 1.31z" fill="#5dd362" /><path d="M214.912 90.587s-2.159-9.908-9.963-12.749c-4.072-1.482-6.7-.385-8.022.502-1.358-2.395-1.474-4.186-1.45-4.253.03-.293-.193-.526-.464-.625-.068-.025-.203-.074-.296-.032-.388.01-.67.365-.657.75-.005.225.348 4.535 4.626 8.828 6.048 6.61 16.226 7.579 16.226 7.579z" fill="#42bc53" /></g><g><path d="M183.208 47.2c5.283-3.05 7.392-11.197 7.392-11.197s-7.374-4.172-15.258-.428c-7.885 3.744-6.367 10.373-6.367 10.373s6.612 5.651 14.233 1.251z" fill="#5dd362" /><path d="M164.985 49.637c.05.087.1.174.237.21.423.333 1.093.293 1.426-.13 1.049-1.183 2.061-2.23 3.26-3.153 1.966 1.405 7.324 4.085 13.3.635 5.283-3.05 7.392-11.196 7.392-11.196s-1.153.204-3.098.634c-.533.077-14.378 2.297-22.36 11.87a.96.96 0 0 0-.157 1.13z" fill="#42bc53" /></g><g><path d="M107.377 74.71c-5.282 3.05-7.392 11.195-7.392 11.195s7.374 4.172 15.258.428c7.885-3.743 6.367-10.372 6.367-10.372s-6.612-5.652-14.233-1.252z" fill="#5dd362" /><path d="M125.6 72.271c-.05-.086-.1-.173-.237-.21-.423-.333-1.093-.292-1.426.13-1.049 1.184-2.061 2.23-3.26 3.154-1.966-1.406-7.324-4.086-13.3-.636-5.282 3.05-7.392 11.196-7.392 11.196s1.153-.203 3.098-.634c.533-.076 14.378-2.296 22.36-11.87a.96.96 0 0 0 .157-1.13z" fill="#42bc53" /></g><path d="M85.561 70.165a5.167 5.167 0 0 1-.997-3.853 5.165 5.165 0 0 1 2.02-3.429c.3-.226.693-.41 1.141-.568-.453-.14-.854-.313-1.16-.527a5.206 5.206 0 0 1-1.277-7.243 5.207 5.207 0 0 1 7.242-1.277c.306.215.604.533.893.911-.006-.475.033-.909.143-1.267a5.165 5.165 0 0 1 2.532-3.07 5.165 5.165 0 0 1 3.961-.382 5.206 5.206 0 0 1 3.453 6.493c-.109.356-.314.735-.582 1.124.448-.15.87-.243 1.241-.25a5.208 5.208 0 0 1 5.291 5.11 5.179 5.179 0 0 1-.938 3.066 5.2 5.2 0 0 1-4.17 2.223c-.374.006-.797-.07-1.25-.206.282.38.5.751.62 1.103a5.196 5.196 0 0 1-.662 4.68 5.177 5.177 0 0 1-2.56 1.93 5.206 5.206 0 0 1-6.61-3.225c-.122-.352-.179-.779-.19-1.252-.274.386-.56.708-.858.932a5.168 5.168 0 0 1-3.853.997 5.162 5.162 0 0 1-3.43-2.02z" fill="#4acad3" fill-rule="nonzero" /><path d="M98.807 57.85a1.445 1.445 0 0 0-2.763-.846c-.233.763.232 4.182.232 4.182s2.298-2.574 2.531-3.337zm2.242 5.796a1.444 1.444 0 1 0-.05-2.888c-.798.014-3.905 1.513-3.905 1.513s3.158 1.39 3.955 1.375zm-6.057-2.018s-1.738-2.98-2.392-3.438a1.444 1.444 0 1 0-1.657 2.366c.654.458 4.05 1.072 4.05 1.072zm3.073 6.838a1.444 1.444 0 0 0 .895-1.836c-.259-.755-2.646-3.246-2.646-3.246s-.345 3.432-.086 4.187a1.445 1.445 0 0 0 1.837.895zm-5.32-1.96c.638-.48 2.271-3.52 2.271-3.52s-3.372.732-4.009 1.212a1.444 1.444 0 1 0 1.738 2.307z" fill="#fff" /><g><path d="M134.511 69.307l.258-2.314 2.314-.259c2.847-.32 5.11-2.117 6.054-4.81 1.066-3.043.065-6.36-2.547-8.282l-1.874-1.38.932-2.134c1.23-2.806.645-5.895-1.52-8.06-2.167-2.167-5.256-2.75-8.063-1.523l-2.133.933-1.38-1.875c-1.923-2.608-5.24-3.612-8.283-2.546-2.692.943-4.49 3.207-4.809 6.054l-.259 2.313-2.314.26c-2.847.32-5.11 2.117-6.054 4.81-.938 2.676-.298 5.561 1.67 7.528.268.27.562.522.876.753l1.875 1.38-.934 2.134c-1.226 2.807-.643 5.896 1.523 8.062 2.166 2.166 5.255 2.75 8.062 1.523l2.134-.934 1.38 1.875c1.917 2.611 5.24 3.612 8.283 2.547 2.693-.945 4.49-3.208 4.81-6.055z" fill="#fdb599" fill-rule="nonzero" /><path d="M126.867 61.4a1.44 1.44 0 1 1-2.782.745c-.206-.767-.1-5.936-.1-5.936s-2.492 4.53-3.055 5.091a1.44 1.44 0 0 1-2.036-2.036c.562-.563 5.091-3.055 5.091-3.055s-5.168.106-5.936-.1a1.44 1.44 0 1 1 .745-2.782c.768.206 5.191 2.882 5.191 2.882s-2.676-4.423-2.882-5.19a1.44 1.44 0 1 1 2.782-.746c.206.768.1 5.936.1 5.936s2.492-4.529 3.055-5.09a1.44 1.44 0 0 1 2.036 2.035c-.562.563-5.09 3.055-5.09 3.055s5.168-.106 5.935.1a1.44 1.44 0 1 1-.745 2.782c-.768-.206-5.19-2.882-5.19-2.882s2.674 4.422 2.881 5.191z" fill="#fff" /></g><g><path d="M207.743 76.031a7.353 7.353 0 0 0 1.418-5.483 7.35 7.35 0 0 0-2.874-4.88c-.426-.32-.987-.584-1.625-.808.645-.2 1.216-.445 1.652-.75 3.342-2.34 4.158-6.964 1.817-10.307-2.34-3.342-6.964-4.157-10.306-1.817-.436.306-.86.758-1.27 1.296.008-.676-.048-1.294-.204-1.803a7.35 7.35 0 0 0-3.603-4.37 7.352 7.352 0 0 0-5.638-.543c-3.902 1.193-6.106 5.338-4.914 9.24.156.507.447 1.046.83 1.6-.638-.216-1.237-.346-1.768-.355-4.079-.07-7.456 3.19-7.528 7.27a7.365 7.365 0 0 0 1.334 4.363A7.393 7.393 0 0 0 181 71.848c.53.01 1.133-.1 1.777-.293-.4.54-.71 1.07-.883 1.57a7.394 7.394 0 0 0 .943 6.66 7.358 7.358 0 0 0 3.645 2.746c3.858 1.33 8.077-.73 9.405-4.588.173-.502.255-1.109.271-1.782.39.55.797 1.007 1.22 1.326a7.351 7.351 0 0 0 5.484 1.418 7.344 7.344 0 0 0 4.881-2.874z" fill="#f7d30c" fill-rule="nonzero" /><path d="M188.893 58.504a2.055 2.055 0 1 1 3.931-1.202c.331 1.086-.33 5.951-.33 5.951s-3.27-3.663-3.6-4.749zm-3.192 8.25a2.055 2.055 0 1 1 .072-4.11c1.135.02 5.558 2.153 5.558 2.153s-4.495 1.977-5.63 1.957zm8.62-2.872s2.474-4.24 3.404-4.892a2.055 2.055 0 1 1 2.358 3.367c-.93.651-5.762 1.525-5.762 1.525zm-4.373 9.731A2.056 2.056 0 0 1 188.674 71c.37-1.073 3.765-4.619 3.765-4.619s.492 4.885.123 5.958a2.057 2.057 0 0 1-2.614 1.274zm7.57-2.79c-.907-.683-3.23-5.008-3.23-5.008s4.797 1.042 5.704 1.725a2.055 2.055 0 1 1-2.474 3.283z" fill="#fff" /></g><g><path d="M186.123 51.755c1.825-6.983-5.994-12.414-8.953-14.184.514-2.934 1.672-12.56-4.468-16.116-6.105-3.534-13.793 2.204-16.116 4.148-.2-.125-.435-.268-.703-.423-3.067-1.775-10.768-5.352-16.048-.235-5.645 5.468-2.313 14.003-1.045 16.698-2.159 2.011-8.384 8.592-5.818 15.59.706 1.93 2.011 3.456 3.882 4.538 4.031 2.334 9.607 1.958 11.723 1.707.993 1.881 3.83 6.712 7.888 9.061 1.67.967 3.375 1.413 5.07 1.325 6.905-.358 9.916-9.995 10.67-12.912 2.861-.396 12.086-2.199 13.918-9.197z" fill="#ff7398" fill-rule="nonzero" /><path d="M159.75 45.812s3.684 8.188.353 8.711c-3.334.52-1.46-8.592-1.46-8.592s-7.112 6.007-8.15 3.028c-1.04-2.979 7.701-4.048 7.701-4.048s-7.988-4.692-5.394-6.836c2.594-2.144 6.216 6.092 6.216 6.092s1.945-8.919 4.82-7.254c2.876 1.664-3.857 7.811-3.857 7.811s8.877-.989 8.37 2.352c-.505 3.342-8.6-1.264-8.6-1.264z" fill="#fff" /></g><g><path d="M209.985 150.21a1 1 0 0 0-2 0v37a1 1 0 0 0 2 0v-37z" fill="#e6e6e6" /><path d="M218.985 186.21h-9.43l6.43-17h-11l-6 21h8.636l-4.636 19 16-23z" fill="#9177ff" fill-rule="nonzero" /></g></symbol><symbol fill-rule="evenodd" stroke-linejoin="round" stroke-miterlimit="1.414" id="hair-04"><path d="M117.9 62.465c-9.798 6.007-18.514 13.862-24.313 22.895-2.762 4.303-5.034 8.84-7.151 13.398a136.426 136.426 0 0 0-2.96 6.931c-.587 1.47-1.487 3.056-.64 4.599.517-.302.713-.194.388.347 2.692.734 6.434-1.335 8.767-2.099 4.763-1.561 9.529-3.033 14.408-4.331 4.456-1.186 14.399-3.114 18.29-4.011l2.736-2.979 1.063 1.955c2.158-.166 14.078-1.957 14.078-1.957l1.33-3.223c1.717 1.763 2.939 2.679 2.939 2.679 2.556-.209 13.653-.458 16.285-.426 0 0 7.34.258 9.121.328l1.667-.638.548 1.077c1.454.591 10.243 3.591 11.978 4.128l2.547-.906c1.119 2.694 3.939 2.354 6.276 4.481 3.092 2.814 9.569 4.816 12.661 7.263 1.107.876 2.142 1.792 3.182 2.726 1.156 1.037.985 1.188 1.361 2.378.112.356 1.255 2.199 1.742 2.35 1.733.536-10.154-30.486-13.417-34.453-3.368-4.094-25.211-31.654-54.174-30.752" fill-opacity=".157" /><path d="M205.831 107.618c-3.348-1.881-8.071-3.626-10.574-5.905-2.337-2.127-5.157-1.787-6.276-4.481l-2.547.906c-1.735-.537-10.524-3.537-11.978-4.128l-.548-1.077-1.667.638c-1.781-.07-9.121-.328-9.121-.328-2.632-.032-13.729.217-16.285.426 0 0-1.222-.916-2.939-2.679l-1.33 3.223s-11.92 1.791-14.078 1.957l-1.063-1.955-2.736 2.979c-3.891.897-13.834 2.825-18.29 4.011-4.034 1.073-7.99 2.265-11.932 3.528A56.573 56.573 0 0 0 94 112v38c0 22.339 13.08 41.623 32 50.611V219h-4a72.2 72.2 0 0 0-16.39 1.874l-.085.126h-.039l-.211.368c-3.826 5.565-10.971 13.182-16.665 17.969l.197.236c-.418.428-.769.863-.984 1.289-.885 1.753-.226 4.797.191 6.697.294 1.34.801 2.629 1.468 3.86 3.197 5.896 11.146 8.656 19.518 7.329-2.529 2.123-7.549 3.823-10.953 3.943-4.628.165-10.285-1.622-14.262-3.582.604 3.6 2.687 5.614 4.624 8.598-4.773-.246-8.548-5.54-10.147-7.655-1.025-1.355-1.976-2.847-2.536-4.398-2.197 4.508-3.433 16.636-2.343 20.031a62.829 62.829 0 0 1-6.042-3.109c-16.937-9.887-18.563-26.664-18.261-32.56.317-6.194 2.462-11.603 5.014-17.413 1.647-3.75 3.547-7.535 4.466-11.475.466-1.999.135-2.396-1.102-4.018-2.05-2.686-4.401-5.191-6.518-7.838-2.415-3.021-4.474-6.168-5.911-9.639-2.541-6.137-2.626-13.182-.644-19.507 3.16-10.082 15.714-20.168 21.218-27.09-5.696-17.86 2.748-37.124 11.113-47.262 7.703-9.336 17.975-59.301 74.871-59.575 56.895-.274 61.706 46.854 65.031 55.026 3.87 9.513 13.509 25.654 15.903 35.662 1.085 4.539 1.693 9.048 1.165 13.696-.121 1.066-1.077 4.228-.476 4.858.858.902 3.697 1.817 4.905 2.517 2.219 1.287 4.474 2.544 6.611 3.93 5.565 3.611 9.139 9.239 11.392 14.846 2.716 6.759 2.28 13.795-1.066 20.467-2.131 4.248-5.453 8.47-9.71 11.37-1.302.887-1.095.534-1.248 1.874-.093.818.007 1.748-.008 2.565a55.872 55.872 0 0 1-.215 4.047c-.59 6.493-1.872 13.188-4.113 19.44-1.414 3.948-3.168 7.921-6.533 10.98-2.845 2.586-6.936 4.423-10.852 5.519-1.356.379-1.337.783-1.415 1.176-.106.529.028 3.06.141 3.745.416 2.524 1.37 5.223 2.102 7.689 1.987 6.69 4.905 13.274 6.163 20.122.604 3.289.554 6.731-.218 10.014-.62 2.637-1.748 5.22-3.214 7.605-1.676 2.724-6.589 7.032-10.688 5.177 5.519-2.635 5.759-8.259 3.875-9.833-1.931-1.613-4.577-1.706-7.142-1.697-2.129.007-4.234.17-6.346.436-4.624.58-9.934 2.033-14.557.953-2.63-.615-5.094-1.837-7.467-2.955-.211-.099-1.437-.682-3.135-1.885-17.648-13.969-13.846-37.047 1.067-64.402-1.501-.094-2.015-.141-3.539-.141h-4v-18.389c18.92-8.988 32-28.272 32-50.611v-38a56.73 56.73 0 0 0-.169-4.382z" fill="param(fill) #8c522d" /><path d="M96.04 190.094c-.059-.201-.205-.427-.405-.665.136.221.272.442.405.665zm-22.63-49.719a88.585 88.585 0 0 0 4.456 18.002c2.062 5.721 4.42 11.459 7.813 16.691 3.161 4.875 6.924 9.424 9.956 14.361-.797-.948-2.472-2.099-3.114-2.778a49.788 49.788 0 0 1-2.984-3.458c-1.923-2.443-3.637-4.999-5.294-7.583-3.252-5.073-5.69-10.576-7.803-16.079-4.15-10.808-8.313-23.914-4.666-35.33-.282.734.459 2.487.575 3.296.204 1.414.386 2.837.478 4.26.185 2.883.184 5.749.583 8.618zm12.445 44.666c-1.358-1.731-3.881-3.097-5.442-4.762-1.415-1.509-2.511-3.201-3.506-4.939-2.255-3.941-3.737-7.965-4.217-12.371.109.523.918 1.427 1.173 1.856a84.323 84.323 0 0 1 1.788 3.124c1.097 2.041 2.013 4.151 3.122 6.187 2.038 3.739 4.63 7.359 7.082 10.905zm4.677 18.458c1.115 1.962 2.04 3.966 2.625 6.102.308 1.127.557 2.269.77 3.413.069.369.082 1.696.258 2.27-2.215-4.291-3.905-8.835-6.543-12.942-2.604-4.054-5.947-7.781-9.446-11.281-3.695-3.695-7.41-7.182-9.392-11.847-1.725-4.06-2.391-8.218-1.99-12.556.002 1.911 1.757 4.622 2.363 6.469.829 2.527 1.489 5.105 2.737 7.507 2.126 4.089 5.959 7.243 9.165 10.688 3.553 3.816 6.946 7.762 9.453 12.177zm-14.303-9.32a22.112 22.112 0 0 1 2.806 3.275c.898 1.285 1.556 2.636 2.145 4.05.507 1.217.731 3.482 1.527 4.498-2.578-3.146-5.233-6.117-7.011-9.69-.607-1.222-1.548-3.023-2.243-4.495.231.593 2.253 1.86 2.776 2.362zm-10.326 6.349c2.838 4.25 6.548 8.081 8.974 12.528 2.83 5.187 4.075 10.807 4.326 16.54.119 2.711.112 5.465-.253 8.168-.196 1.448-.51 2.886-.869 4.312-.136.541-.84 1.926-.977 2.771-.29-10.541 1.454-21.083-4.027-30.904-2.596-4.651-6.586-8.616-9.679-13.018-2.782-3.959-5.498-7.841-7.713-12.074 1.356 1.716 3.8 3.065 5.316 4.769 1.899 2.134 3.348 4.58 4.902 6.908zm11.201 44.319c-.033.204-.034.377.013.5l-.013-.5zm-9.544-22.353c.001.496.816 1.518 1.039 2.035.522 1.209.947 2.478 1.158 3.761.418 2.528-.13 5.14-1.067 7.56-1.899 4.907-4.874 9.253-8.613 13.3 1.335-1.748 1.867-4.589 2.806-6.538.965-2.001 2-3.971 2.851-6.011 1.919-4.605 1.75-9.311 1.826-14.107zm-8.643 18.707c.401-.548.193-3.183.405-3.872.392-1.273 1.07-2.502 1.849-3.635-.416.699.198 2.466-.005 3.373-.332 1.489-1.17 2.932-2.249 4.134zm57.691-178.453a.934.934 0 0 0-.24.297l.24-.297zm-14.761 21.584c1.42-1.246 2.177-4.191 3.156-5.78 1.125-1.825 2.418-3.579 3.645-5.356 2.432-3.524 4.726-6.984 7.72-10.191-.622.935-1.173 3.769-1.514 4.514a34.684 34.684 0 0 1-3.221 5.605c-2.861 4.044-5.93 7.803-9.786 11.208zm-.535-10.21c.75-1.327 1.894-2.448 3.18-3.414-.573.503-.831 2.575-1.225 3.275-.795 1.412-1.953 2.63-3.196 3.772.664-.582.772-2.803 1.241-3.633zm119.194 98.006l-.041.31c-.002-1.525-.681-3.201-.761-4.769-.112-2.19.203-4.315 1.083-6.392 1.74-4.101 5.003-7.207 9.164-9.638-1.145.674-2.267 3.213-3.001 4.268-1.103 1.586-2.282 3.187-3.214 4.851-1.943 3.468-2.506 7.617-3.23 11.37zm-1.508-21.646a22.884 22.884 0 0 1-.989 3.626c-.474 1.279-1.093 2.523-1.783 3.728-.43.751-1.979 2.327-1.978 3.157-.083-4.898 1.728-9.335 5.172-13.257-.378.657-.283 2.03-.422 2.746zm-.801 35.238c3.656-.517 7.105 1.261 9.421 3.551 1.238 1.224 2.338 2.629 3.065 4.133.547 1.131.546 2.983 1.28 3.92-1.797-2.419-4.076-4.373-6.324-6.464-1.564-1.455-4.688-5.181-7.442-5.14zm-.778 10.377c-.192-.065-1.934-.558-2.337-.32.597-.267 1.33-.592 1.987-.679 4.284-.569 9.492 3.141 10.067 6.721-.478-1.226-3.025-2.241-4.176-2.85-1.823-.967-3.564-2.137-5.541-2.872zm1.809 7.811c.742.182 2.319 1.176 3.047 1.165-2.929.071-5.572-.255-8.391-.914.152.041 1.759-.456 1.811-.463 1.215-.172 2.357-.076 3.533.212zm-11.345 13.857c4.288-.242 9.336.384 13.431 1.417a22.3 22.3 0 0 1 5.692 2.295c1.414.814 3.93 1.932 4.876 3.137-3.74-6.452-11.85-9.803-20.159-8.141-1.108.223-2.809 1.277-3.84 1.292zm-.96 12.433c2.688-.965 5.661-1.894 8.583-2.029 2.771-.127 5.845.29 8.41 1.173-.883-.24-2.993.332-3.92.437-1.297.147-2.596.299-3.896.418a51.678 51.678 0 0 1-4.801.222c-1.139-.002-3.32-.54-4.376-.221zm-10.464 17.213c.253 3.972 2.552 7.434 5.931 10.08 3.583 2.805 8.379 4.082 10.98 7.829 1.267 1.825 1.943 3.951 1.834 6.098-.056 1.106-.334 2.218-.634 3.294-.198.708-.903 1.868-.902 2.559.031-3.887.084-8.412-2.636-11.673-2.731-3.274-7.493-4.427-10.829-7.115-3.278-2.642-5.765-6.094-6.325-9.985-.452-3.144-.229-8.626 3.03-10.759-.662.389-.531 2.373-.547 2.93a73.946 73.946 0 0 0 .098 6.742zm-2.453 15.262c.396.52 2.569 1.151 3.208 1.51 1.456.817 2.865 1.746 4.021 2.877 2.316 2.266 3.809 5.445 3.917 8.494 0-.721-1.646-2.457-2.109-3.073-.768-1.022-1.635-1.969-2.518-2.917-2.154-2.31-4.39-4.564-6.519-6.891zm52.162-88.882c1.204 1.051 2.011 2.357 2.675 3.709 1.53 3.119 1.815 6.717.589 10 .203-.704-.401-2.184-.571-2.898-.373-1.563-.955-3.04-1.563-4.542-1.18-2.916-2.134-5.648-4.184-8.202.53.668 2.328 1.3 3.054 1.933zM188.51 61.983c0 .332.917 1.293 1.123 1.654.517.902.924 1.849 1.064 2.855.158 1.142-.035 2.259-.381 3.369-.206.659-1.184 1.934-1.184 2.528-.159-3.498-.933-6.859-.622-10.406zm7.637 6.822c.165 1.243-.241 2.644-.964 3.742.132-.311-.454-2.383-.473-2.762-.059-1.173.069-2.379.146-3.552.001.641 1.183 1.763 1.291 2.572zm-60.77 1.568a34.888 34.888 0 0 1-4.15 4.243c-1.023.89-2.984 1.89-3.764 2.911 3.501-5.712 7.546-10.639 12.302-15.632-.716.921-.903 2.917-1.428 3.994-.774 1.587-1.809 3.076-2.96 4.484zm5.898 2.479c.57-.336 1.104-1.993 1.538-2.551a16.924 16.924 0 0 1 2.578-2.628c-.205.22-.602 2.043-.825 2.401-.723 1.16-2 2.107-3.291 2.778z" fill="#fff" fill-opacity=".6" /></symbol><symbol fill-rule="evenodd" stroke-linejoin="round" stroke-miterlimit="1.414" id="hair-05"><path d="M84 129.778V109c0-22.887 11.65-43.054 29.343-54.893.535 2.511.889 5.285 1.047 8.286 10.492-1.464 22.8-2.306 35.964-2.306 12.874 0 24.931.806 35.27 2.21.161-2.962.512-5.702 1.04-8.184C204.353 65.952 216 86.116 216 109v20.777c-9.022-1.07-21.87-20.386-27.332-40.339-10.985 1.674-24.155 2.649-38.314 2.649-14.449 0-27.868-1.015-38.985-2.752-5.447 19.996-18.331 39.382-27.369 40.443z" fill-opacity=".157" /><path d="M214.666 124.495c-2.699-.804-5.67-3.054-8.646-6.326l-.02-.003v-.018c-6.846-7.538-13.712-20.484-17.332-33.71-10.985 1.674-24.155 2.649-38.314 2.649-14.449 0-27.868-1.015-38.985-2.752-3.614 13.267-10.503 26.266-17.369 33.822v.009a.03.03 0 0 0-.009.002c-2.981 3.277-5.956 5.528-8.658 6.33A11.946 11.946 0 0 0 84 130v13c0 6.019 4.431 11.002 10.209 11.867 1.743 20.248 14.26 37.416 31.791 45.744v9.443c-3.832 1.896-8.059 2.946-12.5 2.946-7.621 0-14.611-3.093-20.059-8.242-1.461.16-2.943.242-4.441.242-18.39 0-34.26-12.316-41.622-30.116C41.1 169.814 37 161.454 37 152c0-1.785.146-3.531.426-5.223C35.214 140.339 34 133.331 34 126c0-12.866 3.739-24.736 10.046-34.275A31.79 31.79 0 0 1 44 90c0-10.957 5.507-20.443 13.529-25.043 7.311-17.588 22.73-29.966 40.774-30.9C102.726 29.075 108.799 26 115.5 26c.951 0 1.889.062 2.812.182C128.09 22.196 138.789 20 150 20c11.211 0 21.91 2.196 31.688 6.182.923-.12 1.861-.182 2.812-.182 6.701 0 12.774 3.075 17.197 8.057 18.044.934 33.463 13.312 40.774 30.9C250.493 69.557 256 79.043 256 90c0 .579-.015 1.155-.046 1.725C262.261 101.264 266 113.134 266 126c0 7.331-1.214 14.339-3.426 20.777.28 1.692.426 3.438.426 5.223 0 9.454-4.1 17.814-10.378 22.884C245.26 192.684 229.39 205 211 205c-1.498 0-2.98-.082-4.441-.242-5.448 5.149-12.438 8.242-20.059 8.242-4.441 0-8.668-1.05-12.5-2.946v-9.443c17.531-8.328 30.048-25.496 31.791-45.744C211.569 154.002 216 149.019 216 143v-13a11.96 11.96 0 0 0-1.334-5.505z" fill="param(fill) #8c522d" /></symbol><symbol fill-rule="evenodd" stroke-linejoin="round" stroke-miterlimit="1.414" id="hair-06"><path d="M209.506 119.335a55.265 55.265 0 0 1-2.326-.909c-.386-.106-.78-.193-1.18-.26v-.249c-12.776-5.683-25.122-16.846-33.89-32.032a86.946 86.946 0 0 1-7.044-15.488c-8.635 10.544-21.321 21.205-36.724 30.098-9.564 5.522-19.195 9.796-28.342 12.771v61.98a56.24 56.24 0 0 0 26 25.365V219h-4c-7.673 0-15.065 1.2-22 3.423V268c0 14.106-10.431 25.776-24 27.716V112c0-40.869 33.131-74 74-74s74 33.131 74 74v123.608C211.525 225.237 195.491 219 178 219h-4v-18.389c17.531-8.328 30.048-25.496 31.791-45.744C211.569 154.002 216 149.019 216 143v-13c0-4.643-2.636-8.669-6.494-10.665z" fill="param(fill) #8c522d" /><path d="M209.506 119.335c4.869 1.773 9.757 2.737 14.494 2.813v113.46C211.525 225.237 195.491 219 178 219h-4v-18.389c17.531-8.328 30.048-25.496 31.791-45.744C211.569 154.002 216 149.019 216 143v-13c0-4.643-2.636-8.669-6.494-10.665zm-2.326-.909c-.386-.106-.78-.193-1.18-.26v-.249c.393.175.786.344 1.18.509zM100 175.246a56.24 56.24 0 0 0 26 25.365V219h-4c-7.673 0-15.065 1.2-22 3.423v-47.177z" fill-opacity=".239" /></symbol><symbol fill-rule="evenodd" stroke-linejoin="round" stroke-miterlimit="1.414" id="hair-07"><path d="M78 192.541v-88.495c0-3.532.398-6.971 1.152-10.275C82.205 73.731 93.775 57.811 107 48c19.905-14.76 53.442-19.018 65.047-1.478 8.651-3.841 21.472-.34 30.953 8.478 9.565 9.415 17.2 30.197 12.657 47.204.105 1.265.158 2.545.158 3.837v21.851a12.01 12.01 0 0 0-9.815-9.726V118c-6.036-21.536-23.77-31.42-34.57-41.223C154.535 95.673 101.823 95.74 84 133v10c0 6.019 4.431 11.002 10.209 11.867 1.743 20.248 14.26 37.416 31.791 45.744V201c2.93 43.855-6.642 98.797-69 82 13.606-7.962 20.808-58.944 21-90.459zm96 8.07c17.531-8.328 30.048-25.496 31.791-45.744a12.007 12.007 0 0 0 10.024-9.759v1.362c0 15.829 3.758 31.431 10.963 45.524l26.949 52.707c6.963 13.619 4.919 29.473-3.936 40.768C246.966 248.289 215.903 219 178 219h-4v-18.389zM137.413 300h82.48-82.48z" fill="param(fill) #8c522d" /><path d="M84 133c17.823-37.26 70.535-37.327 87.43-56.223 10.778 9.783 28.462 19.647 34.533 41.092-6.071-18.602-23.755-25.171-34.533-33.661C154.535 100.607 101.823 100.665 84 133z" fill-opacity=".157" /></symbol><symbol fill-rule="evenodd" stroke-linejoin="round" stroke-miterlimit="1.414" id="hair-08"><path d="M76 122.34c-1.676-.142-3.242-.457-4.147-1.067C68.695 119.143 67 115.051 67 110.5c0-6.904 4.477-12.5 10-12.5 6.863-34.172 36.915-60 73-60 37.556 0 68.577 27.976 73.36 64.226.264 1.998.468 9.128.612 21.389.019.106.028.193.028.26V178c0 17.673-14.327 32-32 32h-18v-9.389c17.531-8.328 30.048-25.496 31.791-45.744C211.569 154.002 216 149.019 216 143v-13c0-1.516-.281-3.487-.794-5.597-17.888-5.384-35.506-21.71-45.762-44.745a98.256 98.256 0 0 1-1.18-2.762c-4.586 12.236-13.217 21.116-25.892 26.639 4.873-5.947 9.022-12.875 12.449-20.783-7.977 8.506-18.348 16.739-30.479 23.743-12.371 7.143-24.933 12.06-36.473 14.679A11.968 11.968 0 0 0 84 130v13c0 6.019 4.431 11.002 10.209 11.867 1.743 20.248 14.26 37.416 31.791 45.744V210H84a8 8 0 0 1-8-8v-79.66z" fill="param(fill) #8c522d" /><path d="M78.899 122.775A8.102 8.102 0 0 1 77 123h-.047a82.83 82.83 0 0 1-.953.093v-.155c-5.053-.627-9-5.956-9-12.438 0-6.904 4.477-12.5 10-12.5.107 0 .215.002.321.006C83.863 63.828 113.915 38 150 38c40.869 0 74 33.131 74 74v14.151c-20.704-1.957-42.618-19.68-54.556-46.493a98.256 98.256 0 0 1-1.18-2.762c-4.586 12.236-13.217 21.116-25.892 26.639 4.873-5.947 9.022-12.875 12.449-20.783-7.977 8.506-18.348 16.739-30.479 23.743-15.663 9.043-31.631 14.52-45.443 16.28z" fill="#9c5b33" fill-opacity=".069" /></symbol><symbol fill-rule="evenodd" stroke-linejoin="round" stroke-miterlimit="1.414" id="hair-09"><path d="M86.033 96.213c12.938-33.084 26.613-49.626 41.025-49.626.539 0 29.253-.238 48.055-.36C195.767 55.585 210 75.304 210 98.115V113h-82.942l-2.805-23.18-3.879 23.18H86V98.115c0-.637.011-1.271.033-1.902z" fill-opacity=".157" /><path d="M205.859 108h-76.801l-2.805-21.444L122.374 108H94.141a56.353 56.353 0 0 0-.141 4v38c0 22.339 13.08 41.623 32 50.611v8.706c-18.146 1.499-35.721 4.018-46 6.683-9.952-13.561-22.884-26.2-23-51-.085-18.985 30.319-97.205 41-110 7.923-9.491 27.695-15.449 52-15 24.305.449 44.862 3.812 53 14 12.324 15.428 40.085 92.015 40 111-.115 24.8-13.047 37.439-23 51-10.279-2.665-27.854-5.184-46-6.683v-8.706c18.92-8.988 32-28.272 32-50.611v-38c0-1.345-.047-2.679-.141-4z" fill="param(fill) #8c522d" /></symbol><symbol fill-rule="evenodd" stroke-linejoin="round" stroke-miterlimit="1.414" id="mouth-01"><path d="M135.82 181.209h-1.38c-1.08 0-2.075-1.178-1.969-2.128a18.87 18.87 0 0 1 6.674-12.408c.67.352 1.418.536 2.208.536h21c.546 0 1.071-.088 1.535-.266a18.888 18.888 0 0 1 6.357 12.226c.078.729-.693 1.915-1.849 2.04h-1.51c-1.252-4.612-5.5-8-10.533-8-1.8 0-3.5.433-5 1.201-1.5-.768-3.2-1.201-5-1.201-5.033 0-9.28 3.388-10.533 8z" fill-opacity=".698" /><path d="M139.145 166.673a18.8 18.8 0 0 1 12.208-4.464c4.797 0 9.178 1.778 12.535 4.734a4.305 4.305 0 0 1-1.535.266h-21c-.79 0-1.538-.184-2.208-.536z" fill="#fff" /><path d="M135.82 181.209c1.252-4.612 5.5-8 10.533-8 1.8 0 3.5.433 5 1.201 1.5-.768 3.2-1.201 5-1.201 5.033 0 9.281 3.388 10.533 8H135.82z" fill="#ff4f6d" /></symbol><symbol fill-rule="evenodd" stroke-linejoin="round" stroke-miterlimit="1.414" id="mouth-02"><path d="M136.308 165.736c0 7.732 6.268 14 14 14s14-6.268 14-14" fill-opacity=".698" /></symbol><symbol fill-rule="evenodd" stroke-linejoin="round" stroke-miterlimit="1.414" id="mouth-03"><path d="M136.308 179.736c0-7.732 6.268-14 14-14s14 6.268 14 14" fill-opacity=".698" /></symbol><symbol fill-rule="evenodd" stroke-linejoin="round" stroke-miterlimit="1.414" id="mouth-04"><g transform="translate(96.874 153.089)"><path d="M44.191 16.106c2.564 1.736 6.014 2.8 9.809 2.8 3.795 0 7.245-1.064 9.809-2.8.173-5.11 4.399-9.309 9.897-10.106-3.366 1.959-5.686 5.495-5.686 9.677 0 5.668 5.473 10.568 11.803 10.568l.177-.001c-1.358.488-2.84.756-4.392.756-5.322 0-9.821-3.153-11.294-7.486-2.475 2.156-6.177 3.525-10.314 3.525-4.137 0-7.839-1.369-10.314-3.525C42.213 23.847 37.714 27 32.392 27c-1.552 0-3.034-.268-4.392-.756l.177.001c6.33 0 11.803-4.9 11.803-10.568 0-4.182-2.32-7.718-5.686-9.677 5.498.797 9.724 4.996 9.897 10.106z" fill-opacity=".358" /><circle cx="17" cy="15" r="9" fill="#ff4646" fill-opacity=".2" /><circle cx="91" cy="15" r="9" fill="#ff4646" fill-opacity=".2" /></g></symbol><symbol fill-rule="evenodd" stroke-linejoin="round" stroke-miterlimit="1.414" id="mouth-05"><path d="M182.982 174.761c0-7.175-5.825-13-13-13h-38c-7.175 0-13 5.825-13 13s5.825 13 13 13h38c7.175 0 13-5.825 13-13z" fill-opacity=".596" /><path d="M180.982 174.761c0-6.071-4.93-11-11-11h-38c-6.071 0-11 4.929-11 11s4.929 11 11 11h38c6.07 0 11-4.929 11-11z" fill="#fff" /><path d="M167.982 176.761h-9v12h-4v-12h-9v12h-4v-12h-9v12h-4v-12h-8v-4h8v-12h4v12h9v-12h4v12h9v-12h4v12h9v-12h4v12h8.867v4h-8.867v12h-4v-12z" fill="#e6e6e6" /></symbol><symbol fill-rule="evenodd" stroke-linejoin="round" stroke-miterlimit="1.414" id="mouth-06"><path d="M136.778 179.858c.65-7.029 6.644-11.723 13.942-11.723 7.342 0 13.363 4.75 13.953 11.848.031.378-.876.676-1.324.452-5.539-2.773-9.748-4.16-12.629-4.16-2.844 0-6.993 1.357-12.446 4.069-.507.252-1.534-.068-1.496-.486z" fill-opacity=".698" /></symbol><symbol fill-rule="evenodd" stroke-linejoin="round" stroke-miterlimit="1.414" id="mouth-07"><path d="M135.197 188.691c-.73.088-1.425.133-2.123.133-1.143 0-2.196-.737-2.084-2.136.716-8.937 2.242-17.009 7.352-21.634.764.493 1.67.77 2.64.77h21c.71 0 1.386-.148 2.015-.43 4.825 4.708 6.308 12.657 6.98 21.424.087 1.13-.82 2.006-1.957 2.006l-2.247-.082c-.976-5.089-5.44-8.918-10.79-8.918-1.8 0-3.5.433-5 1.201-1.5-.768-3.2-1.201-5-1.201-5.351 0-9.814 3.829-10.785 8.867z" fill-opacity=".698" /><path d="M138.343 165.054c2.904-2.678 6.945-4.227 12.636-4.23 5.927-.003 10.072 1.686 13.017 4.57a4.888 4.888 0 0 1-2.014.43h-21c-.97 0-1.875-.277-2.64-.77z" fill="#fff" /><path d="M135.197 188.691c.971-5.038 5.434-8.867 10.785-8.867 1.8 0 3.5.433 5 1.201 1.5-.768 3.2-1.201 5-1.201 5.351 0 9.814 3.829 10.79 8.918-5.16-.363-8.15-1.912-15.8-1.918-7.383-.005-11.779 1.445-15.775 1.867z" fill="#ff4f6d" /></symbol><symbol fill-rule="evenodd" stroke-linejoin="round" stroke-miterlimit="1.414" id="mouth-08"><path d="M162.837 173.582c0-1.656-1.344-3-3-3h-18a3.001 3.001 0 0 0 0 6h18c1.656 0 3-1.344 3-3z" fill-opacity=".698" /></symbol><symbol fill-rule="evenodd" stroke-linejoin="round" stroke-miterlimit="1.414" id="mouth-09"><path d="M137.011 178.62a18.944 18.944 0 0 1-6.199-12.018c-.103-.926.84-2.069 1.97-2.128h1.912c.047 2.807 2.27 5 5 5h21c2.76 0 5-2.24 5-5h1.043c1.116.063 1.93 1.292 1.85 2.04-.512 4.786-2.8 9.04-6.212 12.105a10.906 10.906 0 0 0-7.68-3.145c-1.8 0-3.5.433-5 1.201-1.5-.768-3.2-1.201-5-1.201-2.989 0-5.7 1.194-7.684 3.146z" fill-opacity=".698" /><path d="M165.694 164.474c-.047 2.807-2.27 5-5 5h-21c-2.76 0-5-2.24-5-5h31z" fill="#fff" /><path d="M137.011 178.62a10.911 10.911 0 0 1 7.683-3.146c1.8 0 3.5.433 5 1.201 1.5-.768 3.2-1.201 5-1.201 2.988 0 5.7 1.194 7.681 3.145a18.895 18.895 0 0 1-12.68 4.855 18.937 18.937 0 0 1-12.684-4.854z" fill="#ff4f6d" /></symbol><symbol fill-rule="evenodd" stroke-linejoin="round" stroke-miterlimit="1.414" id="mouth-10"><path d="M172.32 163.462c1.957.038 2.273 1.345 2.173 1.739-1.354 10.444-12.032 18.261-25 18.261-12.938 0-23.59-7.769-25-17.391-.127-1.343.364-2.562 2.174-2.609h7.826c.047 2.807 2.27 5 5 5h21c2.76 0 5-2.24 5-5h6.826z" fill-opacity=".698" /><path d="M165.493 163.462c-.047 2.807-2.27 5-5 5h-21c-2.76 0-5-2.24-5-5h31z" fill="#fff" /><path d="M161.477 174.209c.011.083.016.167.016.253v9c0 6.075-4.925 11-11 11h-1c-6.075 0-11-4.925-11-11v-9c0-.086.005-.17.016-.253a1.852 1.852 0 0 1-.016-.247c0-1.933 2.91-3.5 6.5-3.5 2.01 0 3.808.491 5 1.263 1.192-.772 2.99-1.263 5-1.263 3.59 0 6.5 1.567 6.5 3.5 0 .083-.005.165-.016.247z" fill="#ff4f6d" /></symbol><symbol fill-rule="evenodd" stroke-linejoin="round" stroke-miterlimit="1.414" id="mouth-11"><path d="M136.019 169.207c0 5.372 6.158 9 14 9s14-3.628 14-9c0-1.105-.95-2-2-2-1.293 0-1.87.905-2 2-1.242 2.938-4.317 4.716-10 5-5.683-.284-8.758-2.062-10-5-.13-1.095-.707-2-2-2-1.05 0-2 .895-2 2z" fill-opacity=".596" fill-rule="nonzero" /></symbol><symbol fill-rule="evenodd" stroke-linejoin="round" stroke-miterlimit="1.414" id="mouth-12"><path d="M136.772 164.563a4.871 4.871 0 0 0 3.343 1.307h21a4.933 4.933 0 0 0 2.835-.888c4.182 3.575 5.528 9.209 6.159 15.383.086.848-.82 1.505-1.958 1.505-6.686 0-9.367-1.495-18.048-1.5-8.68-.005-13.232 1.5-17.897 1.5-1.142 0-2.195-.552-2.083-1.602.68-6.366 2.09-12.147 6.649-15.705z" fill-opacity=".698" /><path d="M136.772 164.563c2.9-2.313 7.142-3.691 13.339-3.693 6.526-.002 10.892 1.533 13.839 4.112a4.933 4.933 0 0 1-2.835.888h-21a4.871 4.871 0 0 1-3.343-1.307z" fill="#fff" /><path d="M156.031 185.87a6.001 6.001 0 0 0-11.834 0h-.083v2a6 6 0 1 1-12 0v-7a6 6 0 0 1 6-6h24a6 6 0 0 1 6 6v5a6 6 0 1 1-12 0h-.083z" fill="#88c553" /></symbol><symbol fill-rule="evenodd" stroke-linejoin="round" stroke-miterlimit="1.414" id="nose-01"><path d="M137.936 146.813c0 4.418 5.373 8 12 8s12-3.582 12-8" fill-opacity=".157" /></symbol></defs></svg>