<?xml version="1.0" encoding="UTF-8" standalone="no"?>
<!DOCTYPE svg PUBLIC "-//W3C//DTD SVG 1.1//EN" "http://www.w3.org/Graphics/SVG/1.1/DTD/svg11.dtd">
<svg width="100%" height="100%" viewBox="0 0 300 300" version="1.1" xmlns="http://www.w3.org/2000/svg" xmlns:xlink="http://www.w3.org/1999/xlink" xml:space="preserve" xmlns:serif="http://www.serif.com/" style="fill-rule:evenodd;clip-rule:evenodd;stroke-linejoin:round;stroke-miterlimit:1.41421;">
    <g transform="matrix(1,0,0,1,92.4218,150)">
        <g id="eye">
            <path id="eye-05" d="M96.586,0C106.527,0 111.586,7 114.586,14.106C115.107,15.34 115.586,16 114.511,15.993C113.436,15.987 111.687,4.135 96.586,4.135C81.833,4.135 79.586,16 78.586,16C77.586,16 78.26,14.988 78.586,14.106C81.586,6 86.645,0 96.586,0ZM18.526,0C28.467,0 33.526,7 36.526,14.106C37.047,15.34 37.526,16 36.451,15.993C35.376,15.987 33.627,4.135 18.526,4.135C3.773,4.135 1.526,16 0.526,16C-0.474,16 0.2,14.988 0.526,14.106C3.526,6 8.585,0 18.526,0Z"/>
        </g>
    </g>
</svg>
