<?xml version="1.0" encoding="UTF-8" standalone="no"?>
<!DOCTYPE svg PUBLIC "-//W3C//DTD SVG 1.1//EN" "http://www.w3.org/Graphics/SVG/1.1/DTD/svg11.dtd">
<svg width="100%" height="100%" viewBox="0 0 300 300" version="1.1" xmlns="http://www.w3.org/2000/svg" xmlns:xlink="http://www.w3.org/1999/xlink" xml:space="preserve" xmlns:serif="http://www.serif.com/" style="fill-rule:evenodd;clip-rule:evenodd;stroke-linejoin:round;stroke-miterlimit:1.41421;">
    <g transform="matrix(1,0,0,1,87,125)">
        <g id="eye">
            <g id="eye-03">
                <path id="Combined-Shape" d="M49.817,21.962C53.658,19.002 59.054,17.5 63.279,17.5C67.321,17.5 72.434,18.874 76.231,21.584C77.897,9.393 88.352,0 101,0C114.807,0 126,11.193 126,25C126,38.807 114.807,50 101,50C87.249,50 76.091,38.898 76.001,25.168C72.688,22.036 67.215,20.5 63.279,20.5C59.109,20.5 53.212,22.224 49.989,25.746C49.594,39.208 38.557,50 25,50C11.193,50 0,38.807 0,25C0,11.193 11.193,0 25,0C37.779,0 48.318,9.588 49.817,21.962ZM101,48C113.703,48 124,37.703 124,25C124,12.297 113.703,2 101,2C88.297,2 78,12.297 78,25C78,37.703 88.297,48 101,48ZM25,48C37.703,48 48,37.703 48,25C48,12.297 37.703,2 25,2C12.297,2 2,12.297 2,25C2,37.703 12.297,48 25,48Z" style="fill-rule:nonzero;"/>
                <path id="_1-copy-4" serif:id="1-copy-4" d="M101,48C88.297,48 78,37.703 78,25C78,12.297 88.297,2 101,2C113.703,2 124,12.297 124,25C124,37.703 113.703,48 101,48ZM25,48C12.297,48 2,37.703 2,25C2,12.297 12.297,2 25,2C37.703,2 48,12.297 48,25C48,37.703 37.703,48 25,48Z" style="fill-opacity:0.95;"/>
            </g>
        </g>
    </g>
</svg>
