<?xml version="1.0" encoding="UTF-8" standalone="no"?>
<!DOCTYPE svg PUBLIC "-//W3C//DTD SVG 1.1//EN" "http://www.w3.org/Graphics/SVG/1.1/DTD/svg11.dtd">
<svg width="100%" height="100%" viewBox="0 0 300 300" version="1.1" xmlns="http://www.w3.org/2000/svg" xmlns:xlink="http://www.w3.org/1999/xlink" xml:space="preserve" xmlns:serif="http://www.serif.com/" style="fill-rule:evenodd;clip-rule:evenodd;stroke-linejoin:round;stroke-miterlimit:1.41421;">
    <g transform="matrix(1,0,0,1,92,149.763)">
        <g id="eye">
            <g id="eye-09">
                <path id="Combined-Shape" d="M100.271,27.801C90.481,29.528 81.145,22.991 79.419,13.2C77.692,3.41 85.966,3.923 95.756,2.196C105.546,0.47 113.145,-2.841 114.872,6.949C116.598,16.739 110.061,26.075 100.271,27.801ZM15.729,27.801C5.939,26.075 -0.598,16.739 1.128,6.949C2.855,-2.841 10.454,0.47 20.244,2.196C30.034,3.923 38.308,3.41 36.581,13.2C34.855,22.991 25.519,29.528 15.729,27.801Z" style="fill:white;"/>
                <circle id="_2" serif:id="2" cx="97" cy="12" r="6" style="fill:rgb(74,74,74);"/>
                <circle id="_1" serif:id="1" cx="19" cy="12" r="6" style="fill:rgb(74,74,74);"/>
                <g id="Shape" transform="matrix(1,0,0,1,-72,-44.1563)">
                    <path d="M93.275,28C95.601,28 109.362,28.581 116.533,33.427C117.502,34.008 119.052,33.621 120.215,33.621L139.79,33.621C141.147,33.621 142.891,33.814 144.054,33.039C155.489,26.449 167.7,28.388 179.716,29.744C187.662,30.52 195.415,32.652 203.167,33.814C206.85,34.396 209.563,35.753 209.951,39.435C210.339,42.924 208.4,45.249 205.106,46.218C201.229,47.575 199.679,50.482 199.485,54.359C199.291,58.235 199.291,62.111 198.71,65.794C197.353,75.872 192.12,83.043 181.848,85.369C176.034,86.726 169.832,87.307 164.017,86.726C149.675,85.175 142.504,77.229 139.79,61.336C139.209,58.429 139.015,55.522 138.434,52.808C137.465,48.35 134.751,45.831 129.906,45.637C125.061,45.637 122.347,48.157 121.184,52.614C120.409,56.103 120.021,59.592 119.44,63.08C115.176,83.431 103.741,88.47 84.554,86.532C67.304,84.787 60.327,76.066 60.521,58.816C60.521,52.808 59.745,47.769 52.962,45.443C51.411,44.862 49.667,41.373 50.055,39.629C50.442,37.691 52.768,34.977 54.706,34.59C61.102,33.039 67.11,31.295 73.7,30.326C80.096,29.163 90.949,28 93.275,28ZM92.5,34.977C88.236,35.171 84.36,35.365 80.483,35.946C70.018,38.078 65.172,43.699 64.785,54.165C64.785,56.297 65.366,58.235 65.366,60.367C65.366,77.229 85.523,86.532 100.252,78.779C111.106,73.159 118.471,57.266 115.37,45.443C114.013,40.404 110.525,37.109 105.292,35.946C101.028,35.365 96.57,35.171 92.5,34.977ZM166.537,35.171C164.017,35.171 161.304,34.977 158.784,35.171C149.675,35.753 143.861,40.21 143.473,48.157C142.698,58.235 145.605,67.732 153.164,74.903C158.59,80.136 165.374,81.88 172.933,80.911C189.988,78.585 196.772,67.344 193.283,47.769C192.314,42.342 188.438,38.466 183.205,37.109C177.584,35.753 171.964,35.559 166.537,35.171Z" style="fill-opacity:0.6;"/>
                </g>
            </g>
        </g>
    </g>
</svg>
