<?xml version="1.0" encoding="UTF-8" standalone="no"?>
<!DOCTYPE svg PUBLIC "-//W3C//DTD SVG 1.1//EN" "http://www.w3.org/Graphics/SVG/1.1/DTD/svg11.dtd">
<svg width="100%" height="100%" viewBox="0 0 300 300" version="1.1" xmlns="http://www.w3.org/2000/svg" xmlns:xlink="http://www.w3.org/1999/xlink" xml:space="preserve" xmlns:serif="http://www.serif.com/" style="fill-rule:evenodd;clip-rule:evenodd;stroke-linejoin:round;stroke-miterlimit:1.41421;">
    <g transform="matrix(1,0,0,1,90,150)">
        <g id="eye">
            <g id="eye-04">
                <path id="Combined-Shape" d="M92,0L112,0C116.418,0 120,3.582 120,8C120,12.418 116.418,16 112,16L92,16C87.582,16 84,12.418 84,8C84,3.582 87.582,0 92,0ZM50,0L70,0C74.418,0 78,3.582 78,8C78,12.418 74.418,16 70,16L50,16C45.582,16 42,12.418 42,8C42,3.582 45.582,0 50,0ZM8,0L28,0C32.418,0 36,3.582 36,8C36,12.418 32.418,16 28,16L8,16C3.582,16 0,12.418 0,8C0,3.582 3.582,0 8,0Z" style="fill:white;"/>
                <path id="Combined-Shape1" serif:id="Combined-Shape" d="M102,14C98.686,14 96,11.314 96,8C96,4.686 98.686,2 102,2C105.314,2 108,4.686 108,8C108,11.314 105.314,14 102,14ZM60,14C56.686,14 54,11.314 54,8C54,4.686 56.686,2 60,2C63.314,2 66,4.686 66,8C66,11.314 63.314,14 60,14ZM18,14C14.686,14 12,11.314 12,8C12,4.686 14.686,2 18,2C21.314,2 24,4.686 24,8C24,11.314 21.314,14 18,14Z" style="fill:rgb(74,74,74);"/>
            </g>
        </g>
    </g>
</svg>
