<?xml version="1.0" encoding="UTF-8" standalone="no"?>
<!DOCTYPE svg PUBLIC "-//W3C//DTD SVG 1.1//EN" "http://www.w3.org/Graphics/SVG/1.1/DTD/svg11.dtd">
<svg width="100%" height="100%" viewBox="0 0 300 300" version="1.1" xmlns="http://www.w3.org/2000/svg" xmlns:xlink="http://www.w3.org/1999/xlink" xml:space="preserve" xmlns:serif="http://www.serif.com/" style="fill-rule:evenodd;clip-rule:evenodd;stroke-linejoin:round;stroke-miterlimit:1.41421;">
    <g transform="matrix(1,0,0,1,93,149.192)">
        <g id="eye">
            <path id="eye-08" d="M106.071,15L111.728,20.657C113.681,22.609 113.681,25.775 111.728,27.728C109.775,29.681 106.609,29.681 104.657,27.728L99,22.071L93.343,27.728C91.391,29.681 88.225,29.681 86.272,27.728C84.319,25.775 84.319,22.609 86.272,20.657L91.929,15L86.272,9.343C84.319,7.391 84.319,4.225 86.272,2.272C88.225,0.319 91.391,0.319 93.343,2.272L99,7.929L104.657,2.272C106.609,0.319 109.775,0.319 111.728,2.272C113.681,4.225 113.681,7.391 111.728,9.343L106.071,15ZM64.071,15L69.728,20.657C71.681,22.609 71.681,25.775 69.728,27.728C67.775,29.681 64.609,29.681 62.657,27.728L57,22.071L51.343,27.728C49.391,29.681 46.225,29.681 44.272,27.728C42.319,25.775 42.319,22.609 44.272,20.657L49.929,15L44.272,9.343C42.319,7.391 42.319,4.225 44.272,2.272C46.225,0.319 49.391,0.319 51.343,2.272L57,7.929L62.657,2.272C64.609,0.319 67.775,0.319 69.728,2.272C71.681,4.225 71.681,7.391 69.728,9.343L64.071,15ZM22.071,15L27.728,20.657C29.681,22.609 29.681,25.775 27.728,27.728C25.775,29.681 22.609,29.681 20.657,27.728L15,22.071L9.343,27.728C7.391,29.681 4.225,29.681 2.272,27.728C0.319,25.775 0.319,22.609 2.272,20.657L7.929,15L2.272,9.343C0.319,7.391 0.319,4.225 2.272,2.272C4.225,0.319 7.391,0.319 9.343,2.272L15,7.929L20.657,2.272C22.609,0.319 25.775,0.319 27.728,2.272C29.681,4.225 29.681,7.391 27.728,9.343L22.071,15Z" style="fill:rgb(51,51,51);fill-opacity:0.701961;"/>
        </g>
    </g>
</svg>
