<?xml version="1.0" encoding="UTF-8" standalone="no"?>
<!DOCTYPE svg PUBLIC "-//W3C//DTD SVG 1.1//EN" "http://www.w3.org/Graphics/SVG/1.1/DTD/svg11.dtd">
<svg width="100%" height="100%" viewBox="0 0 300 300" version="1.1" xmlns="http://www.w3.org/2000/svg" xmlns:xlink="http://www.w3.org/1999/xlink" xml:space="preserve" xmlns:serif="http://www.serif.com/" style="fill-rule:evenodd;clip-rule:evenodd;stroke-linejoin:round;stroke-miterlimit:1.41421;">
    <g transform="matrix(1,0,0,1,110,158.296)">
        <g id="nose">
            <path id="nose-02" d="M44.04,51.323C42.75,51.571 41.396,51.704 40,51.704C38.352,51.704 36.762,51.519 35.266,51.176C34.788,49.409 33.419,47.654 31.407,46.492C29.557,45.424 27.543,45.078 25.854,45.395C24.671,43.741 24,41.854 24,39.852C24,33.306 31.163,28 40,28C48.837,28 56,33.306 56,39.852C56,41.908 55.293,43.843 54.049,45.528C52.258,45.009 49.996,45.303 47.936,46.492C45.869,47.686 44.481,49.506 44.04,51.323Z" style="fill-opacity:0.2;"/>
        </g>
    </g>
</svg>
