<?xml version="1.0" encoding="UTF-8" standalone="no"?>
<svg width="100%" height="100%" viewBox="0 0 200 200" version="1.1" xmlns="http://www.w3.org/2000/svg" xmlns:xlink="http://www.w3.org/1999/xlink" xml:space="preserve" xmlns:serif="http://www.serif.com/" style="fill-rule:evenodd;clip-rule:evenodd;stroke-linecap:round;stroke-linejoin:round;stroke-miterlimit:1.5;">
    <g id="Eyebrows">
        <g>
            <path d="M70,68.5c6.742,-4.68 13.419,-5.352 20,0c-0.472,-3.872 -5.258,-5.904 -9.5,-5.74c-6.414,0.249 -10.039,5.159 -10.5,5.74" style="fill:none;stroke:#323232;stroke-width:2.5px;" />
            <path id="_-Curva-" serif:id="(Curva)" d="M112,70.5c0.348,0.288 -0.028,0.576 1.824,1.246c5.283,1.913 12.173,-0.667 17.176,-1.246c-1.769,0.105 -3.537,0.21 -5.308,0.276c-2.73,0.101 -5.46,0.234 -8.192,0.224c-1.308,-0.005 -2.613,-0.152 -3.916,-0.271c-0.531,-0.048 -1.058,-0.139 -1.584,-0.229" style="fill:none;stroke:#323232;stroke-width:2.5px;" />
        </g>
    </g>
</svg>
