<?xml version="1.0" encoding="UTF-8" standalone="no"?>
<svg width="100%" height="100%" viewBox="0 0 200 200" version="1.1" xmlns="http://www.w3.org/2000/svg" xmlns:xlink="http://www.w3.org/1999/xlink" xml:space="preserve" xmlns:serif="http://www.serif.com/" style="fill-rule:evenodd;clip-rule:evenodd;stroke-linejoin:round;stroke-miterlimit:1.41421;">
    <g id="Body">
        <path d="M54.772,101.5l-0.444,0c-5.093,0 -9.228,-4.135 -9.228,-9.228c0,-5.093 4.135,-9.227 9.228,-9.227l0.444,0c0.37,0 0.735,0.022 1.094,0.064c3.906,-40.081 20.765,-53.361 45.844,-53.609c22.644,-0.224 38.657,14.087 42.436,53.608c0.355,-0.042 0.716,-0.063 1.082,-0.063l0.151,0c5.093,0 9.227,4.134 9.227,9.227c0,5.093 -4.134,9.228 -9.227,9.228l-0.151,0c-0.076,0 -0.152,-0.001 -0.228,-0.003l0,0.003c0.003,0.857 -0.111,1.748 -0.122,2.68c-0.314,25.772 -12.852,42.399 -29.482,48.593l47.604,47.227l-126,0l47.507,-47.13c-16.693,-6.039 -28.802,-22.43 -29.48,-48.661c-0.023,-0.891 -0.031,-1.794 -0.027,-2.709l0,-0.003c-0.076,0.002 -0.151,0.003 -0.228,0.003Z" style="fill:#ffbd9d;" />
    </g>
</svg>