<?xml version="1.0" encoding="UTF-8" standalone="no"?>
<!DOCTYPE svg PUBLIC "-//W3C//DTD SVG 1.1//EN" "http://www.w3.org/Graphics/SVG/1.1/DTD/svg11.dtd">
<svg width="100%" height="100%" viewBox="0 0 300 300" version="1.1" xmlns="http://www.w3.org/2000/svg" xmlns:xlink="http://www.w3.org/1999/xlink" xml:space="preserve" xmlns:serif="http://www.serif.com/" style="fill-rule:evenodd;clip-rule:evenodd;stroke-linejoin:round;stroke-miterlimit:1.41421;">
    <g transform="matrix(1,0,0,1,93.6409,101.749)">
        <g id="eye">
            <g id="eye-01">
                <g id="Closed-Eye" transform="matrix(1,0,0,-1,0,60)">
                    <path d="M16.16,32.447C18.007,28.649 22.164,26 26.998,26C31.814,26 35.959,28.63 37.815,32.407C38.367,33.529 37.582,34.447 36.791,33.767C34.34,31.66 30.859,30.344 26.998,30.344C23.257,30.344 19.874,31.579 17.438,33.572C16.547,34.3 15.62,33.558 16.16,32.447Z" style="fill-opacity:0.596078;"/>
                </g>
                <g id="Closed-Eye1" serif:id="Closed-Eye" transform="matrix(1,0,0,-1,0,60)">
                    <path d="M74.16,32.447C76.007,28.649 80.164,26 84.998,26C89.814,26 93.959,28.63 95.815,32.407C96.367,33.529 95.582,34.447 94.791,33.767C92.34,31.66 88.859,30.344 84.998,30.344C81.257,30.344 77.874,31.579 75.438,33.572C74.547,34.3 73.62,33.558 74.16,32.447Z" style="fill-opacity:0.596078;"/>
                </g>
            </g>
        </g>
    </g>
</svg>
