<?xml version="1.0" encoding="UTF-8" standalone="no"?>
<svg width="100%" height="100%" viewBox="0 0 200 200" version="1.1" xmlns="http://www.w3.org/2000/svg" xmlns:xlink="http://www.w3.org/1999/xlink" xml:space="preserve" xmlns:serif="http://www.serif.com/" style="fill-rule:evenodd;clip-rule:evenodd;stroke-linejoin:round;stroke-miterlimit:1.41421;">
    <g id="Mouths">
      <g>
        <path d="M89.585,134.127c2.63,-0.647 6.199,-1.07 10.152,-1.134c3.948,-0.058 7.541,0.259 10.186,0.83c-2.603,2.227 -6.17,3.611 -10.118,3.67c-3.948,0.058 -7.555,-1.219 -10.22,-3.366Z" style="fill:#c83d3a;" />
        <path d="M114.293,124.298l0.034,0.421c0.053,3.56 -1.638,6.801 -4.404,9.104c-2.645,-0.571 -6.238,-0.888 -10.186,-0.83c-3.953,0.064 -7.522,0.487 -10.156,1.132c-2.809,-2.203 -4.59,-5.36 -4.667,-8.912c0.455,0.158 7.135,2.424 15.469,2.27c7.107,-0.131 11.611,-1.593 13.663,-2.703c0.161,-0.087 0.23,-0.287 0.247,-0.482Z" />
        <path d="M84.914,125.213l-0.004,-0.058c-0.103,-6.906 6.526,-1.39 14.689,-1.473c7.947,-0.118 14.35,-5.651 14.694,0.616c-0.017,0.195 -0.086,0.395 -0.247,0.482c-2.052,1.11 -6.556,2.572 -13.663,2.703c-8.334,0.154 -15.014,-2.112 -15.469,-2.27Z" style="fill:#fff;" />
      </g>
    </g>
</svg>
