<?xml version="1.0" encoding="UTF-8" standalone="no"?>
<svg width="100%" height="100%" viewBox="0 0 200 200" version="1.1" xmlns="http://www.w3.org/2000/svg" xmlns:xlink="http://www.w3.org/1999/xlink" xml:space="preserve" xmlns:serif="http://www.serif.com/" style="fill-rule:evenodd;clip-rule:evenodd;stroke-linejoin:round;stroke-miterlimit:1.41421;">
    <g id="Mouths">
      <g>
        <path d="M109.24,124.091c3.107,2.204 5.089,5.577 5.145,9.37c0.103,6.93 -6.428,1.352 -14.367,1.469c-7.94,0.118 -14.301,5.888 -14.404,-1.042c-0.057,-3.897 1.93,-7.412 5.127,-9.714c2.631,0.554 6.063,1.004 9.843,0.934c3.529,-0.066 6.402,-0.474 8.656,-1.017Z" />
        <path d="M90.741,124.174c2.425,-1.879 5.598,-3.003 9.072,-3.055c3.594,-0.053 6.899,1.051 9.427,2.972c-2.254,0.543 -5.127,0.951 -8.656,1.017c-3.78,0.07 -7.212,-0.38 -9.843,-0.934Z" style="fill:#fff;" />
      </g>
    </g>
</svg>
