<?xml version="1.0" encoding="UTF-8" standalone="no"?>
<svg width="100%" height="100%" viewBox="0 0 200 200" version="1.1" xmlns="http://www.w3.org/2000/svg" xmlns:xlink="http://www.w3.org/1999/xlink" xml:space="preserve" xmlns:serif="http://www.serif.com/" style="fill-rule:evenodd;clip-rule:evenodd;stroke-linejoin:round;stroke-miterlimit:1.41421;">
    <g id="Mouths">
        <g>
          <path d="M88.925,122.643l-0.147,1.936c0,0 4.661,2.265 10.774,2.289c5.039,0.019 8.34,-1.18 9.878,-2.115c0.275,-0.168 0.257,-0.863 0.257,-0.863l0.084,-1.099l9.526,0.068c-10.186,9.415 -23.367,16.176 -38.883,-0.276l8.511,0.06Z" />
          <path d="M88.925,122.643l20.846,0.148l-0.084,1.099c0,0 0.018,0.695 -0.257,0.863c-1.538,0.935 -4.839,2.134 -9.878,2.115c-6.113,-0.024 -10.774,-2.289 -10.774,-2.289l0.147,-1.936Z" style="fill:#fff;" />
        </g>
    </g>
</svg>
