<?xml version="1.0" encoding="UTF-8" standalone="no"?>
<!DOCTYPE svg PUBLIC "-//W3C//DTD SVG 1.1//EN" "http://www.w3.org/Graphics/SVG/1.1/DTD/svg11.dtd">
<svg width="100%" height="100%" viewBox="0 0 300 300" version="1.1" xmlns="http://www.w3.org/2000/svg" xmlns:xlink="http://www.w3.org/1999/xlink" xml:space="preserve" xmlns:serif="http://www.serif.com/" style="fill-rule:evenodd;clip-rule:evenodd;stroke-linejoin:round;stroke-miterlimit:1.41421;">
    <g transform="matrix(1,0,0,1,17.4255,18)">
        <g id="horn">
            <g id="horn-07">
                <g id="Mask" transform="matrix(1,0,0,1,120,18)">
                    <path d="M10,21C10,13.922 12.735,7.645 17.536,2.192C19.747,-0.319 21.076,1.274 19.071,3.761C15.016,8.794 13,14.533 13,21L14.25,41C14.708,43 15.333,44.333 16,45C17.333,46.333 20,47.833 24,48.5L24,54L0,54L0,48.5C4,47.833 6.667,46.333 8,45C8.573,44.427 9.023,43.361 9.35,41.802L10,21Z" style="fill:rgb(16,190,151);fill-rule:nonzero;"/>
                </g>
                <path id="Path-5-Copy" d="M138.879,22.002C134.952,26.977 133,32.636 133,39L135,71L129,71L130,39C130,32.003 132.673,25.788 137.373,20.378C139.616,17.797 140.915,19.423 138.879,22.002Z" style="fill:url(#_Linear1);fill-rule:nonzero;"/>
                <g id="Oval" transform="matrix(0.990268,-0.139173,0.139173,0.990268,-1.87945,20.7301)">
                    <path d="M147.287,30.66C152.381,30.66 157.206,28.374 161.761,23.804C157.19,19.233 152.366,16.948 147.287,16.948C142.209,16.948 137.384,19.233 132.813,23.804C137.368,28.374 142.193,30.66 147.287,30.66Z" style="fill:rgb(16,190,151);"/>
                </g>
                <g id="Oval-Copy" transform="matrix(-3.82857e-16,-1,1,-3.82857e-16,120.707,148.421)">
                    <path d="M134.564,20.421C139.441,20.421 144.06,18.233 148.421,13.857C144.045,9.481 139.426,7.293 134.564,7.293C129.702,7.293 125.083,9.481 120.707,13.857C125.068,18.233 129.687,20.421 134.564,20.421Z" style="fill:rgb(16,190,151);"/>
                </g>
            </g>
        </g>
    </g>
    <defs>
        <linearGradient id="_Linear1" x1="0" y1="0" x2="1" y2="0" gradientUnits="userSpaceOnUse" gradientTransform="matrix(0.427286,-35.981,35.981,0.427286,131.329,63.6595)"><stop offset="0" style="stop-color:rgb(16,190,151);stop-opacity:1"/><stop offset="1" style="stop-color:rgb(16,190,151);stop-opacity:1"/></linearGradient>
    </defs>
</svg>
