<?xml version="1.0" encoding="UTF-8" standalone="no"?>
<!DOCTYPE svg PUBLIC "-//W3C//DTD SVG 1.1//EN" "http://www.w3.org/Graphics/SVG/1.1/DTD/svg11.dtd">
<svg width="100%" height="100%" viewBox="0 0 300 300" version="1.1" xmlns="http://www.w3.org/2000/svg" xmlns:xlink="http://www.w3.org/1999/xlink" xml:space="preserve" xmlns:serif="http://www.serif.com/" style="fill-rule:evenodd;clip-rule:evenodd;stroke-linejoin:round;stroke-miterlimit:1.41421;">
    <g transform="matrix(1,0,0,1,33.0877,55.5721)">
        <g id="horn">
            <path id="horn-04" d="M25.264,14.02C27.105,15.715 28.919,17.804 30.203,20.237C32.058,23.752 32.832,24.656 36.577,32.672C37.872,35.444 39.449,38.725 40.286,40.434C43.554,47.113 45.83,49.358 48.397,52.019C54.407,58.248 62.709,60.354 71.285,63.162C72.597,63.592 71.364,66.865 70.934,68.178C70.504,69.49 68.166,72.432 66.854,72.002C57.511,68.943 49.531,63.995 42.949,57.173C39.915,54.028 37.111,49.381 33.625,42.259C32.772,40.515 31.978,38.84 30.671,36.043C30.052,34.717 29.465,33.47 28.907,32.299C26.769,30.567 23.937,29.719 20.297,29.758C14.247,29.823 8.318,27.472 2.561,22.801C1.488,21.931 1.324,20.356 2.194,19.284C3.064,18.212 4.639,18.048 5.711,18.918C10.613,22.896 15.441,24.81 20.243,24.758C22.103,24.738 23.843,24.911 25.455,25.278C22.114,18.799 19.994,15.936 17.531,14.409C11.007,10.364 6.899,6.299 5.274,2.058C4.78,0.768 5.425,-0.677 6.714,-1.171C8.004,-1.665 9.449,-1.021 9.943,0.269C11.1,3.288 14.485,6.636 20.166,10.159C20.65,10.46 21.193,10.814 21.772,11.219C22.511,7.116 22.3,3.207 21.148,-0.531C20.822,-1.587 21.414,-2.706 22.47,-3.032C23.526,-3.357 24.645,-2.765 24.97,-1.709C26.513,3.296 26.606,8.551 25.264,14.02ZM208.561,13.952C207.219,8.483 207.312,3.229 208.854,-1.777C209.179,-2.833 210.299,-3.425 211.354,-3.1C212.41,-2.774 213.002,-1.655 212.677,-0.599C211.525,3.139 211.314,7.048 212.052,11.152C212.632,10.746 213.174,10.392 213.659,10.091C219.34,6.569 222.725,3.22 223.881,0.201C224.375,-1.089 225.821,-1.733 227.11,-1.239C228.4,-0.745 229.044,0.7 228.55,1.99C226.925,6.231 222.817,10.296 216.294,14.341C213.831,15.868 211.71,18.731 208.369,25.21C209.982,24.843 211.721,24.67 213.582,24.69C218.384,24.742 223.211,22.828 228.114,18.85C229.186,17.98 230.76,18.144 231.63,19.216C232.5,20.288 232.336,21.863 231.264,22.733C225.506,27.404 219.578,29.756 213.528,29.69C209.887,29.651 207.056,30.499 204.917,32.231C204.36,33.402 203.773,34.649 203.153,35.976C201.846,38.772 201.053,40.447 200.2,42.191C196.714,49.313 193.909,53.96 190.875,57.105C184.293,63.927 176.314,68.875 166.97,71.934C165.658,72.364 163.32,69.422 162.891,68.11C162.461,66.797 161.227,63.524 162.54,63.094C171.116,60.286 179.417,58.18 185.427,51.951C187.994,49.29 190.27,47.045 193.539,40.366C194.375,38.657 195.952,35.376 197.247,32.604C200.993,24.588 201.767,23.684 203.621,20.169C204.905,17.736 206.72,15.647 208.561,13.952Z" style="fill:rgb(64,39,64);fill-rule:nonzero;"/>
        </g>
    </g>
</svg>
