<?xml version="1.0" encoding="UTF-8" standalone="no"?>
<!DOCTYPE svg PUBLIC "-//W3C//DTD SVG 1.1//EN" "http://www.w3.org/Graphics/SVG/1.1/DTD/svg11.dtd">
<svg width="100%" height="100%" viewBox="0 0 300 300" version="1.1" xmlns="http://www.w3.org/2000/svg" xmlns:xlink="http://www.w3.org/1999/xlink" xml:space="preserve" xmlns:serif="http://www.serif.com/" style="fill-rule:evenodd;clip-rule:evenodd;stroke-linejoin:round;stroke-miterlimit:1.41421;">
    <g transform="matrix(1,0,0,1,55.8034,62.6789)">
        <g id="horn">
            <path id="horn-02" d="M57.392,41.177C59.014,43.494 57.924,52.484 51.138,59.367C46.614,63.956 40.454,66.255 32.66,66.263C9.95,56.843 -0.807,41.069 0.387,18.94C2.178,-14.253 4.961,4.515 22.081,19.719C42.208,37.593 55.773,38.865 57.392,41.177ZM131.001,40.992C132.62,38.68 146.185,37.409 166.312,19.534C183.432,4.331 186.215,-14.438 188.006,18.755C189.2,40.884 178.443,56.659 155.733,66.078C147.939,66.07 141.779,63.771 137.255,59.182C130.469,52.299 129.379,43.309 131.001,40.992Z" style="fill:rgb(64,39,64);"/>
        </g>
    </g>
</svg>
