<?xml version="1.0" encoding="UTF-8" standalone="no"?>
<!DOCTYPE svg PUBLIC "-//W3C//DTD SVG 1.1//EN" "http://www.w3.org/Graphics/SVG/1.1/DTD/svg11.dtd">
<svg width="100%" height="100%" viewBox="0 0 300 300" version="1.1" xmlns="http://www.w3.org/2000/svg" xmlns:xlink="http://www.w3.org/1999/xlink" xml:space="preserve" xmlns:serif="http://www.serif.com/" style="fill-rule:evenodd;clip-rule:evenodd;stroke-linejoin:round;stroke-miterlimit:1.41421;">
    <g transform="matrix(1,0,0,1,18.1353,18.1668)">
        <g id="horn">
            <path id="horn-08" d="M182.726,92.288C185.696,93.484 187.726,93.288 191.726,91.288C193.962,90.17 196.628,87.17 199.726,82.288C201.059,90.288 201.392,96.288 200.726,100.288C199.684,106.54 198.017,110.54 195.726,112.288C190.392,110.954 186.726,108.288 184.726,104.288C181.726,98.288 182.726,92.288 182.726,92.288ZM161.559,91.725C164.559,92.725 167.559,91.725 168.559,90.725C170.492,88.793 172.492,83.126 174.559,79.725C176.559,86.392 176.892,95.392 175.559,100.725C174.616,104.496 172.95,108.163 170.559,111.725C165.892,111.059 162.892,108.392 161.559,103.725C159.559,96.725 161.559,91.725 161.559,91.725ZM139.599,100.451C138.266,105.117 135.932,108.784 132.599,111.451C129.231,107.755 127.075,104.022 126.132,100.251C124.799,94.918 126.955,85.984 132.599,79.451C138.599,86.784 140.932,95.784 139.599,100.451ZM106.158,92C106.158,92 108.158,97 106.158,104C104.825,108.667 101.825,111.333 97.158,112C94.767,108.438 93.101,104.771 92.158,101C90.825,95.667 91.158,88.667 93.158,80C95.225,85.401 97.225,89.067 99.158,91C100.158,92 103.158,93 106.158,92ZM81.004,92C81.004,92 82.004,98 79.004,104C77.004,108 73.337,110.667 68.004,112C65.712,110.253 64.046,106.253 63.004,100C62.337,96 62.67,90 64.004,82C67.101,86.882 69.768,89.882 72.004,91C76.004,93 78.033,93.197 81.004,92ZM132.599,71C129,68 125.702,66.748 125.767,65.448C125.985,61.137 128.262,54.471 132.599,49.451C136.931,54.746 139.352,61.345 139.861,65.25C140.057,66.753 136,68 132.599,71Z" style="fill:rgb(64,39,64);"/>
        </g>
    </g>
</svg>
