<?xml version="1.0" encoding="UTF-8" standalone="no"?>
<!DOCTYPE svg PUBLIC "-//W3C//DTD SVG 1.1//EN" "http://www.w3.org/Graphics/SVG/1.1/DTD/svg11.dtd">
<svg width="100%" height="100%" viewBox="0 0 300 300" version="1.1" xmlns="http://www.w3.org/2000/svg" xmlns:xlink="http://www.w3.org/1999/xlink" xml:space="preserve" xmlns:serif="http://www.serif.com/" style="fill-rule:evenodd;clip-rule:evenodd;stroke-linejoin:round;stroke-miterlimit:1.41421;">
    <g transform="matrix(1,0,0,1,18,18)">
        <g id="horn">
            <g id="horn-06">
                <g id="Mask" transform="matrix(1,0,0,1,120,13)">
                    <path d="M10,26C10,15.663 15.833,7.034 25.419,0.186L26.581,1.814C17.501,8.3 13,16.337 13,26L14.25,46C14.708,48 15.333,49.333 16,50C17.333,51.333 20,52.833 24,53.5L24,59L0,59L0,53.5C4,52.833 6.667,51.333 8,50C8.573,49.427 9.023,48.361 9.35,46.802L10,26Z" style="fill:rgb(16,190,151);fill-rule:nonzero;"/>
                </g>
                <path id="Path-5-Copy" d="M145.419,13.186L146.581,14.814C137.501,21.3 133,29.337 133,39L135,71L129,71L130,39C130,28.663 135.833,20.034 145.419,13.186Z" style="fill:url(#_Linear1);fill-rule:nonzero;"/>
                <g id="Oval" transform="matrix(1,0,0,1,131,0)">
                    <path d="M15,13C13.343,13 12,6.657 12,5C12,3.343 13.343,0 15,0C16.657,0 18,3.343 18,5C18,6.657 16.657,13 15,13ZM16.203,13.603C15.161,12.315 19.245,7.279 20.532,6.237C21.82,5.194 25.263,4.134 26.306,5.421C27.349,6.709 25.596,9.857 24.308,10.9C23.021,11.942 17.246,14.89 16.203,13.603ZM16.466,14.818C16.839,13.204 23.321,13.322 24.936,13.694C26.55,14.067 29.506,16.128 29.133,17.742C28.76,19.357 25.201,19.913 23.586,19.541C21.972,19.168 16.093,16.432 16.466,14.818ZM15.622,15.866C17.111,15.139 21.099,20.252 21.825,21.741C22.551,23.23 22.81,26.824 21.32,27.55C19.831,28.276 17.159,25.86 16.432,24.371C15.706,22.882 14.132,16.592 15.622,15.866ZM14.378,15.866C15.868,16.592 14.294,22.882 13.568,24.371C12.841,25.86 10.169,28.276 8.68,27.55C7.19,26.824 7.449,23.23 8.175,21.741C8.901,20.252 12.889,15.139 14.378,15.866ZM13.534,14.818C13.907,16.432 8.028,19.168 6.414,19.541C4.799,19.913 1.24,19.357 0.867,17.742C0.494,16.128 3.45,14.067 5.064,13.694C6.679,13.322 13.161,13.204 13.534,14.818ZM13.797,13.603C12.754,14.89 6.979,11.942 5.692,10.9C4.404,9.857 2.651,6.709 3.694,5.421C4.737,4.134 8.18,5.194 9.468,6.237C10.755,7.279 14.839,12.315 13.797,13.603Z" style="fill:white;"/>
                </g>
                <circle id="Oval-2" cx="146" cy="14.5" r="2" style="fill:rgb(214,202,46);"/>
            </g>
        </g>
    </g>
    <defs>
        <linearGradient id="_Linear1" x1="0" y1="0" x2="1" y2="0" gradientUnits="userSpaceOnUse" gradientTransform="matrix(2.67832e-15,-43.7402,43.7402,2.67832e-15,132.759,62.8271)"><stop offset="0" style="stop-color:rgb(16,190,151);stop-opacity:1"/><stop offset="1" style="stop-color:rgb(16,190,151);stop-opacity:1"/></linearGradient>
    </defs>
</svg>
