<?xml version="1.0" encoding="UTF-8" standalone="no"?>
<!DOCTYPE svg PUBLIC "-//W3C//DTD SVG 1.1//EN" "http://www.w3.org/Graphics/SVG/1.1/DTD/svg11.dtd">
<svg width="100%" height="100%" viewBox="0 0 300 300" version="1.1" xmlns="http://www.w3.org/2000/svg" xmlns:xlink="http://www.w3.org/1999/xlink" xml:space="preserve" xmlns:serif="http://www.serif.com/" style="fill-rule:evenodd;clip-rule:evenodd;stroke-linejoin:round;stroke-miterlimit:1.41421;">
    <g transform="matrix(1,0,0,1,42.8051,29.1158)">
        <g id="horn">
            <path id="horn-01" d="M147.392,74.74C149.01,72.428 161.987,70.508 182.702,53.282C192,45.55 195.416,33.197 187.923,19.397C184.388,12.888 178.045,6.717 168.893,0.884C194.806,5.792 209.73,19.408 213.666,41.73C217.602,64.052 203.755,83.418 172.123,99.826C164.329,99.818 158.169,97.519 153.645,92.93C146.859,86.047 145.769,77.057 147.392,74.74ZM66.998,74.74C68.621,77.057 67.531,86.047 60.745,92.93C56.22,97.519 50.061,99.818 42.266,99.826C10.635,83.418 -3.212,64.052 0.724,41.73C4.66,19.408 19.584,5.792 45.497,0.884C36.345,6.717 30.001,12.888 26.467,19.397C18.973,33.197 22.389,45.55 31.688,53.282C52.403,70.508 65.379,72.428 66.998,74.74Z" style="fill:rgb(64,39,64);"/>
        </g>
    </g>
</svg>
