<?xml version="1.0" encoding="UTF-8" standalone="no"?>
<!DOCTYPE svg PUBLIC "-//W3C//DTD SVG 1.1//EN" "http://www.w3.org/Graphics/SVG/1.1/DTD/svg11.dtd">
<svg width="100%" height="100%" viewBox="0 0 300 300" version="1.1" xmlns="http://www.w3.org/2000/svg" xmlns:xlink="http://www.w3.org/1999/xlink" xml:space="preserve" xmlns:serif="http://www.serif.com/" style="fill-rule:evenodd;clip-rule:evenodd;stroke-linejoin:round;stroke-miterlimit:1.41421;">
    <g transform="matrix(1,0,0,1,63.9435,84.3664)">
        <g id="horn">
            <path id="horn-03" d="M45.323,21.781C46.945,24.098 45.856,33.088 39.069,39.971C34.545,44.56 29.601,45.719 24.237,43.448C14.195,38.97 7.764,29.374 4.943,14.661C0.711,-7.41 7.952,-8.164 23.247,8.749C35.427,22.217 43.704,19.469 45.323,21.781ZM126.79,21.731C128.409,19.419 136.686,22.168 148.866,8.7C164.161,-8.213 171.402,-7.459 167.17,14.611C164.349,29.325 157.918,38.92 147.876,43.399C142.512,45.67 137.568,44.511 133.044,39.922C126.257,33.038 125.167,24.048 126.79,21.731Z" style="fill:rgb(64,39,64);"/>
        </g>
    </g>
</svg>
