<?xml version="1.0" encoding="UTF-8" standalone="no"?>
<!DOCTYPE svg PUBLIC "-//W3C//DTD SVG 1.1//EN" "http://www.w3.org/Graphics/SVG/1.1/DTD/svg11.dtd">
<svg width="100%" height="100%" viewBox="0 0 300 300" version="1.1" xmlns="http://www.w3.org/2000/svg" xmlns:xlink="http://www.w3.org/1999/xlink" xml:space="preserve" xmlns:serif="http://www.serif.com/" style="fill-rule:evenodd;clip-rule:evenodd;stroke-linejoin:round;stroke-miterlimit:1.41421;">
    <g transform="matrix(1,0,0,1,96.1145,149.87)">
        <g id="mouth">
            <g id="mouth-04">
                <g transform="matrix(1,0,0,-1,0,43)">
                    <path d="M40.657,28.307C41.527,27.492 42.706,27 44,27L65,27C66.054,27 67.032,27.327 67.835,27.888C72.017,24.313 73.363,18.679 73.994,12.505C74.081,11.657 73.174,11 72.037,11C65.351,11 62.67,12.495 53.989,12.5C45.309,12.505 40.757,11 36.092,11C34.949,11 33.896,11.552 34.008,12.602C34.688,18.968 36.099,24.749 40.657,28.307Z" style="fill-opacity:0.698039;"/>
                </g>
                <path d="M40.657,14.693C43.558,12.38 47.799,11.002 53.996,11C60.522,10.998 64.888,12.533 67.835,15.112C67.032,15.673 66.054,16 65,16L44,16C42.706,16 41.527,15.508 40.657,14.693Z" style="fill:white;"/>
                <path id="path-3" d="M59.917,36C59.441,33.162 56.973,31 54,31C51.027,31 48.559,33.162 48.083,36L48,36L48,38C48,41.314 45.314,44 42,44C38.686,44 36,41.314 36,38L36,36L36,31C36,27.686 38.686,25 42,25L66,25C69.314,25 72,27.686 72,31L72,36C72,39.314 69.314,42 66,42C62.686,42 60,39.314 60,36L59.917,36Z" style="fill:rgb(136,197,83);"/>
            </g>
        </g>
    </g>
</svg>
