<?xml version="1.0" encoding="UTF-8" standalone="no"?>
<!DOCTYPE svg PUBLIC "-//W3C//DTD SVG 1.1//EN" "http://www.w3.org/Graphics/SVG/1.1/DTD/svg11.dtd">
<svg width="100%" height="100%" viewBox="0 0 300 300" version="1.1" xmlns="http://www.w3.org/2000/svg" xmlns:xlink="http://www.w3.org/1999/xlink" xml:space="preserve" xmlns:serif="http://www.serif.com/" style="fill-rule:evenodd;clip-rule:evenodd;stroke-linejoin:round;stroke-miterlimit:1.41421;">
    <g transform="matrix(1,0,0,1,95.6942,151.474)">
        <g id="mouth">
            <g id="mouth-09">
                <path d="M41.317,27.146C37.942,24.125 35.649,19.892 35.118,15.128C35.015,14.202 35.958,13.059 37.087,13L39,13C39.047,15.807 41.27,18 44,18L65,18C67.76,18 70,15.76 70,13L71.043,13C72.159,13.063 72.972,14.292 72.892,15.04C72.381,19.826 70.093,24.08 66.681,27.145C64.7,25.194 61.988,24 59,24C57.2,24 55.5,24.433 54,25.201C52.5,24.433 50.8,24 49,24C46.012,24 43.3,25.194 41.317,27.146Z" style="fill-opacity:0.698039;"/>
                <path d="M70,13C69.953,15.807 67.73,18 65,18L44,18C41.24,18 39,15.76 39,13L70,13Z" style="fill:white;"/>
                <path d="M41.317,27.146C43.3,25.194 46.012,24 49,24C50.8,24 52.5,24.433 54,25.201C55.5,24.433 57.2,24 59,24C61.988,24 64.7,25.194 66.681,27.145C63.336,30.158 58.883,32 54,32C49.132,32 44.692,30.169 41.317,27.146Z" style="fill:rgb(255,79,109);"/>
            </g>
        </g>
    </g>
</svg>
