<?xml version="1.0" encoding="UTF-8" standalone="no"?>
<!DOCTYPE svg PUBLIC "-//W3C//DTD SVG 1.1//EN" "http://www.w3.org/Graphics/SVG/1.1/DTD/svg11.dtd">
<svg width="100%" height="100%" viewBox="0 0 300 300" version="1.1" xmlns="http://www.w3.org/2000/svg" xmlns:xlink="http://www.w3.org/1999/xlink" xml:space="preserve" xmlns:serif="http://www.serif.com/" style="fill-rule:evenodd;clip-rule:evenodd;stroke-linejoin:round;stroke-miterlimit:1.41421;">
    <g transform="matrix(1,0,0,1,95.4933,150.462)">
        <g id="mouth">
            <g id="mouth-01">
                <path d="M76.826,13C78.784,13.038 79.1,14.345 79,14.739C77.646,25.183 66.968,33 54,33C41.062,33 30.41,25.231 29,15.609C28.873,14.266 29.364,13.047 31.174,13L39,13C39.047,15.807 41.27,18 44,18L65,18C67.76,18 70,15.76 70,13L76.826,13Z" style="fill-opacity:0.698039;"/>
                <path d="M70,13C69.953,15.807 67.73,18 65,18L44,18C41.24,18 39,15.76 39,13L70,13Z" style="fill:white;"/>
                <path id="Tongue" d="M65.984,23.747C65.995,23.83 66,23.914 66,24L66,33C66,39.075 61.075,44 55,44L54,44C47.925,44 43,39.075 43,33L43,24C43,23.914 43.005,23.83 43.016,23.747C43.005,23.665 43,23.583 43,23.5C43,21.567 45.91,20 49.5,20C51.51,20 53.308,20.491 54.5,21.263C55.692,20.491 57.49,20 59.5,20C63.09,20 66,21.567 66,23.5C66,23.583 65.995,23.665 65.984,23.747Z" style="fill:rgb(255,79,109);"/>
            </g>
        </g>
    </g>
</svg>
