<?xml version="1.0" encoding="UTF-8" standalone="no"?>
<!DOCTYPE svg PUBLIC "-//W3C//DTD SVG 1.1//EN" "http://www.w3.org/Graphics/SVG/1.1/DTD/svg11.dtd">
<svg width="100%" height="100%" viewBox="0 0 300 300" version="1.1" xmlns="http://www.w3.org/2000/svg" xmlns:xlink="http://www.w3.org/1999/xlink" xml:space="preserve" xmlns:serif="http://www.serif.com/" style="fill-rule:evenodd;clip-rule:evenodd;stroke-linejoin:round;stroke-miterlimit:1.41421;">
    <g transform="matrix(1,0,0,1,50.5,139)">
        <g id="ear">
            <g id="ear-03">
                <path id="Combined-Shape" d="M3.363,23.069C-0.043,21.102 0.016,14.622 3.496,8.594C6.976,2.567 12.559,-0.725 15.966,1.242C17.938,2.381 19.318,7.154 23.44,12.915C26.436,17.103 33.253,22.026 31.249,25.42C29.313,28.7 21.062,24.53 16.279,23.893C9.306,22.964 5.384,24.236 3.363,23.069ZM198.559,22.56C196.538,23.726 192.616,22.455 185.643,23.383C180.86,24.02 172.609,28.19 170.673,24.91C168.669,21.517 175.487,16.594 178.483,12.406C182.604,6.644 183.984,1.871 185.957,0.732C189.364,-1.235 194.946,2.057 198.426,8.085C201.906,14.112 201.966,20.593 198.559,22.56Z" style="fill:rgb(55,118,253);"/>
                <path id="Oval-2-Copy" d="M4.345,19.591C2.248,18.381 2.634,13.788 5.206,9.333C7.778,4.878 11.563,2.248 13.659,3.458C15.756,4.669 15.37,9.261 12.798,13.717C10.226,18.172 6.441,20.802 4.345,19.591Z" style="fill:rgb(13,13,13);fill-opacity:0.2;"/>
                <path id="Oval-2-Copy-2" d="M197.117,19.159C195.021,20.369 191.236,17.739 188.664,13.284C186.092,8.829 185.706,4.236 187.803,3.025C189.899,1.815 193.684,4.445 196.256,8.9C198.828,13.355 199.214,17.948 197.117,19.159Z" style="fill:rgb(13,13,13);fill-opacity:0.2;"/>
            </g>
        </g>
    </g>
</svg>
