<?xml version="1.0" encoding="UTF-8" standalone="no"?>
<!DOCTYPE svg PUBLIC "-//W3C//DTD SVG 1.1//EN" "http://www.w3.org/Graphics/SVG/1.1/DTD/svg11.dtd">
<svg width="100%" height="100%" viewBox="0 0 300 300" version="1.1" xmlns="http://www.w3.org/2000/svg" xmlns:xlink="http://www.w3.org/1999/xlink" xml:space="preserve" xmlns:serif="http://www.serif.com/" style="fill-rule:evenodd;clip-rule:evenodd;stroke-linejoin:round;stroke-miterlimit:1.41421;">
    <g transform="matrix(1,0,0,1,18.5,150)">
        <g id="ear">
            <g id="ear-01">
                <path d="M65.187,1.915C66.279,2.088 68.128,3.077 67.608,5.252C67.262,6.702 66.184,7.986 64.375,9.106C59.042,11.335 54.873,15.272 51.868,20.916C47.361,29.382 43.933,36.562 30.846,41.326C17.76,46.09 -1.703,33.695 0.119,29.976C1.942,26.257 4.227,28.175 13.09,23.803C21.952,19.431 22.019,11.614 33.581,5.572C45.144,-0.471 53.67,0.083 65.187,1.915Z" style="fill:rgb(55,118,253);"/>
                <path d="M197.892,1.916C209.409,0.084 217.935,-0.47 229.497,5.573C241.06,11.615 241.126,19.432 249.989,23.804C258.851,28.176 261.137,26.258 262.959,29.977C264.782,33.696 245.319,46.092 232.232,41.328C219.146,36.564 215.718,29.383 211.211,20.917C208.206,15.273 204.037,11.336 198.704,9.107C196.894,7.987 195.816,6.703 195.47,5.253C194.951,3.078 196.799,2.089 197.892,1.916Z" style="fill:rgb(55,118,253);"/>
                <path id="Combined-Shape" d="M12.25,24.254C12.561,24.109 12.881,23.955 13.21,23.793C22.072,19.421 22.139,11.604 33.701,5.562C42.859,0.776 50.112,0.128 58.454,0.975C53.014,0.714 47.867,1.246 43.013,2.569C39.894,3.42 31.013,6.569 25.013,13.569C19.882,19.555 15.628,23.116 12.25,24.254ZM64.386,9.079L64.375,9.086C59.042,11.316 54.873,15.253 51.868,20.897C47.361,29.363 43.933,36.543 30.846,41.307C17.76,46.071 -1.703,33.676 0.119,29.957C0.35,29.486 0.589,29.105 0.847,28.79C4.094,25.012 15.052,28.999 22.2,29.79C29.367,30.582 37.697,28.434 50.156,16.697C58.463,8.872 63.209,6.327 64.395,9.063L64.386,9.079Z" style="fill:rgb(13,13,13);fill-opacity:0.2;"/>
                <path id="Combined-Shape-Copy" d="M250.725,24.265C247.347,23.127 243.092,19.566 237.962,13.58C231.962,6.58 223.081,3.431 219.962,2.58C215.108,1.257 209.96,0.725 204.52,0.986C212.863,0.139 220.116,0.787 229.273,5.573C240.836,11.615 240.902,19.432 249.765,23.804C250.094,23.966 250.413,24.12 250.725,24.265ZM198.588,9.09L198.58,9.074C199.766,6.338 204.512,8.883 212.818,16.708C225.278,28.445 233.607,30.593 240.775,29.801C247.923,29.01 258.88,25.023 262.128,28.801C262.386,29.116 262.624,29.497 262.855,29.968C264.678,33.687 245.215,46.082 232.128,41.318C219.042,36.554 215.614,29.374 211.107,20.908C208.102,15.264 203.933,11.327 198.6,9.097L198.588,9.09Z" style="fill:rgb(13,13,13);fill-opacity:0.2;"/>
            </g>
        </g>
    </g>
</svg>
